<mxfile host="app.diagrams.net" agent="Mozilla/5.0 (Windows NT 10.0; Win64; x64) AppleWebKit/537.36 (KHTML, like Gecko) Chrome/131.0.0.0 Safari/537.36" version="25.0.3">
  <diagram name="ページ1" id="iUMDMjebfWrioHnqgjVv">
    <mxGraphModel dx="3990" dy="2500" grid="0" gridSize="10" guides="1" tooltips="1" connect="1" arrows="1" fold="1" page="0" pageScale="1" pageWidth="827" pageHeight="1169" math="0" shadow="0">
      <root>
        <mxCell id="0" />
        <mxCell id="1" parent="0" />
        <mxCell id="o2X0s68jg5Q_wTkpl9aG-6" value="" style="edgeStyle=none;curved=1;rounded=0;orthogonalLoop=1;jettySize=auto;html=1;fontSize=12;startSize=8;endSize=8;" parent="1" source="o2X0s68jg5Q_wTkpl9aG-2" target="o2X0s68jg5Q_wTkpl9aG-3" edge="1">
          <mxGeometry relative="1" as="geometry" />
        </mxCell>
        <mxCell id="o2X0s68jg5Q_wTkpl9aG-22" value="" style="edgeStyle=none;curved=1;rounded=0;orthogonalLoop=1;jettySize=auto;html=1;fontSize=12;startSize=8;endSize=8;entryX=0.002;entryY=0.49;entryDx=0;entryDy=0;entryPerimeter=0;" parent="1" source="o2X0s68jg5Q_wTkpl9aG-2" target="o2X0s68jg5Q_wTkpl9aG-4" edge="1">
          <mxGeometry relative="1" as="geometry">
            <mxPoint x="-400" y="-147" as="targetPoint" />
          </mxGeometry>
        </mxCell>
        <mxCell id="o2X0s68jg5Q_wTkpl9aG-2" value="" style="shape=image;verticalLabelPosition=bottom;labelBackgroundColor=default;verticalAlign=top;aspect=fixed;imageAspect=0;image=data:image/png,iVBORw0KGgoAAAANSUhEUgAAAeUAAAHFCAYAAADMnOFUAAAAAXNSR0IArs4c6QAAAARnQU1BAACxjwv8YQUAAAAJcEhZcwAADsMAAA7DAcdvqGQAACcNSURBVHhe7d0PcJTlvejx325oWgtRbiJ0SPEitjZaFT298eiBXnpC6QRxDpYjfxxBzmid0dIpalXaW4NzrqBXo61Kp9TOKE4ROgXs5ZiOPWSkMKVC9chlrLVq6ulBpzSZAyYFEsoxJbv3ed732X9vNrub/ZP97fL9jMv7vLub3Xdx9LvP+767CQ2cOh0VAABQdmG3BAAAZUaUAQBQgigDAKAEUQYAQAmiDACAEkQZAAAliDIAAEoQZQAAlCDKAAAoQZQBAFCCKAMAoARRBgBACaIMAIASRBkAACWIMgAASvD7lIG09svaz98lu9yaNfeRV2XNLLdSRV5Ze5V8s9OtWBeukp88u0ymuFUAY4eZMgAAShBlAACUYPc1kNaZs/sagB7MlAEAUIIoAwCgBLuvgbRKuPt6qF/e3dshOzo65Ndvvyd9A/7Vtec0ypTPNMu1S2+WhVc3Sq1/dUaDfQfkxe8/JZv2/dY9Tq1MuGCGeYxVsmJek0zo2SK33rBe3vXubbXKIy8/IFe7NSv72dfdsvXmhbIh8SDxv4uBdzvMfTvkxYMjPH+Nd3cAOWKmDIyhgVfWy4ovzZVb16yXF19LBNkaPN4t77/WIRvuWShf+sf75cXDg+6W9N7vuEuWLviaPNEZC6I1KAP/cUC2/p8Vcu2KR+XgcXd1sQ31yq5/ni/X3vygPLc3w/MnvT4A2RFlYIzYiN50zxZ5P3NrfUc6pX3ZrfL07/rdFal6tq6QFe37pc+tp/X+83LXyuRZcvEcfOwmWbur162NwDz/msf3m0wDyBVRBsbCO0/JN4MRnbZAVj/9c3np5Vfll7/8lexYv0qurne3WUNd8tzKB2VXcLZ5pEPaN3S5Fad+pqxc7x5r9y7Z9L9apd7uOh7yby62vj4b5Aa5euX3Zcdu85wv2+2/WS4M7K4e6OyQvafcCoCsiDJQcr0mWM9Kj1vzXHi7bHr2Prn2ogb/2HFNrdR/bpk88uPHZW5KmPfI44HZ5rsdz8rBlNg2ya3fe1yWfs49Vm2dTLv2AXlubatM8G4vjdn/vFUeubFZ6v0nNdt/u7TfeZl3W8IBebMUU3WgShFloNTe3S5b33BjT50s/PrNMi3dmVwTZspdt810K76Bzi3yUnyK3S0H93W7sdN6u9w0zY2TTJh9u6y40K0UW02rXNtS51YS6q9skdSn7Jf+9HvgAaRBlIES6zm4P3WWPKFVvvQ5N05jwpx5MtuNfQfk4JtuONQlvw/MPGf/XbMbBTXK565udOMiu6BJpnFmNVB0RBkosfd/Hzj+O6VRkvdQD3NWozQE9ju/f9jNjnu65X1/FFd7Vropt2/ap5rcqMimNab/hRVTp0uaSTuAHBFlQJ0GmVKkX9GUKdgFqfmoGwAoJqIMqNMrPSn7u/M3eIoPJAGVhCgDJTbtM4FdyD3dmT9f3HdI3g98DGraVHdseErjsN3DmcL7/h8Cu84BqEaUgRKbcvnM1OOvA53y0kE3TmPg13sk9eYW+bsr3bCmST4TOKN6768PuFFQl/xyT+BMbQCqEWWg1C5qkblT3djTLzu+92z6b/Ya2C+P/3C/W/FNWLhI5p7lVuwZ1bMCZ1R3PiXPBc/+Mgb2bpEdh90KgIpAlIEc7frmVfKFz+d6uV9ecT9nv9xjxZ0LUs+4fvcpWXHzg/LiO73+F4MMDUrfwS3yzRvvkl3J+7brW2XNbakfebrwhttldsrHkbrk6a/fJVsPusca7JWDP75Lbvp2p/DV00BlIcrAGKi9+j55YmXg2PL7HdJ+63z5ko34F/6nLFy1Xl5JDnJNk6z83gNydfBruSa0yl13Bz6b3LdfNqxyjzVnvty1Icv3YgNQiSgDY2TajZtkx0OL0n+TV0DtBYtk7fZNsnSED/3WL/i+bPr6Zf7Xao6g/up7Ze2tJfqcMoCSIMrAGKqffa9seulXsumxVXLtledLfdIs2P4+5Utm3+z9kooXN90rsye7G0YwbenT8uJPHpabZl8mE2J1rqmT+ktaZeVjO2TrY4vkwmC1+XwxoFpo4NTpqBsDqDI9P14hNyT/RqkLV8lPnl2W/tu4AJQdM2WgwrzSPlcWrviarP3eFtn1Spf0HB/5c8o9PYGPRF08nSADijFTBirMsNmvUd/6sDxzT4vUu49ODQ50y5sdj8ralBO+6mTh+l1yZ4ZfhgGgvIgyUGkGOmXNtffL3pTfqZyDi1bJT55m1zWgGbuvgUozoVXWPHuvXJ3xV02lqp1xs2x4giAD2jFTBirVUL+8u7dDXnppj+x99z3p7en3vzzEUysTpjTKZy5pkbk3LJYvXdSQ8eNTAHQgygAAKMHuawAAlCDKAAAoQZQBAFCCKAMAoARRBgBACaIMAIASRBkAACWIMgAAShBlAACUIMoAAChBlAEAUIIoAwCgBFEGAEAJogwAgBJEGQAAJcb09ylHo/zqZgCAXqFQyI3Ko+QzZRvi2AUAAM3K3aySzJRzezH+fWg1AKAcEpPi7LPjsZpBFzXK6WNs33G4IQAAFcBv8PAQlzrORYvy8CAHY0ycAQC6BWOcLs6lDHPBUQ7GOHU9NcSZd2sXtBkAAORo5KgmB3d4oFN/rhRxLijKIwU5+fpwOCS148IyribsjQEA0CoSicrpoYgMno5445hYgEsd5qJFORhkuzzro+Ok9iM13joAAJVk8K9DcurD08OCnBziYkc5749EjRTk2GX8xz5CkAEAFcs2zLYsuW1WbGklj4shryin2yC79Mf+DHncOL4sDABQ2WzLbNNs2xKdS9/BYiiwnMODXBMOM0MGAFQN2zTbNtu4RO+s4sU4ZtRRTn5H4A9T1z/CDBkAUGVs25LyZ9g4u6GR3MZC5F3Q2AbYReydg72MG8csGQBQXWzbkltn/vHYcTEVZfe1XcY2tIaPPQEAqoxtW6xzye0rtlFFOfGOwF/aVX8jvdWk2wEAqC6xxgXbZ9b8P4vQwLxmysOfN/juAQCAapO+dUVocVwBu6/dVpit8Tco+V0DAADVJaV18eAVN3wFnOhlL2bjktYTGwkAQJWxzXOZ85NX/MlozlHOtK88dluRtw0AADVijculh/kqYPd1kN0QsgwAqFal71weUQ5ukL9u3xwU+AYBAAC1UjsXDF5xAjjqKAfDS4gBAGeaUrWwiLuvAQBAIYoUZabLAIAzRemax0wZAAAlCoyye7fARBkAcKaIN6/48SviTJkyAwCqXWlbV+Td14QZAFCtSt84jikDAKAEUQYAQAmiDACAEkQZAAAliDIAAEoQZQAAlCDKAAAoQZQBAFCCKAMAoARRBgBACaIMAIASRBmoaP2y78HF0tbZL93Pf1UWf/cNdz2ASkSUAbX2SVtzszSbS9ted1Vc7LYWadv1gex86jnpn3GZfLh1s+z+i7sLgIpDlIERdG9a5gUx6+WqtSaR5dO4aLHMk/fk0ISlsvyqd+SN3w66W/IXf+33u1f2x82yLPi645dlsvmP/t0AFIYoA4X61HSZ7oZlUfdlWbejXeY1NsiS9R1y51W17oax0iVPLEw3mwcwWqGBU6dz+gWR0ah/t+RlNBqRSMQsI2bpjSMyueEc73ag2u2+r1lWd5pBa7sceHCOf2UR2FnqgvVdbm10mlZ1yJYVjW4tf/FtmP+kHHhglj9TXviEyW+T3Lljiyw/z91RumXzjQvkid/b8Tx58sA6MfcGqtKR3uMSDoclHApLyC7DIQnZcSjk3R5c5oOZMpCXbuk+5I/qJp7rD85IjbL8x0+aHFs75V9js+X47m52bQOjQZSBvBySQ3/wR42fLG6UG1dskQMHDphLLHZmDvpdu558SdxmZ8ex64sxSx69WXLNfH+0c1c5j64DlY8oA/no/UC6h/zh9KnBENpdusGToXK7LNvU7R6jEGP//NM/3eRGznnLZYv3RiF5VzeAbIgykI/+XvnAG0yXC/67NyibT37iTN59DlQXTvQC8rG3TZq/sdMMrpQ1nT+Q6xr8q4vLfhb5DrHPYndfr5vtX+t5a4MsWLHRzIkb5ZZNHbLys+76Isn9RC/fvvub5Y6fm0Hs/kAV4kQvQKnuw+4sL2mQc0sSZGuWrHPHilOCLL3ywnobZKNhjny+yEEevW459O/+aN5cggwUgigDefjgT+7Y62cuGtvPKA/1y+4Hb5S1B/zVOd/4iszwh2Wz7/7ER6KuSXnzAGC02H0NBMV3Teej+J/VHTzWKx90vyMv731Btm/aLYfcF3ZNX/oD2XjvlVLnrxbVyLuvR5ayiz3L7m6gErH7GjiT/WWnrG5ulplzW2XBijuk/WkX5NrpsuThDtlSoiCPnn0jEtzFDiAfzJQBtbpkw4JlsvE/66ThE+fKBZe1SMvCa+TLfzNdamvcXQCMmbGYKRNlAABywO5rAADOIEQZAAAliDIAAEoQZQAAlCDKAAAoQZQBAFCCKAMAoARRBgBACaIMAIASRBkAACXK+jWbfX19cvToUTl58mT8cQEAKCX7NZjjx4+XSZMmSX19vbs2u6r+7uvDhw9Lf3+/TJkyRc4++2zvhQIAUGq2VSdOnJCenh6pq6uTqVOnulsyq9rvvrYzZBvkpqYmmThxIkEGAIwZ2xzbHtsg2yLbJC3KUkO7y9rOkIkxAKBcbINsi2yTtChLFe0xZLvLGgCAcrItsk3SoixRtsejmSUDAMrNtkjTicaUEQAAJYgyAABKEGUAAJQgygAAKEGUAQBQgigDAKAEUQYAQAmiDACAEkQZAAAliDIAAEoQZQAAlCDKAAAoQZQBAFCCKAMAoARRBgBACaIMAIASRBkAACWIMgAAShBlAACUIMoAAChBlAEAUIIoAwCgBFEGAEAJogwAgBJEGQAAJYgyAABKEGUAAJQgygAAKEGUAQBQoixRDoVCEolE3BoAAOVhW2SbpEVZojx+/Hg5ceKEWwMAoDxsi2yTtChLlCdNmiQ9PT3MlgEAZWMbZFtkm6RFWaJcX18vdXV10tXVJceOHSPOAIAxY5tj22MbZFtkm6RFaODU6agbZxSN+ndLXkajEfPizNK8wIg3jsjkhnO823PR19cnR48elZMnT8YfFwCAUrLHkO0uaztDHk2Qj/Qel3A4LOFQWEJ2GQ6ZxzJjd0w6uMxHWaMMAEClGIso85EoAACUIMoAAChBlAEAUIIoAwCgBFEGAEAJogwAgBJEGQAAJYgyAABKEGUAAJQgygAAKEGUAQBQgigDAKAEUQYAQAmiDACAEkQZAAAliDIAAEoQZQAAlCDKAAAoQZQBAFCCKAMAoARRBgBACaIMAIASRBkAACWIMgAAShBlAACUIMoAAChBlAEAUIIoAwCgBFEGAEAJogwAgBJEGQAAJYgyAABKEGUAAJQgygAAKEGUAQBQgigDAKAEUQYAQAmiDACAEkQZAAAliDIAAEoQZQAAlCDKAAAoQZQBAFCCKAMAoARRBgBACaIMFGrokGy+vUWam5ul5fbNcmjIXQ8Ao0SUgSy6Ny3zgtvc3Cb73HXyx82yzLuuWdoe3S7PNa6T/Qf2yJqG52T7AXefarG3zb1+81r3uuukX/Y9uFjaOvulv3O1tNy3WwbdLQDyR5SBXDU2yrluKA3nyifdUK5aLDd1t8nM5hZZ23uTLG72r07EPNulVdpfDSZtn7SlvW+myzLZ/Ef34yVXJxc11cnOp56T7r9plumdm+VfjribAOSNKAO5mnC2SZHz8TqpdUOpmS7Ln9ojBw4ckD1PLZfpNe76nJ1reh9/tIrRMH+5zKt5Tw6d/rIsn98vXe/0u1sA5IsoA1n096eLjQ2pPzp0uNsfBDSu2OKFOv2lU1Zf4e54xXVyzXlunMa876b7+cSlY1WTu6d50/BxNyyRwVNJM/qPz5F1z7fLPPOGYs4D22XN7PhbFgB5IspAFn/qdtH99HRxHTbOlU+6le4/feAPRmFw7+Pyg9f98ZwbviwN/rBADXJucR5oRLvvmykz594ibZv2yaH+DEeR48fcx3KXOlD5iDKQ0SF579/9UeMn4keUjQaZ/il/Ztj/2zck/Vx5BP375IEHd4o3/25eI9+cWzm7ruvqamXw2Buyc/0dsrjl72XB156QF37PbmugWIgykEnvG/LaH/zhjM/GdhP7LppxpT946w154y/+MCv78amv3SE7e8245kpZ88B1Bc+SP/hP95YgfiJat2y+MXgSWG6XZZsyvb1okq9s2i/7f75F1ixqkrqaQel+dbOsvbFFZi5tk22vJ8X5vOWyxdu9vkWWZ9g1DyAVUQYy6N3zgrzmjebI56/yBnG1zbPEz/Ju2b0/hw8EDfXL7v99uzzxlr/asOgWuWayPx5ulqxzx4zXzXZXpdUlL+93MWy6QKb7o5Kqndwk131ri+z5VYc8eessaagRGfzDTmm/dZG0H+CDUUAhQgOnTkfdOKNo1L9b8jIajUgkYpYRs/TGEZnccI53O1D5umTDwmWy0R4Tndsu+x+ekzjj2tMr225tlXZ7bLhlnex5dF7i7OygoV7Zed+N0rbLTpETGha2y/PfmmNmne6K0TrQLi23b/N2hc95eL+0l2JXuP2c8jd2mkGT3Lkjzcz32Buy+YE22X3Fk7JxxVi8LQDK40jvcQmHwxIOhSVkl+GQhOw4FPJuDy7zwUwZGEF/5zN+kKVBltwQDLLVIF+81u3C3rNBnnMz4GGO7ZP2pa0uyLUyY9UP5Mmlfrx6d6yW1ts2y6F8JpjHdkvbfX6QpWGJLG8p07HpiTNk+Xc7CDJQBEQZSKd/nzzy3d3+uOUu+Wrs40sBDQtukSXe9LhbNj68OXDC16B071ori1vvkG3vmdWaBpn34M9MvK6UWfduke3fmuUdTx58/QlZ/OW1svuY90M5sI/bLovnr3bHps0M9oerZUa+s20AahBlICjlZKw5su7+DLula66Ur6yKnfD1hNy76ZA3HHxvt5kd/70s+NYL/ndhT54na57/maxrjZ3WVSvTFz0pzz96nXdMVo68IKuX3iEv2HgPMyj9vd3StX+nbH7wq7K4ZaZ53G3+7Lp2htzy9FOy/Hz/nmrwkSggL0QZCDi0tc2djGVmto+ukXlZvhOjYcFqufOz/rjrJ9tl/8vt8g+LVsu2P5hqmtnxrFUbZc/P1sl15w3fvVzXskae//4S/1vAevfJ2nXbArNteyb1TGlpXSDLVpnt2vGaHLL7q2vqpGnRGtneuVFWXpZlAwFUDE70Aobpl9ceXS2bP71anlyY43HSfhPUe/eZiK+WK+v6Zee3FshzE++U+2+/Tpomuvtk0P/bDdL27CflTjNzDn5NZ9f3TZCf/1AaJ18gM66aJZ+fPUtmzZgudWN1CDnbiV7AGWIsTvQiygAA5ICzrwEAOIMQZQAAlCDKAAAoQZQBAFCCKAMAoARRBgBACaIMAIASRBkAACWIMgAAShBlAACUKOvXbPb19cnRo0fl5MmT8ccFAKCU7Ndgjh8/XiZNmiT19fXu2uyq+ruvDx8+LP39/TJlyhQ5++yzvRcKAECp2VadOHFCenp6pK6uTqZOnepuyaxqv/vazpBtkJuammTixIkEGQAwZmxzbHtsg2yLbJO0KEsN7S5rO0MmxgCAcrENsi2yTdKiLFW0x5DtLmsAAMrJtsg2SYuyRNkej2aWDAAoN9siTScaU0YAAJQgygAAKEGUAQBQgigDAKAEUQYAQAmiDACAEkQZAAAliDIAAEoQZQAAlCDKAAAoQZQBAFCCKAMAoARRBgBACaIMAIASRBkAACWIMgAAShBlAACUIMoAAChBlAEAUIIoAwCgBFEGAEAJogwAgBJEGQAAJYgyAABKEGUAAJQgygAAKEGUAQBQgigDAKAEUQYAQImyRDkUCkkkEnFrAACUh22RbZIWZYny+PHj5cSJE24NAIDysC2yTdKiLFGeNGmS9PT0MFsGAJSNbZBtkW2SFmWJcn19vdTV1UlXV5ccO3aMOAMAxoxtjm2PbZBtkW2SFqGBU6ejbpxRNOrfLXkZjUbMizNL8wIj3jgikxvO8W7PRV9fnxw9elROnjwZf1wAAErJHkO2u6ztDHk0QT7Se1zC4bCEQ2EJ2WU4ZB7LjN0x6eAyH2WNMgAAlWIsosxHogAAUIIoAwCgBFEGAEAJogwAgBJEGQAAJYgyAABKEGUAAJQgygAAKEGUAQBQgigDAKAEUQYAQAmiDACAEkQZAAAliDIAAEoQZQAAlCDKAAAoQZQBAFCCKAMAoARRBgBACaIMAIASRBkAACWIMgAAShBlAACUIMoAAChBlAEAUIIoAwCgBFEGAEAJogwAgBJEGQAAJYgyAABKEGUAAJQgygAAKBEaOHU66sYZRaP+3ZKX0WhEIhGzjJilN47I5IZzvNuL7cdviPzw30RePSzy4Wl3JQAAxkfHiVw1VeS2vxW5cYa7ssiO9B6XcDgs4VBYQnYZDknIjkMh7/bgMh8VEeV7/lXkO/vcCgAAGdw9S+Sxa9xKEY1FlNXvvrYzZIIMAMiVbYZtRyVSH2W7yxoAgNGo1Haoj7I9hgwAwGhUajvUR5mTugAAo1Wp7eAjUQAAKEGUAQBQgigDAKAEUQYAQAmiDACAEkQZAAAliDIAAEoQZQAAlCDKAAAoQZQBAFCCKAMV4O5bRKJtZmnGvzDLt/7Rvx5AdSHKgBYmtNF1In82AQ76zkaRtz8m8hVzny++JXLx50Sedrflywu9eb5CHwdA8RBlQIlffNZf/tQEOJ1n/sPE2Nzn7v8rsvu/RK5PE++cmbg/doFZHjWxn+lfFWfW/2xizWwcGHuhgVOno26cUTTq3y15GY1GJBIxy4hZeuOITG44x7u9WEJtbgCUmZ1ZeiHLw9sHRT5rYjoiO0s2s9+cmCDfY6L5Hbc6arHnGulxTJTv3m9m5ea2i83q7p+b2blZByqN3RNUTEd6j0s4HJZwKCwhuwyHJGTHoZB3e3CZD6IM5CgW5VFFygUwW5TfsgE0s9bQk+6KEeR6vxFlC3LQaO8PKFKJUWb3NVBmT9/hz0ifyRZaE0h7v2P9/upo2efxAmujnmtgzRsJ+8Z4txk+Zn6GXdpAaRFloIxsKL8yyZ993+quG8ndE/1lzzF/ORp2hm2fx87Y85llf9H8/D32mLaJ+i+Cx6ABFA1RBsokOci57A6f3+gv92c6Nh3gzY5NUO0M2xrNzwbZM8DtrHnEbbUniJnb7ce2AOSHKANlYD9rPJog213Xcz4mcszMVrPNqC37+DbGseewZ2uX2i/miEw02zifmTSQN6IMjDEbzDn9WWadAU+f5y8PvuMv04l97thebMCfMY8/mucohH1u+5yjOgkOwDBEGRhj9vjsqI7rmlmynfHaWXK64MVmxbEzw22I7SWXGXUxxM5KH2n7AOSOKAOa2eO07iNJ60b4UhEv8mM4K06WHOT/NsL2AcgdUQa0skGeL2JPun7GhFfbZ4TtDN0G2Z7RTZCB4iDKgEb2SztiQR7DXdE5sdvmjlvb3eUZv6kMwKgQZUATOzs2wYt/yYemILsY222zu6vLsbscqHZ8zSaQo9jx03xk+5rN2GeWPYV8jeYIvDO+3RnZo4l88DVn/Q5vQBH7JrKY+O5rgyijmiVHr5S7qUcVZTsjtjN1R93ucyBHRJkoAwCUqMQoc0wZAAAliDIAAEoQZQAAlCDKAAAoQZQBAFCCKAMAoARRBgBACaIMAIASRBkAACWIMgAAShBlAACUIMoAAChBlAEAUEJ9lD86zg0AAMhRpbZDfZSvmuoGAADkqFLboT7Kt/2tGwAAkKNKbYf6KN84Q+TuWW4FAIAsbDNsOypRRZzo9dg1IluWiMw+n2PMAIDhbBtsI2wrbDMqVWjg1OmoG2cUjfp3S15GoxGJRMwyYpbeOCKTG87xbgcAoJoc6T0u4XBYwqGwhOwyHJKQHYdC3u3BZT4qYqYMAMCZgCgDAKAEUQYAQAmiDACAEkQZAAAliDIAAEoUOcr5nwYOAIBupW9cEaNMkAEA1a60rSswym7j6DEA4EwRb17x48cxZQAAlChSlJkqAwDOFKVrHjNlAACUGHWUg9+zHVwfGoq4EQAA1SHYtmwtzFceM+XgM/vrdoPsZfCvp711AACqhW1brHO++MAJrueniLuv7QaF5NR/DfqrAABUCb9tfudKKecoZ/r9kPHfIWkup4eG5C+nCDMAoDrYptm2xSqYSw/zlfdM2T6vffLERsb/kP6Bv8iHg3/1rgcAoFLZltmm2bbZxnmZ89f8Brr1Yilg93Vsy2Ib5S/9jQzJn48PyMlTH3p3AQCg0tiG2ZbFumYbF2udW7EDtyyO0MCp01E3zioajd01asb+evIlEokMW35kXI2c9bFa+WjtR2ScGQMAoNXp00Pe7NgeQ/6rGYfDYS/IwWXqxf6kH2e7XohRRdmysU0sY3GOmAAPj3PwevOH/Qn7Y/Yf7+fdILYAAKCk4tl0MY011RslxTYctsvhMU5c737eH8SXhSgwyv5y2MVEOZJyXSzS3g+kBNkfB6W/FgCA/AwPpmuq94e/sIG1i1h0/eCG7TLtDNl/zOCyEHlH2fLHfmwTATaX2O5rt27+8K9P+hn3T5LUNQAASiMRT2/k/vBCa0c2rnZsLl6Q7WVYlBM/E5M8zteoo2z5YfVGtrd+cF1sk9eDl9jtdun+SSP9tQAAFGZ4NF1bvT+SQ5v+ErzdX/f+9FcKVmCUE+NgeGPrydfZP9y9/fW0RrwBAIACpA9nPLZuJb7ujWOX1Ou8Nbe0kseFyCvKlh9bX2yciLC7zq7HxikhHinKaa8EAKBIhsczFtzksRdfd0VyhJPHMcnjQuUdZSsWYCslxvFlLL6JCCf/TIK5Lt3VAAAUm19bb5gsEVzvz6Rl7PrUpVXMIFtFi7IVDLMVH5tl4N72KgAAyiYW3hh/1V9PF99ghFVF2RopzL7U8Abvm6qgzQAAIEcjhzQ1xN6f3tgqdZCtgqMcMzy4wZkwM2MAgG7DQ+z96Y1jShHjmKJF2Uo/EybGAIDKki7GVimDbBU1yjGZd1PH+Pch2ACAckj0NXtoSx3jmJJEOVlugQYAQJexCnGyAn51Y27si4pdAADQrNzNKvlMGQAA5KbkM2UAAJAbogwAgBJEGQAAJYgyAABKEGUAAJQgygAAKEGUAQBQgigDAKAEUQYAQAm+0QvV43c1MuGXUXlzZUTOd1cFdW6tkevf9cc/bRuSVn/oeW9PjVx6JCoDSyP+FfbxdvjDoKZZEfl/Lf5/OsmPmU78eY6G5X9sN+tpty8st6wLyTYz8u8fkvUbwvLtPv/WFPWZX2O52b+Pb09O/P2MhvfvYJ8/fui2IVk1yR8DZwqijMpmQ/fDkHS51RQ2Xl8IyaVJYU2OaVDaKKeJfPbo+EH90cUReehIWK4X85hzxNvOy83z329+LhhUL+zmfj81P3t9b4bojvTGI+sbEj/6V5Q8dP5rf/0LQ7LxEndVXgJvSi5M+vcCVDGijMoXDFLyetZYjTAjjQU9zc8Go2zXt16aiFAssH5EEo+fmPn518lit2630bxxSJ4hx4OebgaeZqac+pzpZItyYqaeVcrzj+LnAlL3VGTZPvd3RJxR7YgyqoD/P/Sl7n/yKTPerFFOyG/3dUjeOxqSB8ws+DfmOi+kw2a6LswN9rGj8ej6P+9vuyzMcWaZ9vX4j595dpoletkk/V1k3K3s9lw8lBLcXBS4fUCV4EQvVIGoXFEv0nXUX+s6IrLk0iLNpuys0ARmIOny0wvdbZ6onD8pIhvbonL5Prur2jx3n5lhrzMRi1/8mfISE087tvFMzLJNkGdF5Tc7ku5vAvued2uuQvK6efwrJvtr9s1F4rljF382++0fJq5b7/6+srGzcO+NgHv9GaN5JCRd5u+sya3mzGzLb8yiiSDjDMdMGRUt+cSgYWK7oEeY7QZ3heY3U05sw5JcZrvuMYffN3W2m/F1OfFtyGl2OjYz0eCu/ZxlPAkOOHMQZVSPdLt2A9flHN5Y0NPs+k4OT/Zjuekk786O/VzmXdAZY6clyvHtiEiXfX3B4/TGiCfa2X8Pbyb+PkZ6U5LTGx+gghFlVLaRomp4AZgczhzlOBdKE9h4hNNF3kgbyAzbEZRyTNaFLHj2+EO3me3bnoh0avwDAR9hO1Nli3LmNwW58LbRnZiWPr5p/o4d++/Fvr5/ejvkxzzlZDIn9nfFyV6oYkQZVcOLQuAkKy/CbyeuGznKfrTEHi+OnUmdLfjBKBcUxnRRTNy/abcfvIcWRuVHO+xx6KTnL0KUg39Po5ct+jHp7udibWOcLbguzP+U9XmAysSJXqgOJkzeLM2dZNXpX+ud9CUNkj00vwvJNjM7u/9SkW2/dCdaXWJPbIrKEjO0s9s3Z5mBjUZb4kStwtlIJbbXsm8ubvmdHfknkL1uZsx2Jt1k3jDYINvd1MOe37zulNm2jZc7oSv5RK/0QtLxtsiSL+QbZMtuay6h9E/Ke93+e4nzT1Szu6azzoAnmdn0sJ8HqgdRRuWzATIz2odsNO1uTxOyrSZE64+aUPWa/9nncCZ255suSpdE5CETiev3mNmo5WK9IJdZ2bCzroOXdGFMPXPcBspu81IzW7azV/szYrbLO5t5ckR+al7j9WZWmXJ29uTg2c4m9GY2ebmNnAmlf/HfXNizr/3gl8nv/BmxfX0JftBz222eeqY5UG2IMipcIkCr4v+jdrM28z/wHw0LQBp2lt1rZsne/aKyarGZhb4dMuEzj21in3YGad8IbE36z8ebVbuPS7nZdOJiQm/Ca3d52/V0s8nEzM88/8ohaTXb5O1ONvdPjtX5LeY5GlL3Boh5vMvNIh722Kw/zet+6Dbz2uzHr1LCbt50XCyyzVxfumDbXdTmee3fp/l3NbrPMCfYj5Dl/CYJqEAcU0ZFs7t649+mFTi2mnpylG/4MeV0xzgt//ptScc4U37WPlfS2cJx7phnypnQge1KL+m4qhE8y9i+luC3iI144pfbBvtGJf4YdhtMEGPfohV8PJ97zW4tk4xnUed6HD5nSX83dk9I3se9Af2IMqpHcvzSxdEIRtnGqWtOapC94NmTqoKhDgTHi8ylIf+MYHfdaNjHX/Cm2Z7YR3/SBCe2LVamjwOlRtpwrz95uzJ+E5cWI0WdM65xhiDKAAAowTFlAACUIMoAAChBlAEAUIIoAwCgBFEGAEAJogwAgBJEGQAAJYgyAABKEGUAAJQgygAAKEGUAQBQgigDAKAEUQYAQAmiDACAEkQZAAAliDIAAEoQZQAAlCDKAAAoQZQBAFCCKAMAoARRBgBACaIMAIASRBkAACWIMgAAShBlAACUIMoAAChBlAEAUIIoAwCgBFEGAEAJogwAgBJEGQAAFUT+PwrBHw2qcUliAAAAAElFTkSuQmCC;" parent="1" vertex="1">
          <mxGeometry x="-1004" y="-352" width="440" height="410.97" as="geometry" />
        </mxCell>
        <mxCell id="o2X0s68jg5Q_wTkpl9aG-3" value="" style="shape=image;verticalLabelPosition=bottom;labelBackgroundColor=default;verticalAlign=top;aspect=fixed;imageAspect=0;image=data:image/png,iVBORw0KGgoAAAANSUhEUgAAAewAAAHKCAYAAADB33hLAAAAAXNSR0IArs4c6QAAAARnQU1BAACxjwv8YQUAAAAJcEhZcwAADsMAAA7DAcdvqGQAADb9SURBVHhe7d0NcBTnnefx/0iOkqxR7EOGLQg5AVksJ47JLosXCnx4RUSJ2HUkymGLAqMLjqrMKmUMmzW4bET5EPYa7ARMKgquUkxOgAtsdknYshcVLJRZw5EzR+0ZOzFmbVCFlW6NxdqWHGIFpHue7qdnenp6NDOaGWke8f2Um3m6e156euT59fPSPZGey1f6BQAAFLQicwsAAAoYgQ0AgAUIbAAALEBgAwBgAQIbAAALENgAAFiAwAYAwAIENgAAFiCwAQCwAIENAIAFCGwAACxAYAMAYAECGwAACxDYAABYgMAGAMACBDYAABYgsAEAsACBDQCABQhsAAAsQGADAGABAhsAAAsQ2BhCx6XpjhlyZ3Sqkz0XzKpMXe6W9lNtsmfT96VufjrP0yF7lvlfe4Y0HTOrrNEr7TvqpW7LSekxSwBcOyI9l6/0mzKQZzqwV8khMydSIQ27W6V2gpkN6u2WSz29Ih+ekzfbu6TzzZPyzntvyFvvdEjnR2q537THZN/WBTLazCbSgV0jzWfNrFK18VfSONvMGCeaZsiaNjOTgbDnkmPr5M7BPJmjTGq2/kJWTitxZ3s75OUn62XToS5ndvTMx2TLxgVSXuzMpnS2pUbqf95h5pQpy6W1ZVns8Rd2Sf2ireLbPWmqlo2vrZeZZs4z2P2YjSkN+6Rl8XinPByvL9Wb5dXGWWYGyD1q2ChI+gv3zrlVUrPgLqmp+740Nq6T5j375dDr5xPDWju1VX5yLGS5tbpk36p62dOusvq9vbJmUU00rLVLJ56QlS1nzFwqZ+TVQ76w1s5uk6Yd51WdHYAtCGzkh65d+pqf3clfu9bOSPOi4H1mSP0LgXAZQMkNE2Va1TJZubVFVt1uaqMjxVW1f+pmyLy6p+XE+2aZo0xmNrTIjgcqpOfE07JqzX5pv2pWheg9sl12hHQZnG2plQZCG7AGTeLIjyyag3XTZv27NQlNmqPGTpSbp06VW78+S6Z9farcPKFMRqWd0YNrEvc3s/oF7xfaJK77nF9okPqWbql5skUaZpaa5Vq3vPXc91VgBmrJ5ROl/ML55AE8dpasfGaj1Ez+VN56YZ2sbT4ul/TyW5ZJ85blcuso514xKvRbltTFAntqpcy5cESOOg9ylS/cLM0PzpJRaTWvB7s1wpvEMxZskp+yQnZvXyLjzGymaBLHSERgIz9yHNjJgjO5YLCkpkN33uFcBXZiII+uekyaH10g44q75FDTUmnyNXE7xi6Qja2Pydfat8nKhu1yNhjatyyX1ueWSfnl07Ln8TXSfCLw+FtWSGvLEik3s1r7jjqpe87bhlKp2XpIVpapcKxT4Rh9/lK5+5lXZPXMdI5+7AjszHTJvoa7ZMsbZlarfEoONlXKCGuzgeVoEkd+zF4vr772K2lZGh92Otj0cmfa/5hMM8sdc9bLQf2YjII5v8421yQ02esp5bHIRyfl79via8+XDj0hixbVSf09dyWGdflC2azCeqaqIY+6dbk0b18htwbT4u1tUr+sXuoW1CeE9eiZK1QNOz6s9f3XRMNamfOw1OsdXr5EtmxeGB1wNrp6var9f5Awij58yuwgyAoXDsjL/rCW8bK0jrBG4aGGjfw68YTc+Tf7zYzIuKWtsvuBCqfce+gRmff4EaeszXn8n6Wpyv2aTLdpOrnc1LDTFdokfjVJTTog6Yjvj47LloZVsq/dzIcpLpOZK5ulqWZifMD0qPe/WL1/r+m7uFIaX35KqnxN5nowW+OT56Tmxw/LzM8ndhmkJ3kNO6FZ2jQZZ9Nc7e3ntP4+shqln4kUZzsAOUING/n19ekyxxS1ztdPSqcpn/pfsbAWmS4zvVOYRgoVplWPvyIt351oFoTTI77r7gypzd6dIqxVRFc9+QvZGBLWm+p8YS1qO558LC6stZLJC2Vjiw5rswBAQSOwkQe+i5TMWydHzVLH21tlkQmk+MrPSdm0wF2eySjx5GZJo9f07kz7pGGKWWXENc+rKXHQmFtz89/HmzZWmzuk0HPqaef0qfzolUOP1kvLW91mXuuVo8+skpfjRpWrmv6aqtiBgH9qOm7uM15qtye+z8Rps1SZRwAYWgQ2rJCsLzl+yuLKaXnQvn+VLF2xN2HEd8nUZbJ6sdstkIny2hVSE9dJrVw9IzseqJXGaLN7icxZsswM1iqT0cmvJFMY9OCysAMB3Xyul+9eIYHjrMGLvpaagkdc3uulsz7dozUgxwhsYACDGnSmr0r2+F1St8mcchVVIrd+t0X2/Xi53N3QGh8QaUytDy6Rla2vSNOCYBN7lxxVr1fz+H7p1CdVT1ki9ZUTpWbrHllzu3uPgen+/sT3GD4FxwW0yRpvXbS2DiAfCGzkQbLm1WBzqh6sk3i/7EeJJ143/M47EgdUHVoTf5/cNMX3yqkfxy4hGjV2ljQ894o019+W5vnOSRSXyZzVe+Tl5mUJo8j1KPSmvfpCKKVS1bRHVk4rlZmNZr/G1VR9+53zhgFrENhATpXItIa1cne0KbpEyierA5D3j0vzA0n6kQcx3d2wXd4qq5SqqbHUHl29WTYtDgxAK3RnvTENgZp72yr3vQ7q+uaD4L2eNw3J6HIgMwQ2rBAb/DVQLT33p9YMatDZ52fJ6k3LZMrkhdK0+5+k9YHbzIocG3Wb1DerWnvDLJlStV5+9ugs8QaCd75QFx9AccEXuCTssnNSd3CPbP7BMqm6faKM0hdoedW818AbTbY/nInaOpBXBDbyIiEwnCnY/xlyLfFlu5zTvnoHuDa2FVTotbQ+LHMm5Lu+Wyq3Lt4sLY9Xy+gsmtpLuo5J8w+3Oz+u0vP2Ntnycvi542ffPC1x1x6/el72rFklLw94+hmAXCCwUYA6pDMQAOUTMunXDulDf2aBWRczquYncfcJ6zsf9JXOBqQvNuLbtjSn3Q2ZjyxP24R7pL46dq3zU83PyonLZsbv6EuxU8Z0WD+4VJqP6fO+6wKnl6VpKEeJDyTVKHGgABDYKEBd0uldXcX4bJYV1fazcdeedPTs3x44X3nkGLc4MAo92aAzPTnX7C6RmcuWxe7T0yYt+8IG4Z2W1hdOq/UnZUtdrTS/Yerb+vSyB5+QQx+5swByj8BGXgQD42VVYwk9JbhYhceuQHhc7pCuHrPeUaFq2KY4KF3y5ushFy+5elI2bWmTuJcaEr5ToTKYFjUHftlrAJeObZNNj9ZLzfx62RM4+InSl42947/I3fdslVN6XtWy66pKpfz2BdLQ1CpNd9/k3C3o0t41UrP4+/FXYSu5TRpa1kvVDWbeNgw6gwUIbOSfqq1tfLQtcE6yoX/z+cF1csKfmu3nAiODJ2YX2JeOySEnkUIcXSeN+2P9td5pUE1x7bPTZfX+xCZp/wCssKukDadP24/Ly0dPy6WeLulOUuvtbNcHAL3Sc0OZudBKicx5/JC0PrNCvta5TRoWrJNDYc3i6gDoku/D1BeCad7XIrWTrRqfDliHwEZ+6X7Olevk6ECDyC6pGufK7dJuWlcvvXM6er1xxy2qhm2Kg3Hp1f1uDdIYNbtSpvkGaJ364SrZ8Z5/KNVpOXXCFLVRE2VioV8xLKBsrNcf3yGdSX57pN0JbPX2vjbVDeyr3XL25aelbl6VNOjf2b56RF59NW6IWUCZzGxokX3Ny+XWwdasC+W0LsACBDbyR4f1A7XS/LaZH8jb26Ru2dNyqqdXheVJs9A17vbpg/9d5KunpXX7aTOjjZea+qdkZb2vtqxq+S3L6mWP18R76oAc9Nf4p00dcOCTHhE/7+4aWVT3/cTfqNbMT406098/LLeaxZ7kp0q9Iqvjfn9UmbBMWrz1A/xedMmo2ACy9vawvugOaf+NW/paeYmcaHlEFqmgrv/bvdEDJ+3U6/GfhcSNRO+Sdy4MYqBZIWLQGSxAYCM/VFi/vKYhPqwTTjsqjb/WdfteaWp+Vl49ZuYdpTLz9sGPju7c+7Ts87fFT1sm31HpW754vTTcYpZpKrR37z0pvdIth/bujevXnjM39W8j936karLvnZRT731qliQxtlLmTTVl4+zBI/EtCp73j8jLgab8OfVL0hs1PWFi9H493WGhqscJlKr3NVHKzj4ta36utsFfmS4ZL3NU7XnPo/HnVk+pXR73q1+X9q+SlTv01dUA5BuBjdzrOS0tDy6VTf7aph5c1vpU4KIn42XR37bIUi84Ry+Uxpnd8c3nxbNk5tdNOVPtu6QxbqDWeFnasMAd/FY8UWobV8gUcxChrxK24wfTpffY0/IT/8+LFauAnZ3Lvtkyufs7laZsnN0rL4e0+57dv0veMmXHqIVSUxmrOQ+o7KZo7bvz/bA28enS8NIhOfjaHln93fmxWn9xmUyrfUp2H9gnTYtDLqN6Y7WserQ6eoEW7exztdLw3Om0B+9FL5c6iKnQxgoAQ4nARo71yqnn1sgO73QfTYVjzeafSG35Z80Cnxtuk/rnVGjMnCX1P14uPQfjR+eOWrBAZibUzNOgTzt6dKuc9YX/uKVPSb2/Vl2+RLY8WS3lOqwbZ0nJe9tlZWBw3JQHVsicFL8X3Xs1sVYdfuEYd5r3uP93wLUO2ZFw7fMZUv/zQFN2z15ZFfa72WZq8rdMfL5Uym4ok/Lbq6X262WBGvCn0vX2cTn0wlZpWlUrdz/+gUyrnihzvrtZdh98RTY/WCnjBjhGGTXnYWmsLjNzrrM76mXp42rfFfIFb6L95WoKjgJPNUrcv54R5BgmBDZyrESmrWyONTeX3CZLm1ucH6JISgX63c9slqXF+6U1LsvGS82C6aacAV3DXxk47eiWFbLR329tjJq9Xlobp0vXvlVSu2xbXMDrxzTWJr9gS+9VHYPd8ub/zdfvXQ9eb0+F1O1olpULVPi+v1e2bNnvG7x1XvY8vkqamne5Vza7XCp3N+6RpvpZCUGtr2yWqFRmPur7jI1LhzZI0/4BfkAlGIpZTGQmrkUENnJPNzc/+ZjMnLxQNu5rkfpb02vGPbVHBaYpO+Ysl0Vpddj6mRq+v++8fKFs3rJEypPU1C+psK77oR4VbRZoo6tlY+AxsZHXrvbnalV4VMkm34jy0lEhrQhDzBkEN/8udbBTK6saH5EtP98vL59I96DitGyZHwvG+h1JAlh/xs/tkYboj4+UyK0P7pDNNZlckQ5AJghs5MfYBbKx9WGZmcHpPtNW/kIaq7ym1gqpfyC+rzQ9uoa/UWq8wWw6rJ97WKYN8ESja56Sjf4mXvWYjTvWy8zAY0qmzoo7HSxB8XSpmhnfVDwcxpUHfy87oKRUxk1W27pgmax8plX2NftHm4+XKTebYoIKmTfHF8g6tH+sP7OJMk2FdXNtitcdbtHLoGY5MYIcwyTSc/lKvykDeXZcmuLOt9WXyAz+wlavtO9bI1u6lsvmkCbs9J5Dad8la5o/Kw1NC6U8nTFjPep565+W3gXrZU1t8t+s7nlrr2zeuktOnO2QHq9juLhURt8yS+pWPCw1abYm5FX7dqlbtkt6y8pk3K1TVQBPl6+NK5Pyr0+SslFlMirF/jixaYas2W9mjFHllVL36GNSm8H7O9EUaLrWp07l6Be9gs+tT43L/nfUgcJGYAMAYAGaxAEAsACBDQCABQhsAAAsQGADAGABAhsAAAsQ2AAAWIDABgDAAgQ2AAAWILABALAAgQ0AgAUIbAAALEBgAwBgAQIbAAALENgAAFiAwAYAwAIENgAAFiCwAQCwAIENAIAFCGwAACxAYAMAYAECGwAACxDYAABYgMAGAMACBDYAABYgsAEAsECk5/KVflMeFv39w/ryAAAMKBKJmNLwGpYatg5pbwIAoJAVSmYNWQ07vTfq3occBwAMh1hlOnWteqhr3nkP7PCg1kcqpggAgAXcfE4M6aEK7rwGdmJYB4Oa4AYAFLZgUIcF91CEdl4COxjU8fPxIT1wU3nONw0AgBDJA9cfxonhHf+4fAZ3zgM7WVj7lxcVRaTkuiK5rrjIKQMAUKj6+vrlytU+6b3S55Q9XjgPVWjnNbCDYa1vP//Z66TkM8XOPAAANun9w1W5/OmVhLD2h3S+Ajunp3UlC2tvuv5znyGsAQDW0hmms8yfbZp3q/nLuZSzwA7bWH3rlt2a9XXXcWE1AIDddJbpTNPZFsu58BzMpTwkaGJYFxcVUbMGAIwYOtN0tumMi+Wdlvug9uQksP1HEm4xfv4z1KwBACOMzjZf/Ck6uE1R8WdjLuQ0Sb2N0zfeEYeerruO2jUAYGTR2ebPOvWfQ5fzIW9N4vrWexPFnLoFABhhdLZ5OefPvnzJOrBjRxLurZ5134Az61sPAMDI4mVcMPvUnPtvDjMwZzXsxG0KHnUAADDShGddDnM6KsdN4mYL1Za6G+s/2gAAYGSJy7po4OUn+HI86ExPasN987E3AADACKMzz8ScG3n5q6hmFdgDtc176/K03QAADDsv49LJw2zluEk8SG8kkQ0AGKmGLudyFNjBjXXn9UFFjg4sAAAoOPE5Fwy83AZgTgI7GMqENADgWpPvLMxzkzgAAMiFPAY21WwAwLUi/5lHDRsAAAvkIbDNUQYVbADAtSKaefkLvzzXsEltAMBINzRZNwRN4oQ2AGCkGrqMow8bAAALENgAAFiAwAYAwAIENgAAFiCwAQCwAIENAIAFCGwAACxAYAMAYAECGwAACxDYAABYgMAGAMACBDYw4nTLsSfukbVt3dKx96/knh+9YZYDsBmBDVjlmKydPl2mq2ntUbMoyltXKWsPfSAHtu2Q7qm3yad7dsrh35m7ALAWgQ1koKN1iROWKacZTSo+h8/4hffIfDkv50bVyn0z3pY3TveaNYMXfe/rzDv77U5ZEnzf0WmJ7PytezcAuUFgA/nw5UkyyRSHRem3ZcO+TTJ/fJncu3W/rJxRYlYMlTOypSasFQDAYEV6Ll8Z9I959ve7D/Xf9vf3SV+fuu1Tt065T8aW3eCsB0a6w49Nl9VtqlC9SU4+MdddmAO6drtg6xkzl5mKFftlV914Mzd40W2461k5uX62W8Ou2aKiuUJW7tsl933J3FE6ZOfiBbLlHV2eL8+e3CDq3sCI9H7XR1JUVCRFkSKJ6NuiiER0ORJx1gdvs0ENG8iZDuk455ZKb7zJLVyTxst9Lzyrolo7IP/o1bKjTeg0lwODQWADOXNOzr3rlsZ/MbeBPb5ul5w8eVJNXhCquuuP9Lx/iq3TtWpveS5q15mbLd+8yy0dODScvfnAyEFgA7nS9YF0XHWLkyYEQ1I3EwcHZqU3LWntMM+RjaF//Ul/UmFKxpfuk13OQYS/+RxAughsIFe6u+QDpzBJJv9npzBsvvjH13KTPDAyMegMyJWja2X6Xx9Qhdulse2n8q0yd3Fu6XOtHxL9KrpJfMMcd6nj182yoO55VZceL/e37peGr5rlOZL+oDPXsXXT5aFXVMG7PzACMegMsFDHBTPiTMrkpryEtTZbNpi+6biwli755VYd1krZXLkjx2GduQ45969uaX4VYQ3kAoEN5MgH/2b6em++ZWjPwb7aLYefWCxNJ93ZuX/9PZnqFofNsXWx07q+GXdgAWCwaBIH0hFt7h6M3J+L3Pthl3zQ8ba8dvSX8lLrYTlnLmQ2qfan8vzDt0upO5tTyZvEk4trtk/RhA7YiCZxAOF+d0BWT58us6qqZUHdQ7KpxYR1ySS596n9sitPYZ05fZASbLYHkA1q2IBVzkjzgiXy/L+XStkf3ySTb6uUyppvyrf/bJKUFJu7ABgyQ1nDJrABABgkmsQBAEAcAhsAAAsQ2AAAWIDABgDAAgQ2AAAWILABALAAgQ0AgAUIbAAALEBgAwBgAQIbAAALFNylSS9duiQXL16UTz75JPq8AADkk7506PXXXy9jxoyR0aNHm6WpXbPXEr9w4YJ0d3fLuHHj5Atf+IKzEwAAyDedVR9//LF0dnZKaWmpTJgwwawZ2DV5LXFds9ZhXVFRITfeeCNhDQAYMjpzdPboDNJZpDOp0BRMKupmcF2zJqgBAMNFZ5DOIp1JhaZg0lH3WetmcAAAhpPOIp1JhaZgAlv3f1O7BgAMN51FhTjomYQEAMACBDYAABYgsAEAsACBDQCABQhsAAAsQGADAGABAhsAAAsQ2AAAWIDABgDAAgQ2AAAWILABALAAgQ0AgAUIbAAALEBgAwBgAQIbAAALENgAAFiAwAYAwAIENgAAFiCwAQCwAIENAIAFCGwAACxAYAMAYAECGwAACxDYAABYgMAGAMACBDYAABYgsAEAsACBDQCABQhsAAAsUDCBHYlEpK+vz8wBADA8dBbpTCo0BRPY119/vXz88cdmDgCA4aGzSGdSoSmYwB4zZox0dnZSywYADBudQTqLdCYVmoIJ7NGjR0tpaamcOXNGPvzwQ4IbADBkdObo7NEZpLNIZ1KhifRcvtJvyhnr73cf6r/t7+9Tb1zdqjff55T7ZGzZDc76dFy6dEkuXrwon3zySfR5AQDIJ91nrZvBdc06k7B+v+sjKSoqkqJIkUT0bVFEPZcqmz7w4G02Ci6wAQCwxVAGNqd1AQBgAQIbAAALENgAAFiAwAYAwAIENgAAFiCwAQCwAIENAIAFCGwAACxAYAMAYAECGwAACxDYAABYgMAGAMACBDYAABYgsAEAsACBDQCABQhsAAAsQGADAGABAhsAAAsQ2AAAWIDABgDAAgQ2AAAWILABALAAgQ0AgAUIbAAALEBgAwBgAQIbAAALENgAAFiAwAYAwAIENgAAFiCwAQCwAIENAIAFCGwAACxAYAMAYAECGwAACxDYAABYgMAGAMACBDYAABYgsAEAsACBDQCABQhsAAAsQGADAGABAhsAAAsQ2AAAWIDABgDAAgQ2AAAWILCBfLh6TnYur5Tp06dL5fKdcu6qWQ4Ag0RgA4PQ0brECePp09fKMbNMfrtTljjLpsvap1+SHeM3yPGTR6SxbIe8dNLcZ6Q4uta8f/Vej5pl0i3HnrhH1rZ1S3fbaql87LD0mjUAskdgA9kYP15uMkUpu0m+aIoy4x5Z2rFWZk2vlKaupXLPdHdxLOhTTdWy6VfBuDsma0PvO9C0RHb+1jw870rllopSObBth3T82XSZ1LZTfvG+WQUgawQ2kI1RX1AxZfxRqZSYohRPkvu2HZGTJ0/KkW33yaRiszxtN6ljgeizWaPsrvtkfvF5OXfl23LfXd1y5u1uswZAtghsYBC6u8OCSIesWzp3ocMtBIyv2+WEePjUJqv/1NzxT78l3/ySKYeY/6Owx8em/SsqzD3VAcUfmWKe9F72tQT80VzZsHeTzFcHG3PXvySNc6KHMwCyRGADg/BvHSaQ/2SSmIxWbpIvmpmOf/vALWSg9+hm+em/uOW5i74tZW4xS2VyU26eKKnDj82SWVX3y9rWY3Kue4Be62gf/1A20wMjB4ENZOycnP9XtzT+j6M92EqZTPqyW6PsPv2GhNexk+g+JuufOCBOvX16o6ypsqc5vLS0RHo/fEMObH1I7qn8S1nw/S3yy3doCgdyjcAGMtX1hrz+rluc+lWv6dl1y9Tb3cKv35A3fucWU9KngH3/ITnQpcrFt0vj+m9lXbv+4N/N4UJ0UFyH7FwcHJCW3rSkdaBDjwr5XutxOf7KLmlcWCGlxb3S8aud0rS4UmbVrpUX/8UX3F+6T3Y5Tfa75L4BmvsBhCOwgQx1HfmlvO6U5sodM5xCVMn02eJG9mE5fDyNk5qudsvh/7FctvzanS1beL98c6xbTjRbNpg+6g1zzKJQZ+S14yYoKybLJLeUVyVjK+Rbj+ySI/+8X56tny1lxSK97x6QTfULZdNJTu4CciHSc/lKvylnrL/ffaj/tr+/T/r61G2funXKfTK27AZnPWC/M9Jcs0Se132wVZvk+FNzYyPDHV3yYn21bNJ90ZUb5MjT82OjyIOudsmBxxbL2kO6ah1TVrNJ9j4yV9VWzYJMndwklctfdJrX5z51XDblo3ldn4f91wdUoUJW7gupMX/4huxcv1YO/+mz8nzdUBwyAMPj/a6PpKioSIoiRRLRt0URiehyJOKsD95mgxo2kIHutp+5YS1lcu+iYFhrZfKNu02z+JFm2WFqzgk+PCabaqtNWJfI1BU/lWdr3WDr2rdaqh/YKecGUzH98LCsfcwNaym7V+6rHKa+8Bunyn0/2k9YAzlEYAPp6j4mG3902C1XrpK/8k7BCihbcL/c61SrO+T5p3YGBp/1SsehJrmn+iF58byaLS6T+U/8gwq222X2w7vkpUdmO/3Xvf+yRe75dpMc/tB5UBr0826Se+5abfrCVc33udUydbC1dAAFh8AG0hE3MGyubFg3QFN38e3yvRXe4LMt8nDrOafYe/6wqlX/pSx45JfutcXHzpfGvf8gG6q9IWYlMmnhs7L36W85fcDy/i9lde1D8ksd7Al6pburQ84cPyA7n/gruadylnreF91aeclUub9lm9w30b1nweC0LiArBDaQhnN71pqBYapG/HSjzE9xPZCyBatl5Vfd8pndL8nx1zbJf124Wl58VyWqqlXPXvG8HPmHDfKtLyU2WZdWNsren9zrXh2t65g0bXgxUEvXI75nSWX1AlmyQm3XvtflnG4DLy6VioWN8lLb89JwW4oNBGAdBp0BaemW159eLTv/ZLU8W5Nmv2y3CtuHj6mAXy23l3bLgUcWyI4bV8q65d+SihvNfQbQfbpZ1m7/oqxUNe7gpU3P/ESF9d5PZfzYyTJ1xmy5Y85smT11kpQOVZd1qkFnwDViKAedEdgAAAwSo8QBAEAcAhsAAAsQ2AAAWIDABgDAAgQ2AAAWILABALAAgQ0AgAUIbAAALEBgAwBgAQIbAAALFNylSS9duiQXL16UTz75JPq8AADkk7506PXXXy9jxoyR0aNHm6WpXbPXEr9w4YJ0d3fLuHHj5Atf+IKzEwAAyDedVR9//LF0dnZKaWmpTJgwwawZ2DV5LXFds9ZhXVFRITfeeCNhDQAYMjpzdPboDNJZpDOp0BRMKupmcF2zJqgBAMNFZ5DOIp1JhaZg0lH3WetmcAAAhpPOIp1JhaZgAlv3f1O7BgAMN51FhTjomYQEAMACBDYAABYgsAEAsACBDQCABQhsAAAsQGADAGABAhsAAAsQ2AAAWIDABgDAAgQ2AAAWILABALAAgQ0AgAUIbAAALEBgAwBgAQIbAAALENgAAFiAwAYAwAIENgAAFiCwAQCwAIENAIAFCGwAACxAYAMAYAECGwAACxDYAABYgMAGAMACBDYAABYgsAEAsACBDQCABQhsAAAsUDCBHYlEpK+vz8wBADA8dBbpTCo0BRPY119/vXz88cdmDgCA4aGzSGdSoSmYwB4zZox0dnZSywYADBudQTqLdCYVmoIJ7NGjR0tpaamcOXNGPvzwQ4IbADBkdObo7NEZpLNIZ1KhifRcvtJvyhnr73cf6r/t7+9Tb1zdqjff55T7ZGzZDc76dFy6dEkuXrwon3zySfR5AQDIJ91nrZvBdc06k7B+v+sjKSoqkqJIkUT0bVFEPZcqmz7w4G02Ci6wAQCwxVAGNqd1AQBgAQIbAAALENgAAFiAwAYAwAIENgAAFiCwAQCwAIENAIAFCGwAACxAYAMAYAECGwAACxDYAABYgMAGAMACBDYAABYgsAEAsACBDQCABQhsAAAsQGADAGABAhsAAAsQ2AAAWIDABgDAAgQ2AAAWILABALAAgQ0AgAUIbAAALEBgAwBgAQIbAAALENgAAFiAwAYAwAIENgAAFiCwAQCwAIENAIAFCGwAACwQ6bl8pd+UM9bf7z7Uf9vf3yd9feq2T9065T4ZW3aDsz7XXnhD5Ln/LfKrCyKfXjELAQBQPnudyIwJIg/8hcjiqWZhjr3f9ZEUFRVJUaRIIvq2KCIRXY5EnPXB22xYG9h/848iPzxmZgAAGMAPZos8800zk0NDGdhWNonrmjVhDQBIl84MnR02szKwdTM4AACZsD07rAxs3WcNAEAmbM8OKwObAWYAgEzZnh2c1gUAgAUIbAAALEBgAwBgAQIbAAALENgAAFiAwAYAwAIENgAAFiCwAQCwAIENAIAFCGwAACxAYAMj2A/uF+nfoKaHzAIA1rLy97Aja00BGEF0uD4z2cwk8eF7Iv/peTMzS+Q/7hL5O/X/Q71ZFPRrFdbj1GM69fOeEvnq36d+nbjXAEYYfQCbS0P5e9gENlDg/kn9vc9Vt39zWGStCmhRgaq/c3To6nDd8LbID4/re8bzgvln6vG/MeXDr4h8I+S+Hi/gCWyMVAQ2gQ1kzQnYUvX3/axZoETDWn3J/FAvMLXqG1VRB7FXs054rLlfp6lVay0PiXxP3UZ+q/5fneYuC0MNGyMZgU1gA1n7gQrZ76mQ/YoqH1ZBO02F6o0X1d+7L8AdXmibdU4Qj3Ef84oKZx3suqb8lbDHpkANGyMdgU1gAznjBfBvfLXjME7t+3OqEAhmryZ9WNW4nfWe3/tq6kkQ2BjpCGwCG8jed9T/Q7qp2gtWbz4Jp0k8SRN5lFkfHZjmu38qqQ4YABsR2AQ2kJWEvupMmXBP6H8OBnaIaN92hs3ngI0IbAIbKChOH7Yp++la889U9do/QC0ssPXjjw8Q8oCtCGwCG8iZZGGbzICjupPUsPVreOdlRwetmVO+vNr+4V+reZrEMcLYHNhc6QwoQLomrA9MU02/MfcP0oH86++YGUOf+uVd8eyr6vm/8lW1zJ11TLslvmmesAYKC4ENjECdvzcFn6+Uqtp4t5lRYRxRoRztL7/oXg1trloftxxAwSCwgQL0lWlu012qKVnT+TkVvOMCQ8EnqcDu/NDMaHqgmqlxaz97T/0zRqTFnQVQYAhsoMB81dfcnaxpXK/Tfde6nKz/+kYV0H7jPqcC+/+pgu7X1oGvDgoOv+6u036onudnqqb9PbWO0AYKD4ENFKjjKjyD/cwOVTPWNetTb7uzYX6jm75VYPsfqw8E9KCyX9+lHvuKG/bB64rXP6tC/PeENlCICGygQNX/Vv2jasV3qRqx3z+pENd9zgP9iIeuLfv7onUA6yb0/7g/FtzJfEPdzwltX3M5gOHHaV1AIcjgCmRJmSukifllLk+y0778p49xVTNcK/SBay5xHnYKBDYAYDBsDmyaxAEAsACBDQCABQhsAAAsQGADAGABAhsAAAsQ2AAAWIDABgDAAgQ2AAAWILABALAAgQ0AgAUIbAAALEBgAwBgAQIbAAALWBnYn73OFAAASJPt2WFlYM+YYAoAAKTJ9uywMrAf+AtTAAAgTbZnh5WBvXiqyA9mmxkAAFLQmaGzw2bWDjp75psiu+4VmTORPm0AQCKdDTojdFbozLBdpOfylX5Tzlh/v/tQ/21/f5/09anbPnXrlPtkbNkNznoAAEaS97s+kqKiIimKFElE3xZFJKLLkYizPnibDWtr2AAAXEsIbAAALEBgAwBgAQIbAAALENgAAFiAwAYAwAJDENjZD2UHAKAwDV3G5TmwCWsAwEg3NFmXh8A2G05WAwCuFdHMy1/40YcNAIAF8hjYVLEBANeK/GceNWwAACyQk8AOXtM8OH/1ap8pAQAwMgSzLVUWZitHNezgVrnzemP11PuHK848AAAjhc42L+dc0YIRnM9OnpvE9cZG5PLve91ZAABGCDfb3JwbClkF9kC/7xn9DVA1Xbl6VX53mdAGAIwMOtN0tnkpmE4eZiunNWy9TXrDYm8g+o909/xOPu39g7McAABb6SzTmaazTWecE3PunJuBZj7Xctwk7m21t8HurfsGIvIfH/XIJ5c/de4CAIBtdIbpLPNyTWecl3VmRhfMbW5Fei5f6TflQenv9x7er8ruvH/q6+tLuP3MdcXy+c+VyGdLPiPXqTIAAIXqypWrTq1a91n/QZWLioqcsA7exk/6kW5w6/lcyDqwNR3EsVsvuPtUOCcGd3C5+kc/Qj9M/+c83hS8GwAA8ioaqSZovbx1Sr4gLirSt4lBHVtuHu8Wore5kIfAdm8TJhXYfXHLvAB3HhAX1m45KHwpAACDkximJm+df9wbHb76xgtkN4yL9G1ozdp9zuBtLuQ0sDW37AZxLJzV5DWJm3n1j7vc9xjzn0/8HAAA+RELVqdk/nFCWJd08Oqympyw1lNCYMce4/GXs5WTwNbc0HVKOovdMDZB7J8PTt56fWv+CxG+FACA7CQGqsld5x9/CIdPwfXuvPOvO5MzeQjsWDkYyt68f5n+x9zbnQ+VdAUAAFkID9VoEJuZ6LxT9qb4Zc6cudX85VzIWWBrbhC7vHIsoM0yPe+V40I6WWCHLgQAIEcSg9ULY3/ZCWazwB/Q/rLHX86VnAa25oWzFhfU0VsvmGMB7X9MjFoWthgAgFxzk9gp+sXC2PnXd+stj7/V8hHWWl4DWwuGthYtq9vAvfUiAACGjRfKHnfWnQ8L5mBAWxPYWrLQdsWHcvC+8XK+aQAAhEgesvEh7fzrlLWhCmstL4HtSQzjYA2aGjUAoLAlhrTzr1P25DOoPXkNbC28Bk1QAwDsEhbU2lCEtZb3wPYM3PTtce9DmAMAhkMse1OH8FAFtWfIAtsvvfAGAKCwDHVI++X45zXTo9+wNwEAUMgKJbOGpYYNAAAyMyw1bAAAkBkCGwAACxDYAABYgMAGAMACBDYAABYgsAEAsACBDQCABQhsAAAsQGDDQsel6Y4Z0nTMzAKWattTLH9+JCLyVrGMai6S82Y5EIbALlAnmmbInSqU4qZlu6Tzwi6pDy73Jr3ePD5boa8fndbJCXM/0duT9HXdYI3dv0P2LAs+l5ninsO930gMZL1f61/oMHP2yGa7O1+oM59zney5YBamzf1byGafZff6OXKxSP58Q7Hc/5aZN6rn9oscK5K2W/vkSYnI+sD69BTJ/eq5neDHiMalSQuU/oJcI5vl1cZZzrz+0ll0sFp2b18i7Wpdy5f3Scvi8WqNDsVVIht/JY2znbvG6DBd1CbzdrdK7QSzbND0F2eNHJy3T+rfrXG3bdk59fxbpbxBLVPbMs7c0+O9h42ySta8t8LZ9uB9HMfWyZ0tFfHr9bI1bVKl3ld9u3rvzWfMioFUSIPvvTr7LOxxUwbYljzT+yT22aUQtl/i6M9+m9yck893IO5n/059yN9YRtznaT5rZqtjf9/Jxf7uQveZ3keH56fxPNpgXj83dE36v6nX/bu1V6XaLPPodY+O7ZP/M7ZIRr3ZLz21fWZNOiKyVdXMH5V+ebOhTyaapdHlZZk+HwoZgV2gchLYgS985znb3FVhpqjg9b4U9X0Pzo09Z/z2eF98/oDUyx4RaTLzTuCqzXptvcz0fek6YR+2DWEhGrf95jUnB75knddxgz2dMPHvx4wC27xOkH+fRTkHSlvFy4VM+N9H8G8gUarAdv82Dpm5AcXt/wweF6fafN6eFNvn7dMBg9P93JMdLOgWpxa1r9vDPodsXl83Ue8z5TQ9+cBVWTHGzPjp2vVzEUl1yHlvzVV5/lYzk6aBDgQ0b71MIbhHAgK7QIWGq/lSTTewnXB6d/kAX4bJdKgvwvPqi3CV80XohGxCDdkfoBOjgZzyICJMXDAPxLymuNsiTg1a4mrVqaQOwYBo+LphVB7Yp97nlOqAQd8v7Zq1Y+CgcqUIpFSiByHxLRMJnH1wRurjwjgdg90+9+9nwAMG/wGG8z68g0O/LPaPCexkQRjHBPJ/Dw3sZDVgH/NaSQM/lHneS+k8LnbfwRwUoHDQh13I9JH/a79ypt0NFWZhmAq5udwUozrk6MEzMuXLoV8RKYyXcRNmSeNrm6W8WTd/V0vV2a2yyN/nfIeuYavlssop62DxwuhEkwrrhhXSvsZ3/0z61/UXcOj9x0vtdrU/6s8427KoeaL6ks7ky7hD2t9T3/WBfaIPbO5sOm7mfPR26CZ/FcavmjBofzd+n85sVOt2u+81eZ+7+7qZOS/vnI19rs42Rve9N+lQOyPNi7z59Pto9QGEc5Dk/H2l2IftZ+TslApJ+BNL5cI5aVcRVZ5pWIr+23P/7l9Vf4NVzgGFN6+nfdIgW6XR69eevV42VrdJS7Cfe9Cvnztte9yg/LtkYa2cf9+9rUg7rHWftXledUCROuT7ZUXDVempEXlxX7FsvWgWwzoEtu2cL6XkysvTrdHFcwPCrSW/2rje9wXqn9RyHVgbq+WQL7B0iDUuXiIt+ot1ilv7fNXUiBNDR026lmcOCJzBRbOXO1/IiwKh7YSMub9+Tv0lvcY8R1oD1C4ckYMqBOfNSWOf6FqleZ1YDTdJ8E5Q79XZB77BeNkKhM24xa0h+z8YZukfvDgHGilbNFwnDrfJlHmVad03wWCC3i80dMfLnHkVcvbd2JjqmXOr5WzztsT9n+3rZ+H8Ebc5WteAk9fSI7L/N+pmSn/qmryin3PUhoi8qMpp1f79blWhnSzgdSuBqoUzSr2wEdiFrE3XXt1Aig6eUrU+J99UzddZ5zTXerUsf2DE19AyoYPRafZVIZBWk7aq4ehaz80tahvCaqpGMHRUxjl9wP5lbi1d16TdWlTLMd007O6DNW26Wdq9n94uJ3RUWT+PPmDQ90kYTaxryWYfxu+rWMjrWnPQie3qvtWbA+9f79MkB0Gz56vwPC/toTVc93HRzyxkKtiR47qPWO33+sUS/RzS3nZdM588KRr04a0EKQ620q3dO/u/TQ76nysXrz9Iuu/4a+p5UzZXX4zI/9RN1V9L0b+sm803mOdM5//JjERk60up+9gx/AjsQuZrEncmXSNywjG2LD70Mu1jDOcEoe6j9YfdgJNuijXN1fpxunbqLNfN5l6Y6vu44ev/gozVkoLr3OdrnG2ed/cKUZX1pLx9EOsjNkHv9G3qfePW9mP7yhxgqO10unHbDvgOdo7LwTZVc10W6Od2anvJDoImys1Tzsg7Yc0d5nHxzbre5G5XgsE2Q8dJ3N+Zcg5cVBCuUZ+lHqMQtv3zDqoDkZAujM728zLly7Ggdwb7BR9vuhOSHeilX7ufJfP0gdvh2PPk4vUHwxno1dUvb6bRXN12WAXl6H5ZF9qvrPue3aD2+ridGvJYszpHzh9J3WyPwkBg28AJwJD+Saf2Y8rpcAI4w2ZbPbgn+CUXN+lm2QDdROys8zWJO821Onw3i6zxvZe2bbLnmH5/biDE12j1oCH/+441gfsnJ3ADOl94xB2c5h3EJDSHmwMBbxsbKqRFPZdTWwxthlXPebRNhWi1zAltdnZr0WEGflz+ePugftA1MnPgYg40wgfMuZ9p1dk2ORr39+mOoTjbvModmKj/HsKa4PXfij4Y038HCa0T7uun1YWhRA80Hbl4/cGprlXBmk74qVqzbjK/987gfd3zqkfpfmo9WE2FdNKm7GypbdC1dj0YLaPmdQwLAtsG6kulvvqMNG/31wJU7alxqwrUgQaj+an7q3Sv2pibWvjAdNDGHxjoZna3pqcHFC2Xdxp3qVBUm189UQ6u0SOQEwOh84Vtcigu6GJN4v5JtzLEOy4tzWekqj72Be02cS9P7ON1grxa5jl97slCSTOD+JLV9pLWvt1tGVQf8Nkzzj6KirZceNNAI6nd7fXvg8zpzyqdfvGw1gX3AMY5WEs1In9CpcwLaZ1I/PxjgoP/EmX/+vmlQlmfNjalP2TUdp88b0I6reAfJKc/XG0DI8ftQWBbYuYyXQtYFW3ejNae5rnzqekvsEH0aSeMDg9OYaGhv8D9/bl6sJYKRVXTiw5mU0HibMqXl0tTw3lZk9CkGggc3UScbg3bCU/39RxOv78K+5AvbjfI58cfxEyYpLYt0B99bJszKl5fICZMsgMCPWL+kNqWZI/zJPSLl1cEugDUQVB0xLo36dYNt08+m2bvrJl9E93fDnekd1pjIEL/NhMPumLSqXln+/p55Fz1LCIvjla152E5N9ptavf62AlrexDYhc6rVS1qk/LqCrePTgWQc0rTdhN6hg7D2ACgYK3HnY+vpadg+sudGmywP900Jbt9wmG1MP9r62ZTVbPX2236Ef1fpHow2sbJ+sDAVysPhIDuy0zcBndKrGFrJnD1/nNGe4e0LDhBHtJX7fSH+vbVQM+h6NaD0AMC7/l3D9SqkSQsggcNxw6o2mZY87Z+ft3NoP5G4g563JHU/tH7ueeNE8iu5cY5qAnUpJ1lvkF/sRaagWvegxH2+vmi+7dH6Yuo6AuZDEOfsTvKPNbUnpdmduQNF04pUG4I6JL+Qo4Fog5l9/xj9wtSzzfKU05Trr+s6ecIXqwj9ryJdPiGNgnrwApeOEOFUeqLnegvdHfgmRZ/ilTi9jnb5lzUJLMLsYS9T3c/ueNeg6/rcN6TW2MNe85U267F9qV7URV/YLmvn/qiLsHPM8Z9/eiFU8K2V38GvguGhO0Hb9+lc9WypJ+/8zrhfzRJH5OSb//GXWVNSfh7i13Ix30f8f9PDM4Ar6+Zi5lkIumI8MCVzjI+HSvIbFu6z6NDWtemPVm/PoYNgV2AnC/xsMtnhoVk4Ms0LljSCtUQJhxMVmXA/SKdczQWlmFfhrGgGyhMY1/Yzv4Y4Ipt4UE1kIEPAAaW4oteSfr5OeIPBAYKH2c/+a/KlvC55CK4hkCywNctJqn6l3Nh2F4/T1cYSyuw9cA193xtjZAeGQhsAAAsQB82AAAWILABALAAgQ0AgAUIbAAALEBgAwBgAQIbAAALENgAAFiAwAYAwAIENgAAFiCwAQCwAIENAIAFCGwAACxAYAMAYAECGwAACxDYAABYgMAGAMACBDYAABYgsAEAsACBDQCABQhsAAAKnsj/B6FpOFbQW8+yAAAAAElFTkSuQmCC;" parent="1" vertex="1">
          <mxGeometry x="-1004" y="143" width="438.29" height="408" as="geometry" />
        </mxCell>
        <mxCell id="o2X0s68jg5Q_wTkpl9aG-10" value="" style="edgeStyle=none;curved=1;rounded=0;orthogonalLoop=1;jettySize=auto;html=1;fontSize=12;startSize=8;endSize=8;" parent="1" source="o2X0s68jg5Q_wTkpl9aG-4" target="o2X0s68jg5Q_wTkpl9aG-5" edge="1">
          <mxGeometry relative="1" as="geometry" />
        </mxCell>
        <mxCell id="o2X0s68jg5Q_wTkpl9aG-4" value="" style="shape=image;verticalLabelPosition=bottom;labelBackgroundColor=default;verticalAlign=top;aspect=fixed;imageAspect=0;image=data:image/png,iVBORw0KGgoAAAANSUhEUgAAAz4AAANMCAYAAACdIXgSAAAAAXNSR0IArs4c6QAAAARnQU1BAACxjwv8YQUAAAAJcEhZcwAADsMAAA7DAcdvqGQAAJRDSURBVHhe7d0LYBTVof/x3ybeWFtSLWmxIL2gFGIrYuujIrRwUTRUW1oqioJiQa5YVBQfaKnxFauCL0SlYilUFBSLl5aqJYpwoYJY1F4VrUCV5F8MV9rQ0qTF5pLkf87M2WTf2U02r8n30447M7s7M7tkZ85vzpkzoer9B+oFAAAAAAGW4x4BAAAAILAIPgAAAAACj+ADAAAAIPAIPgAAAAACj+ADAAAAIPAIPgAAAAACj+ADAAAAIPAIPgAAAAACj+ADAAAAIPAIPgAAAAACj+ADAAAAIPAIPgAAAAACj+ADAAAAIPAIPgAAAAACj+ADAAAAIPAIPgAAAAACj+ADAAAAIPAIPgAAAAACj+ADAAAAIPAIPgAAAAACL1S9/0C9GwcAdDQbb9Lw60vdhG/k7FdVPNRNAACAtBB8AKAja+Xgs7nkZEUvPk/den5W+W6qe/8T1fcwqVvvEzWwZ756Hl2onocVqNsh7gWd2iaVfH2G1ripluo/bbkWju/rpgAAHQ3BBwA6sjYPPmnKzVf3HgXqe8wgHXPcEB1/3CAN6NnZAlF2g49UoMEz52v2aMIPAHREXOMDAMhcbZX27i7TG2tW6fF7b9CMiWfqrImPaId7umuq1Oblq/VOjZsEAHQo1PgAQEfWUWt8Eug2dqGeu+pYN5WebK4/rOf3l+ipKYVuKpWmanyim/35qlS5u0oJs83RkzR/7qU6ppubBgB0KAQfAOjI2qFzg5rqSlV7Jft/qXL7Nu3eL1W+v0k79v5Lu7e+rd2Vf9HuffFF/2G3/FYlI/PcVHpaI/io5yQt/MWl6u8ms6a2UmtKLlTJmko3o1H3wT/S3Nmj1SfXzQAAdDgEHwDoyBIEn7T1n66nFk9QTzeZXTWq3msC0Pa39caWdVq/ukrDFz6scRmurFWCj/I1Zv4aXTXITWbDvk2aO22GVpa76QZ5Oub78zVnyrGiogcAOjau8QEANEOeunXvpf6DizTuirs0/7nMQ49V0KOXG8umKr344mtuvKVqtHvdjzVxdILQ032Ipi14XvMJPQDQKVDjAwAdWVvX+NRUaW9lhba/V6byra+p3IxvfafCFP8TXNvSrUA9exyp40eN1ZhRQ9W/e2bN3DJmtq38jVVavnyFXtxitylGt746/qxzdOFZIzSgd4G6tXRz9r2t5Xdcr/kbEzRtG3qd5paMVZ9W/sgAgOwh+ABAR9Zawae2RtX7TMB5c5t2mICz1Q7lFdpb7Z5vhu5Dp+v24gmtc3H/nlWacd6P9UaCXgW6HT1W066drNOPLlBWckhtld5ZfpNuXLBJe2vdvLC8vhp3x0JNGxzd5QEAoOMj+ABAR9YqnRtU6rnpZ2rOG24ym7oP0cwH79dZfdx0Fu1ddZnGzAk3YctTn6JLNW3SORrcO3vVLtVvLVXJLfO0eY+b0cCsb8xtmn3FCPWklgcAOiWCDwB0ZK3Uq1vrdCrgdB+r+Suv0zFZ7+GsSmuKx+ipw6br+imj1f9QN7uFaqrLtPXFVXp8+S/0xq4EVUr2xqRTr9RZvau0fcs27bWz/hluAuj8M3FPdyq6X+uLh7gJAEB7IvgAQEfWSsFnx4IxmvJ4hZuKkJuv7j36auBJgzTwuGPV89Be6j/gszrY68wgv7EpmW0qV/6anlv6gBaWlsVdb3PMNc9r/pgCN9Wx2O66K3dt0+aXV+nF51/TO3uq3DOtgOADAB0GwQcAOrJWCj67l03UlBVV6nP0iTr+pCEa+KVCDej9WXVvRo8Ae5+7QRfeuU5Rlwcd/yOtnDda3d1kh9GSa6aag+ADAB0G3VkDQBfUc/wSPfdfKzX/jh9pypgRGnx0r2aFHqv7WdM1MfZuoW+8pu1utEnlq3T9xBla/k4r1ryE9T5SrXD5EQCgE6DGBwA6slaq8cm2+GuGijT75ds02E0lVb5UUybO0w6v97Q2uBno3lWaMfrHStavQ7cevZT/uUIdf/A2PfdGTFNAe9+eW67T6QOaVzMGAGhfBB8AaG/7y/TG6tVaubpUO3ZFXyTfzRSwq6ujr6AJTPCp3qSS8TO0xustIKxAw255XCUjW+v6ILPOU2/SO70LdczAYzXwpEL16TNIfXvkN4aZ2rc1d8wUrYzcru7m8ywzn4c7lQJAp0XwAYD2UlOhDQ/OUMnK+M4BUul50iRdOPWc7N23psUqtHzKGM1/z01auaM1e/2PUgSfKq2ZNVIlG9yk03/aci0c39dNtY+adTfo9OJ1bsrqpQsXrtSUo90kAKBT4hofAGgP1Zs057wxKs4w9Fi7tyzWnCln6qzzbtDCzRFdKreXPZu0PjL0WMcdqwFuNKEdS7UwJvR0L7pfc9s59JjYow0vRoYeY9ilmkjoAYBOj+ADAG2ttkzLr5qh5+JukpmZml3r9Pi1Y3T692Zo+Vtt0DFAQjXa/PNFesdNhfUffGLKHt12rC3VbjfuyR2hy2YMab1re9JWod273KjTf+CxHaRmDQDQEgQfAGhjNRseiW4WZuX11chp92vJqjV68eVXtd4O63+r5+ZParoXsj2bNH/aSI25fqne2efmtZHqDbdr9qpKNxV2rM4a2cuNJ1Kp7e/EdBwwokgjO8T1MxUq+8CNAgACheADAG3sjS0xTanshfOrlqt4/BD1ibxJaG7MTUObsHfjPE0bfaZKnmuL5m9VemfZDF04q1RRfRMY3cdeqTE93ERC/1J1bAVV7sFupL311YCYrrl3705wo1cAQKdD8AGAtvYv9xh20qiMegsbWbJSs78/RN1z3YxItZVac+cYjbt2hcpbKf1U71iluRPP1LT5m+JCj0k9uv2KY91EMp9VQU83GrbmET3+QbtfrWT0Up+j3KhTvWpxi5slAgDaH8EHANrbO2+5+9gksKci+loYFWpA/14aPOV+rVy1UNOGJu72ee/muzVx7AytzFKYqNlXps3LfqwZ531DZ036ceLldi9SyePX6ZhEgSxKno4fOsSNO7XbtHDiaTpvxk1auHKdNr9Xob17KxXTk3e02hpVm9fY15W/sU4b1q3Qwjk/VsmMcTrvrG+oeE3zPvvxpxZFX2tU+5rmTGnP66gAANlAd9YA0MZ2L5uo8+Zvc1O+vKPGatpV5+j0L/VVt0PsHFOo/2Cj5hffoOfKvZc4Jlysv03DIsJF9VuPaOZVi/VOonL+oOv01Pyxiq1gScwGiSrz3yqVvblT5e9v0lYTyt74Q5n2VruXJJF31ATNnj9dx6dbc2U7eJg6Lv5apyzqeeESPTW10E1lolLPTT9TcxLc5bRbnxM1/KzRGjn4RPUtyFf3Q+n2AAA6C4IPALS1Pas045wf641ktTypHP8jrZw3Or7HtOq3tfyW6zV/c0RHA7mFmrZkicY12TuC9M7ckZq2ohk1GrkFGjx1torHHatuTdb0xKh+TfOnzdDy1mriNuw2vXhHUfN6ZLPdjU9sbs97ady8FQDQ5mjqBgBtrcdolZgCearunhMr0FnjRyV+X7djNe6e5Zr//caul4cVP5xW6LH6DzzRjaUpr5eOH3eXnnrxec0e34zQY3U7UdMWv6QlJRN0fO9WqDnZsVNRlWWZ6DZEM59aqZkjEzclBAB0PtT4AEA7qX5rqUpumafNadUq5OmYKx7X/HFN3+CzevPdKt4wVCUzM7gvTvliTZzwSOqg0K1Axxw/WmdNPEen9y9QXnPCTgo11RUq3/q23tjymsp379QbO2ztVZUqd9vmd4nkqVvPzyrfjnYv1PH98tWt94ka2LNAfY47UgVme7tlIU/V7NqklYsf0ZI121SdTi1dz0la+ItLFdM5HACgnRF8AKBd1Wjvexv14oulWr9hm8orKyIu6LcF+14acNJojRt/jga3Rq1Ig02aM3yGnqsNh4kC9T/pSPW0QeLoQg0c0Evds5EiOrNa82+14zW98YYZtr7lBbN/VVXEX//Uf7qeWjwhzeuqAABtheADAAAAIPC4xgcAAABA4BF8AAAAAAQewQcAAABA4BF8AAAAAAQewQcAAABA4BF8AAAAAAQewQcAAABA4BF8AAAAAAQewQcAAABA4BF8AAAAAAQewQcAAABA4BF8AAAAAAQewQcAAABA4BF8AAAAAAQewQcAAABA4BF8AAAAAAQewQcAAABA4BF8AAAAAAQewQcAAABA4BF8AAAAAAQewQcAAABA4BF8AAAAAAQewQcAAABA4BF8AAAAAAQewQcAAABA4IWq9x+od+MAItTX89MAAHRcoVDIjQFIBzU+QAQbdsIDAAAdGccsIDPU+KDLS++A4b+GYwsAoD00Vu40XctDTRCQGMEHXVbiwGPPnLlRAAA6AT/nxIcdAhAQjeCDLik+9MQGHgIQAKBjiw08iQIQ4QdoRPBBlxIbeKKno8NO6iZw/GwAAG0heXCJDDXxISj6fQQgwPwOCD7oKpKFnsj5OTkh5R2Uo4Nyc7xxAAA6qrq6eh2orVPNgTpvPCwccgg/QDSCD7qMyIATG3rs4yEHH6S8f8v1pgEA6Exq/q9W+/91IC70RIYdgg+6OrqzRpeQLPSEh0994t8IPQCATssew+yxLPLYZoUfrchxoCsi+CDwEu307aM/7tf0HHQQPwUAQOdmj2X2mGaPbY3HucTHQaArorSHLiQ+9OTm5FDTAwAIDHtMs8c2e4xrPN5ZBB6A4INAizyz5Y9GT/8bNT0AgICxx7aIw59hA5AbNSKPjUBXQqkPXUJ4J28fwmfA7HDQQdT2AACCxR7bIo915v8eOw50ZQQfdCHhHX7jwSCXLqsBAAFjj23h41zksQ/o6gg+CKzGM1v+o530DwTeZMTzAAAES/gYF3vsM1P+fzkGogsi+CDw4vftsWfBAAAImsTHOvIOujKCD7oIt6c3e3x/px959gsAgGCJOtY1HPA48KFrI/igS7D7fK+qP2K68UAAAEDA2GOeO8z5hzxO+AEEHwRSqrbL4efY/wMAgip8jEvneAh0FQQfdFF2Z88OHwAQVBzngFgEHwRc7E7fn7YnuTjRBQAIqujjXOwBjwMguiaCDwItNtwQdgAAXQ3HQsBH8AEAAAAQeAQfdEGc6gIAdBUc84Awgg8AAACAwCP4oAtxZ704+QUA6Coajnkc/ACCD7ooDgAAgKDjWAdEIvigC+OAAAAIKo5xQCyCDwAAAIDAI/gAAAAACDyCDwAAAIDAI/gAAAAACDyCDwAAAIDAI/gAAAAACDyCDwAAAIDAI/gAAAAACDyCDwAAAIDAI/gAAAAACDyCDwAAAIDAI/gAAJBNG27UiSee2DiMf0IV7ikAQPsh+ABAp1KhJ8ZToM6ahpByoza6WS1RsWSCTrx6tZtyts/VaP6tAKDdEXwAoE1s1I2RtQCphilPt0IhuXH9E5Y0Z+kt3f6Wrj99FSt+oNF3b3FT0bxgYrejVYLIRs2ft80fPfMBvfbaa3pt5VUqtNMm/FzXyp8bAJAawQcAOppeR6iXG+2UWnn7q96erx+MsCFqiEZf9yvtrLVzK/T0ZaNVsqFGvQYdKy3/iZ7e47287Wz4jfy6nkJd9Z9DvTF94QJNO9Mf3bZ6LbU+ANCOCD4A0CaG6nZbA5BseORc5Xuvy9e5o12huSm1f1dVjRtvda2w/c1RtVGzr12kLVV2okYV60p0zqQnTPjppeNM3vnVkl+qcsA4XTDkL9r2nveiNlNRttONHakjv+BGjSO/6NX5SNvfU/gVAIC2R/ABgHZXoSfue1peMf0L5+g7J3ozm/b+Ik34xgidc9lc/erdStV4NR/toZnbn7Eqrb7tSq2uNKNfmKxFy69SYa4Zf3euJkx9QnmjL9DQym16728FOnfeKhUP86NYq/jTE5rgNd2boCf+5M/a+UfXzG3A0Sb6JLJTO91rAQBtj+ADAO1s55LrNHe7HTMF9pun+deEpCMvX/kmDOx89QmVTCzSkJETdOOSjapoaS2QKdT/4NL5eivNCpNmb38ySdZfuXKmblxnx3pp8o+naVC/C/TI3aPMWqWa/zHh56YaXbWiWEMPs68BACAawQcA2lHVhht1qbsgvmDc3Zr5FW80PSNv17rfrtMv5k3WqV/IMwvbptXzrtTobxTpB/etbV4Aqt2pJ340V1teW6TJ4+ZoSxPLaNH2J5Js/Xt+pRvv8jssKBh3u6Z92RtV/rDb9cjVg2Q+vRd+Lp0RvuYnsYZamYP8h6S2L9KVd29UVbJlfeECLfWa+S3VBRHN2gAAHRfBBwDaSc37i3TpdatlW25JJ+niyYO8sYzk5evIIdM0Z+UmrVtWrHP7mQhQW6kty2Zq9PSn3bLTZEPHpHM09107ka9R1/1AJ9lEkURWtj9S0vVX6IlrS7TFhpCCc3W3CTqRjhy/SEun+/VMlZtKvGZvicNPpf4S7vCg75EpOmCo0dpF87Vx+ZUqunWjmQIABAHBBwDage2ZbNL4+drWUEDfojnfnqwn3m9+MTt/wHc0c/l/a9Vd5+rIL4zSA3ef6zUDS8vfNmrOuHDokAovW6SbRiS/Ribr259i/RXLrnPzC/Sdm6/SIHtdT4wjJz6iB870P63X7C1R+Kl9T1t+748WHp34KhyPef/sNXYkX6eOPMmrTcpI0k4Mojs9AAC0LYIPALSpGu1ccaXGTlrkh4Ye39GcR2ZqqHehyluaO/7bKlnXkt7I8tRr5Ez9YuXtGprWtf01qlgzR+eceaWeLvPnFJpte2TSkUkK/Nne/qbWX6GX17qmdGfepKuGJIsh+Rp68wrNSRF+Klc9odXedC8NPTFJfU/VRt14vaspO/EqzRiWfuwZOnKUG4vuxKDpTg8AAG2B4AMAbeVvb+mJ6d/WOXdt9ArWeV+xPZMV69QTz9UDyx/QuX3NzNpK/eq6Ik1esrPVm1jVlK3VnHH/odE3PK2ddmW5BRr141ItvWyQiREJZHn701t/L507/xe6ath3dP11QxNvV1huvk69+RFd5a7/8a75uW+Lvx1lT2i6u0ZII6bpwgH+aKR//W2tSsa5XuMKbI3Zd9KvMbOGfVN+9NmmuT/d6I3ZjhrmP++PFo46tVXvbwQASI3gAwCtraZSW5ZcqaKiyZq7yYsMGjRlkUoXTNOgcEn+sKGaucwU8L9iaxhq9Na8czTh7i1+F9FZVvX2E7px4ggNGTtTT7umaQXDrtKi0lLdXpSgqJ/l7c94/XlH6oL7TMBKmXqcXPPahx/QKG8xvfSds07Sv/5nviaPn+vXUOWepOLrRiUIUKs1s2imfmWvAcot1FULmqgxS9Cdtb3X0TR3rZGev9I8Z54fY9ZrpwdcpbsnEnsAoD0RfACgVVXq6WlF+sG8jao0Be+8fudqzsr/1qJLByk/9loVW8BfsFTFQ/zC/87lN+onrzZVb5K5inVPa/W7fiTJ6zdKMxeuU+l9F2hQwm6gs7/9ma2/GfKH6vYFxRp1qe39bZsev3WR3rKbkTdIVy3/ib7Tw39ZHBuMeozS7b9eqgts7VUz9Jq4VK/dF27y5pjQs2rZBdT2AEA7C1XvP1DvxoHAqK/3/6wjH+vr61RXZx7rzKM3XqceBYd6zwOt6t35mvCjMg297ipNGdIrybUzEWortfqmG/XWmDmaeWJstUOFnhg/2r9vzpkP6LXbhvqzm1SpjT++VFeu3GkCQL4GjbxYF08+V0P7pnENS1a2vwXrb6Gq0hs1ec3RKr7JhKvYr/Pt+SqaskiVub10qglKxRMSBDqgE9pTuU85OTnKCeUoZB9zQgrZ8VDIez72EegKCD4IJIIPkFjN36qkw/KbDi+tpL3Xn0hNldmmT5ptIvAgQAg+QDyaugFAF5LXzqGjvdefSF4+oQcAugKCDwAAAIDAI/gAAAAACDyCDwAAAIDAI/gAAAAACDyCDwAAAIDAI/gAAAAACDyCDwAAAIDAI/gAAAAACDyCDwAAAIDAI/gAAAAACDyCDwAAAIDAC1XvP1DvxoHAqK/3/6wjH+vr61RXZx7rzKM3XqceBYd6zwPt5X+rpLXvSzsr/ekjC6RT+0mfz/enAaA59lTuU05OjnJCOQrZx5yQQnY8FPKej30EugKCDwKJ4IOOzgaeH62WFm1xM2JMPkn68SgCEIDmIfgA8WjqBgBtbHO5dOK85KHHss/Z19jXAgCAliP4AEAbsjU9Y5+QPtznZqRgX2Nfa98DAABahqZuCCSauqGjuvgXqWt6Ehl5+J80fcD/uCl0Frm5uSooKFBhYaEOO+wwNxdoGzR1A+IRfBBIBB90RLbmpmeJm8jQtiv/rh6fqnNT6Axqa2u1Z88e7dy5U0OGDCH8oE0RfIB4NHUDgDZie29rrg1lB7kxdBa2xqdnz5468sgjtW3bNjcXANBeCD4A0EbCXVY3R9nf2F13Vj169FBlZQv+8QEAWcGRFAAAAEDgEXwAoI3Ym5M2V9/DuL6ns7LX+dhODgAA7YvgAwBt5NR+bqQZhvU94MbQWdjODXbv3u11bmB7dgMAtC96dUMg0asbOiq6s+466M4a7Yle3YB4BB8EEsEHHZXt0vrEeendwNQ6wvyJvjZd+ny+mwEAaSD4APFo6gYAbcgGmBUX+IGmKfY19rWEHgAAWo7gAwBtbHAfvxZn8kluRgL2Ofsa+1oAANByNHVDINHUDZ2Fbfpmb2wavseP7fnNdoJALQ+AlqCpGxCP4INAIvgAALoygg8Qj6ZuAAAAAAKP4AMAAAAg8Ag+AAAAAAKP4AMAAAAg8Ag+AAAAAAKP4AMAAAAg8Ag+AAAAAAKP4AMAAAAg8Ag+AAAAAAKP4AMAAAAg8Ag+AAAAAAKP4AMAAAAg8Ag+AAAAAAKP4AMAAAAg8Ag+ABAUe36lHwwZoaLRN2r139y8dP3pCU048USdOP4JVbhZDcLPnXijNrpZAAB0NgQfAAiEKq19YK621FSpsmK1bhxpg0qqobVCTIWeGO+vY8KSuAjVAm9pzoghGjF6tCYs3ObmAQCQPoIPAARA1brZKimtclNZsOHGxpA0Zq78qLFaVzYEpxN14wZvZlKfzj/YjWXBn97Sm1U1qqqo0BFfONLN9FUsmdC4rWkNE/TEn9ybAQBdRqh6/4F6Nw4ERn29/2cd+VhfX6e6OvNYZx698Tr1KDjUex7o1Mqe0IRxJpzUSr0mLdWqywrdE+nYqBtPvNJEmkiFumr6kZo7L3purFH3vabbh9kantGau93NzID/fjfRhMoVk1V011tmzGzbyqW64Av+fMsGn9HzMqkFil8GEDR7KvcpJydHOaEchexjTkghOx4Kec/HPgJdAcEHgUTwQZdR8bR+MHaOttRIBWeO0tHPr266CduZD+i124a6Ccdex2NrdgZcpVXLLlAvN9sTfk6j9MBrtyv6nVkMPibATZ6xRaf+6Cade2KB8txsE3v09JQizfkfM5po+2I0BKE0XgsEFcEHiEfwQSARfNB1VOmth69UyT8v1qKrhyo/183OVFTwOVVr0woz8UGopnSmhvxordRrspaumqa0655q3tLccZMbmqDl9TtXt99zlU79gok/r83RiEufNp9UGnRDqRaNLfBflETGwach2FEThOAg+ADxuMYHADq1fH02/1/aufxKjTg50fUssUNr9sxWo5fXmdBj5H/j6+mHHitvkK5avkpzxh7p1fTUvP+0Zo75D51z19Oav9APPcofpYvPTB16AABIhhofBBI1PuhKMrvGJUEtTVWl/vL7+br06l+pwqsx+o4eeLU4pkmb1disLeH1OXue1uQz5+gtE12Gjr1AB29brTfLKlTp+lzI7zFIQ8+7WNPOG6peje3Y4tT8aa3mXnujnn6/xs3xFV69SkvHx9bfJLpGKR3U7iDYqPEB4lHjAwCdXK+JS7Vp2VUadNiROveuVdr02mt6zQ2/mD5IR46Zo1XLr0pcA/M/c1Q0okijbeix0588VTMfv0r/uilRbVFj87fVV5vpmyLrjmq08aGfmNDjxlcs0tq3G0OPVbXnLa2ed6VGf/tGbUzRAV3eF8w2LP9v/eKyQW6O7y/vvKXKWjcBAECGCD4AEAB5/b6jq8bk6ekbRus/xs3R2j/VqGrDjbp03lvauXK25v8xT0d4rzTz/+mN+AYM0tB+ozTzRxfI6yS65yB9fUC+Mu6I+t2Fuu15l2byeumk8TP1k+WlWrfJhbBXN6n0kckqtDVKlat148Nb/NcmUfP+E7rxET9GhVWW3qgiE5pW73EzPEN1e0TQs8Oq6S7i2Wt8Yp5rHKjtAYCuhuADAEGQm69Bly1V6Y9PVb53fcwQjbh6tSpzC/Sdu1fo9qIjXC9pH+ovlRV6YsoIjb7BPP/JUbp9+e0698TPRvSiZuLEje56m4JztejVcFhYpasG+M/bpm5RPcN9+ULdPekkFY6do1X/vUo/ufpcndSvQPnhhebmqeDEabppot9UreqtbX4NUwKV60o0Yfx8r3tuedv/Cz0w3r/2R3tMaPr2OZqzKUWVEQAACRB8ACAoair03s5/mbDgpi0THswc40gd7YWWClVUmod/Vqni//3FPZdA7r9U9tZO1VQ+revu2qjoq20SscHrJ1p6w6kprt+p0s4yF3c+naBWyWz/r35UpKLrfqWdXug5Uuc+vELFI47U0Kt/odK7v6MC+9lqd+ql1W/5HR4AAJAmgg8AdGo1qnp/i56+7wcq+sZoXblwoypNYLhg3jqtW3yVhhZUavV1Y3XjBhNMvppvXl+llzdv0d+rzehB3gJ8tTXR4cYsY/KNk72uoCtX3qa59h46zWVD1ru/0txLzXas82edOvabCvfPVlO1U2vd9peU2lRm9Bil23/9C8080W6zL39EsVYsnKyhRbdr2c1DTdRKIvy53n9Lb6WTjmx31t41TBMautMGAAQPvbohkOjVDV1GQ09qVp56jZim2390gQYd5s2wbco0f8aNevvL1+v2b72pSeMXNTYxG/OAXvuRVHLylfpVuNOAmHvfvHXfOZpdM0ifXvkrbYnoWCBhr27GzsXn6JyHd7qpBHILNPS6R3S367Zatds0f+wELQoHjrxeOvXS21U8YVDz70m0fb5GR37OBAqnr9JS1+yO+/ggiOjVDYhH8EEgEXzQdVTq6eljtfqwi3Xxf56rofaGnynsXDlTV9691oSCQbpq2SJd0Lexi2obOs69a6lmDoutS4l4jVEwrFiP3P0dHZkgmCTsWju/QL16HKWTzrpAF4wdqiM/6eY7NWtuVNEjlfrOxKt04ahCFaT+CGmxn3PmvLXamaTGJyr4AAFE8AHiEXwQSAQfAEBXRvAB4nGNDwAAAIDAI/gAAAAACDyCDwAAAIDAI/gAAAAACDyCDwAAAIDAI/gAAAAACDyCDwAAAIDAI/gAAAAACDyCDwAAAIDAI/gAAAAACLxQ9f4D9W4cCIz6ev/POvKxvr5OdXXmsc48euN16lFwqPd8tu3du1d//vOf9Y9//KNhGwAAsEKhkD71qU/pc5/7nLp37+7mZteeyn3KyclRTihHIfuYEzLrNeNm3VbsI9AVEHwQSO0ZfHbt2qWqqir17NlTn/70p70DDwAAYfb48/e//127d+9Wfn6+evfu7Z7JHoIPEI8SGZBFtqbHhp7CwkIddthhhB4AQBx7bLDHCHussMcMe+wA0PoolQFZZJu32ZoeAg8AoCn2WGGPGfbYAaD1UToDsshe02ObtwEAkA57zLDHDgCtj+ADZJG9lojaHgBAuuwxg05wgLZBCQ0AAABA4BF8AAAAAAQewQcAAABA4BF8AAAAAAQewQdAcgcOuJH0Haiq0oE6NxF2YL+qqjJfFgAAQLYQfIAuYa/++NaH2u+m0rNfv1s8Sw+syeTGenv00vyH9dIeNxm29UmVzH/JPJva3jd+qWffqnJTGajYpF++mmrpVdr66yVa8kTjsOH/mU9YsVW/e+130cPWmO9p/4faGvWarfowsy8SAAB0AKHq/QfoQxGBE+4aNPKxvr5OdXXmsc48euN16lFwqPd8trz++us64YQT3FSa9m3Vs79+w0STxPoOm6hh/+4mwjJ9T93vtOiGrfrqnMn6qp2uqVJVgsL7QZ/K1yEHuYmyX6rk0d+rcUZi3YdN1WXDe7ipPSqdvUi66AYVHRKxjX8r19aPDtEXC3voE3b60OM15tsDlW/HG1Rpw7w79eEZd+j8o92sZGwN0j/CNUgf6aVHFmnvsGt1zpf/zc0zDjpE+Z9q3HZbE7U/oibKftYD7z6rlW9FfotVKv/wi5p6fZHCnyj6u/5Ye7bt1bGXmc/3eW8GALRYs44dTdhTuc/rKjsnlKOQfcwJKWTHQyHv+dhHoCsg+CCQOlXwsTUK73yof7rJWN37fU1f/IybCMv0Pf9bqrsekya7Av2e9Q9rwYb42PSlMcUaO9CMVJmgdM9zOujsGzRx0CH+k00o/+0SrS+3waBM+vejdfSgr6lv7t/9bSx/RSvezVfRN13Y+cQROnbgETrEq4lZqTf22ZkmdGz9UIf0O1o9Eq2yz3BN/EYff3zrCpWs/IMZOaD9/zAJ7uCIwBZWOEbF59oPY17+dIlWbvNGI3TX8KmXaVhDwrF+r0Wz9+hbkcEnynt6sviX6k7wAZBFBB+gbRB8EEidKvi0hbeWaOZ/91Xx9GExtSyJ7X+/VKV7TtKwT23Ss1E1IpG66/hvf0sD3Ve49/3f6Y9/NUHmN5ukU4r0tS8fq4G9XIL5n0WaWXqErk0QKBpqYnas1J0vH67LJg3Rp/2nosXU4HgqSnXPY/t1zvXfVZ8UDXcP/MOsI8ElRofk5+ugqPc1EXz2b9KjNz+r/Mlp1EoBQJoIPkDbIPggkAg+MWzw+J+vas73vYZuTas7oKpEbeFiHZKv/Dw37gk3dZssPXaPXqp0sxP58vlR2/PeU7NU2vOHunJ4OtHM+IcJKXN+qQPHHG2C2h/194P7qOiiifpagXvesoHKCzZ7tGH+Aq2P2J6G2q0oTQQf2/xv/iZ9+qzi9LcTAJpA8AHaBsEHgUTwiZFp8GniGiKrqnyrqo6/Vjd8MzIi+MHnoxOO1icPGaKxQ2PiQ7LtqHtPT95cqiOuvUwnVf1Rb5eX6//t/Ej/zD9Cxw/8qo7u111RdT11H6r0vgf00j/6aMh3vqtvDTpC//fWIt3130fowm9/Ru+/8op+t+0jHSgcr+ILBka/N5LdnqfLlR/ZTq5guKZOG5Yw+Oz5zV168v9110caqOKpQ5ReI0AASI3gA7QNgg8CqTMFn/1/3at/+0xMwb4Jmb7HFtjv+ago/eDjHPjHAR3U0Lxsv37/xKMqP/kyfbf/Qfrwubv0eM7khuCz991SPbvmd3qvYr+6f+VbJox8Wn//Z8xVSPZanz8dobFf//fo65DefVKznvlQ3VUl9fiqvnpCLx1uP99f9+i935Xq93Wn6RITRo7wam8O6PdLSvSsztJlF3xN3c28A3/9o3734i9V+toeHdR3iIb8x0n62hePiKiNSlLjcyCTQFiuX/74SR0y6bva+5NS9bj6Sp0We+0VADQDwQdoGylaxQNodft/p8fvXqSX/tdNp6M574n015f08EMbUtbmeGr+qGcfukk3zy/VeyaP7P+fJ/XL8j76aj8/CP1b7N7j44P0xbPG6GuHflrH/scQHXGgTO+99170sPvv0j8+8sYrInutPryfvjZomCb+8FZdO/W7Ou3Er2lgvy/q6BOH6LvTJuurf31WL211rzVx76vji/XDiSb0mE/xuyfuUslDa7VnwGn6qglLX/ueef+XI0OP1UPDphWruLhxiG/mltr+/3lJv/vUSTqp19E6bch+bfjV7zPsHhwAALQngg/QnrZt1R8PPVZfzaSHsOa8Jzeibqi8XOWf/IQJDU3I+6K+e/1tuuyEj/TLO2fq5qf26KsXNnYikH+YiR0ffehfR2N0P/40DenXQ4eEnx/0LY05skrvHzhW51wwURPt8PUjpCOGeONR3W0XfE3f/c7X1CNhFdZBOsjMj7opqplxkIkdW594QBs+c74JMpfou185omHd8X6vRTNn6eaSEpXY4eZZmvnz37vnYvz1Q/3xrzE9Ifzj93pyZbmOHXWa9731KDpfX/3wl3rytWbccwgAALQLgg/Qnvp8UUf8dZN+ue6P2tNwX5pIB7R/X1V0ob8Z7+nRIyLm2Pf/8Tkt+s17+tC8ripi2PPX2DqMg3TIoZ/WQbn56vPv/6ffLV6kTXv8dR7Ss4fyP9qjPf/7rB54YqtZa7z8U76rIX+xAaGZdSN1B1S+5pfa8vFAfa3QzWvwnn639QgNObWPa/LXQ0XXp+pm2gS5cI3PmC+6efGq3lqhR3/9npsy/vGenpz7C+0dfEljT245ffTdSUO0d8U9evSViLoze22UvUHqb8vdjEa2u+8lTzyrrV7X3RFSvAcAAGQP1/ggkDrTNT4H9vxOv3xqrd7+370Ju1zWwX30rSui7zeT8XvsRfyvHq1b3QX5B/b8Xi+9sEG/3/l3/Z//Cl/EvW8O/PU9vfTkk1r/Z7OsH0zUkB4HmVDwpOY+9aG+dvm1JmDYDgl+qX/7Sr7e+L/TdMd5NhVE3MA0HEAqfqffHTheX/t3E09SdrKwXx9ufVsfflylivc+1N69FSo3n+//ug80ISOmtzaPrfG5S8u2HaTDj+yjz0Q1bZM+PnCEvvv901wnBbbGZ4uO/tH5OtZObn1SJTtO0pyv/F4zXzbfy+WuowITtN5bcaeePWyqrj2jh6re+6UWLPmddPJkXfadL8Z3ZlCxQQ8veFZ7+nxXl00coh5/KdVd972kvTE91lm///lMPflud512dUw4s/dYSvIeAF0D1/gAbYPgg0DqTMGnTfzjQ23dKfXzbhqaBttr2vwn9dFXz9GYU/ooP7Ju+IBJWrbtmbHnhXt0z5q9+ur379D5ny7VA4s36aN/5Gv41SYYRXaL9v6zumfZ701I26/9X5roQlK88t+u0Hs5/67PHCx9+vNfUp/PJ7gxaQx7j569/1uusr9Gd6Tw6c8fqy/2PsTVBtng86z2DzKfxZs27A1Rj9+rJfN+qff+ut+vscqxNVx9ddqkSzTkL0tU8kyVhoybqKKjU3Rd/Y8/qvSxX+qjIZdpYuFe/8ayn/mivtYvujGhf5+jT+qIYwbqiMh/hPDNaBO8B0DXQPAB2gbBB4FE8Gk7DT2/he/9k+hGoxH3BYq/aWhbsM3//k//dmg4CAFAx0HwAdoG1/gAaJGG7q5zDlL+ofnxoccKP2eGtg89lq3JIfQAANCVEXwAAAAABB7BBwAAAEDgEXwAAAAABB7BBwAAAEDgEXwAAAAABB7BBwAAAEDgEXwAAAAABB7BBwAAAEDgEXwAAAAABB7BBwAAAEDgEXwAAAAABB7BBwAAAEDgEXwAAAAABB7BBwAAAEDgEXwAAAAABB7BBwAAAEDgEXwAAAAABB7BBwAAAEDgEXwAAAAABB7BBwAAAEDgEXwAAAAABB7BBwAAAEDgEXwAAAAABB7BBwAAAEDgEXwAAAAABB7BBwAAAEDgEXwAAAAABB7BBwAAAEDgEXwAAAAABB7BBwAAAEDgEXwAAAAABB7BBwAAAEDgEXwAAAAABB7BBwAAAEDgEXwAAAAABB7BBwAAAEDgEXwAAAAABB7BBwAAAEDgEXwAAAAABB7BBwAAoB1MnTrVjQFoCwQfAACANmZDz4IFC9wUgLZA8AEAAGhDhB6gfRB8AAAA2gihB2g/BB8AAIA2EBt6uMYHaFsEHyCLQqGQ6urq3BQAAL5EocdO22OGPXYAaH0EHyCLPvWpT+nvf/+7mwIAIHnosewxwx47ALQ+gg+QRZ/73Oe0e/duan0AAJ5UocceK+wxwx47ALS+UPX+A/VuHAiM+nr/zzrysb6+zhxkzKM50NR543XqUXCo93w27dq1S1VVVerZs6c+/elPKyeH8wsAgEb2+GNremzoyc/PV+/evd0z2bOncp93/MkJ5ShkH3NCCtlx16wu9hHoCgg+CKT2DD7W3r179ec//1n/+Mc/GrYBAADLhg3bvM3W9HTv3t3NzS6CDxCP4INAau/gAwBAeyL4APFogwMAAAAg8Ag+AAAAAAKP4AMAAAAg8Ag+AAAAAAKP4AMAAAAg8Ag+AAAAAAKP4AMAAAAg8Ag+AAAAAAKP4AMAAAAg8Ag+AAAAAAKP4AMAAAAg8Ag+AAAAAAKP4AMAAAAg8Ag+AAAAAAIvVL3/QL0bBwKjvt7/s458rK+vU12deawzj954nXoUHOo9n23L3pIW/E56dZf0rwNuJgAAxsEHSSf3lqZ+TRo/yM3Msj2V+5STk6OcUI5C9jEnpJAdD4W852Mfga6A4INAas/gc+1vpHs3ugkAAFK4Zqh0zzfdRBYRfIB4NHUDssjW9BB6AADpsscMe+wA0PoIPkAW2eZtAABkgmMH0DYIPkAW2Wt6AADIBMcOoG0QfIAsoiMDAECmOHYAbYPgAwAAACDwCD4AAAAAAo/gAwAAACDwCD4AAAAAAo/gAwAAACDwCD4AAAAAAo/gAwAAACDwCD4AAAAAAo/gAwAAACDwCD4AAAAAAo/gAwBd2MIrpfobpWvcNAAAQUXwAYCg+Z4JM7fHDy8Ncc9n2UsmONWbANVS10z2t3Ohm84Wu31/NcsGAHRtBB8ACKifmQJ/yA7PS39z81rD8xXmP/np1xplXMtkAttfTSB61wQ6AACai+ADAGiSF1Yiao8ih3uOMi/4hHlM8FyrhhUXiGLXGTucarbtMLONiZ6jJggAug6CDwCgSVMecLVHSYa1H0t/+yB+/pf/yy2gNWySPhOzvkRDsm2zw2cWuWUBAAKP4AMAXUhszc3FnzMzE9TWZFpTc9q7fq1Ktq/PAQAgWwg+ANCFxNbc/OzPZubH0rUR8+wQVVOTpLOEqOF4/6UXJ3iura/N8TpbiFi/2zQAQBcXqt5/oN6NA4FRX+//WUc+1tfXqa7OPNaZR2+8Tj0KDvWezxZbYATanQ0qprRvOzeYYqfttTBnSm88L522yXtFA1sDdHG+CT4mINzr5jVb7HqT8NZpa5oy9Ic3mm469675HF8yYS5kAp7HbZNt6kazNnRkNqRn057KfcrJyVFOKEch+5gTUsiOh0Le87GPQFdAjQ8AIDtMKLHX01xsgk0qya4XutaEE6uhN7qYoanQY7vD/pJ5/Fk49Fhumw7rxb2KAKCrI/gAANLXRE9qO9dKf/tcO3Y9bULOH9xoWM9PmP+YwYYiAEDXRfABAKTFu3bmTOmZmJqYhuEN6WLz/GHmtV86PnFHB95NSs1rM659SeNePve+Z0KXCTgXR7zGNqvr+Wcz34wfaZYBAOi6CD4AgCbZwGLvh5Py+p3/agxAMmEj1XU+rcJ2b/28CTomdIVroM6uMvP+5IcxAEDXRvABgIBq6GHN1cK0xJfyzX/SDTM2AEVeZ9OWYu7tYzs0uMZ9+J0xHTsAALoWgg8ABFRsJwGxPbplzISfzthBwMVH+b26tXkNFACgQyH4AEDQuCZn2Szo257Y/uBudPpSJ7pWxl6X9KWPpdvpyhoAujzu44NA4j4+QHoyvo+PuydQOk3n1ia4b5C9Vuieo9xEM6RzLx+Pu3+P1dR9hYCOwDZLzSbu4wPEI/ggkAg+QIwMAktYouDSUl7w6dWMG6a67d/dVPCJCDytsf1AayH4AK2P4INAIvgAADoTgg/Q+rjGBwAAAEDgEXwAAAAABB7BBwAAAEDgEXwAAAAABB7BBwAAAEDgEXwAAAAABB7BBwAAAEDgEXwAAAAABB7BBwAAAEDgEXwAAAAABB7BBwAAAEDgEXwAAAAABB7BBwAAAEDgEXyALDr4IDcCAECaOHYAbYPgA2TRyb3dCAAAaeLYAbQNgg+QRVO/5kYAAEgTxw6gbRB8gCwaP0i6ZqibAACgCfaYYY8dAFofwQfIsnu+KS09VxrWl3bbAIB49thgjxH2WGGPGQDaRqh6/4F6Nw4ERn29/2cd+VhfX6e6OvNYZx698Tr1KDjUex4AgCDZU7lPOTk5ygnlKGQfc0IK2fFQyHs+9hHoCqjxAQAAABB4BB8AAAAAgUfwAQAAABB4BB8AAAAAgUfwAQAAABB4BB8AAAAAgUfwQRdGF54AgKDiGAfEIvigi+KAAAAIOo51QCSCD7oQdwDgOAAA6Coajnkc/ACCDwAAAIDAI/igC+KsFwCgq+CYB4QRfAAAAAAEHsEHgRaKOdEVO11bW+fGAAAIhthjW1PHQqCrIPgg4GL37v603enboeb/DnjTAAAEhT22hY9zvoYRJ3Ya6BoIPuii7E4/pP0f1/iTAAAEhH9s849zABoRfBBIoRT1+OHn7H8P1Nbqn/sJPwCAYLDHNHtsCx8F0zkeAl0FwQddgt232x1844Gg4T+qqv6n/lXzf958AAA6K3sss8c0e2yzxzjvMOdP+cdANw10VQQfdBHhvX94x+8/+geCkP66r1r/2P8v7yUAAHQ29hhmj2Xh45o9xoWPdW7CjrhHoGsKVe8/UO/GgUCprw//adebcX86cqirq4t7/LeDcnXIJ/J0cN6/6SAzDgBAR3XgQK1Xy2Ov6fk/M56Tk+OFntjH6MG+0w9AdhroSgg+CDQbaBofwwGozoSc+AAUO9/8x77Dvs3+33u/Gwk/AADQqhqiiQss4dzijUUEmpwc+xgfeBrnu/f7Iw2PQFdC8EGgeQEm5jFuMMGnLmpeOAh5b4gKPf54rMRzAQBonvhQ4nKL9x//wYYY+xAONn6oybGPCWt6/GXGPgJdCcEHgWYDTJg/7geaxpBjhnBTNzdt/uPPj3iP+3+E6CkAAFpHY0Dxxtx/vDBjx2yAseNm8EKPHeKCT+N7wiLHga6C4IPA88OLN2YzjR9qXKCJnI4dws/bR/f/BBLPBQCgZeKDicsv3n8iw0ziIfZ5f9r7rz8BdDkEHwSeH2J84fHYcBOejpxn/+Ne7U8nlPQJAABaIHE4aQg0bqJh2hsPD9HzvCn3aEWOA10JwQddgh9ofOHxxqDj5tnp8HhU2EkWfBLOBAAgS+IDSjjURI57AcfNiAw6keNhkeNAV0PwQZcRDjlWVOBpeAwHnMagE/meRmZeotkAAGSbn2i80UiNocb7b8RjeH70o0XoQVdH8EGXERtiYsOP1TBuHmNebWcBANBuwuEmzJ/0pxMFnNigQ/BBV0fwQZeSLPz4osNN7Guj8bMBALSF5GElOux4//XGLUIPEI/ggy4pPtTE1uhQwwMA6Njiw473X288jMADNCL4oMtKXKND4AEAdC6JAo9F6AGiEXzQ5aVu0hbmv4ZQBABoD40ZpukwQ+ABEiP4ABHSC0EAAHQshB2gaTnuEYBhDxzhAQCAjoxjFpAZanwAAAAABB41PgAAAAACj+ADAAAAIPAIPgAAAAACj+ADAAAAIPAIPgAAAAACj+ADAAAAIPAIPgAAAAACj+ADAAAAIPAIPgAAAAACj+ADAAAAIPAIPgCAFtv3xxydPT9H6+vcjAMhlZbm6oRf5OhjNwsAgPZE8AEAtMwHOfryUybo7A1pzqshb9ZHW0wQ2iJt22bm/cmbBQBAuwpV7z9Q78YBADBCenpZjiZXSId/QhreU/p893qNO6FOx33avSRKSLfNy9Gcv5vRT9fr9el1KqzL0W0PmdBj5/Wt14cX1OlQ77VIy5u56vZr82i+/8MP8mdN/W6tZvb1xwEAmSP4AOg43jGFvZVuPMwUuLdOqxPlvTb0cY7G3xfSqnCzNStHWnR1rc41BfFEPvptrvqt98cvGVer+/qbea+YeS/582ZOqtVNR/jjaNqrv8rVaW+7CWfRtcm//8yFNG9+jmbtdZPZ1r9e1eMi/4AAoP0RfAB0HG0cfMrW5WrgRjfhnDumVouOcRNd1Me/z9Vnn3MTYUfV6y/j62wFRGKRYSn82rocXX1PSI/WRMzzXmzlaPLtIT3tprKuUwfmBKEk65+nAwSfRL/35jJ/WM9Mq1XRJ900ACRA8AG6sEQF/5YaflqdnjulmbuVLhZ8Otz37zFB5acmsHzkJp3RZ9Vp2VdTL3f9ylyd9Y4ZsbVD02t1bjdp24u5mvz3es0vqtNxZrpRewefVl6/1dy/3b/n6Kx5IbkKNM/hJ9Tr/W9mswYlYMHHKqjX6/9Zp0LXNBAAYhF8gC6sNQre1sNX1eqiqEJumgg+WdHs79/akaPPLg9lpye2lIXfrht8Wuvf3ZN2E7P44FM4tE6vj2hekaB0ea7O3uEmrPYIPhbXkwFIgV7dAGTX4fUa1dxCN1quRd9/SI9tyFLogXSwdIgbRes7+SQTesYTegAkR40P0IW1xpnnk4fX6aVvNHO3Qo1Pi7Xk+9/3Zq76/VrZCz5p1z60hzao8Uny+TtqjU9Wtca/fV1Iq57J0fhtbjrsk9J9Zl2XHEFxBkBqBB8AzZOo5y/jvstrdclhbiJTXSz4tEi2v/9/miAw3wSBLFb3tKTpVKeT4G/3E8fW6y/fIfhkxd4cXfZESI/Z7tEjFB5Xr7Vn1elQ2q8ASAPBB0CzvPmbXA193U2ENdXzV1MSBZ/D6vW6CT6FrVCw6czBJ7vff0ily3Oir9GwTOh8/dL0vvvSX+Tq7Jgz8Z0mRGbBx6/n6rO/cRNOxsHvzzk6YUFIkV/jJ0yA2GUCRLN/U0l1nuDz0Zu5Ou0583uNXNwnpTu+V6fpfSnCAEgf50gAZO5vpsD0ezceYeY3WqGA9reQTrjLBJSf5ejRHSF9nMWTyJ1Wlr//besShB5zdLjj7HQDZ45e/dCNRvjK591IF7BtjxuJcFyPTArlJoisiA499t9g/rcz/zf9eG+OHvt1rvotzlFM53wp2aBWfWNts4Zn+ruFZJNt2mYCtW1+GRl6+hbWa+v0WkIPgIxR4wMgQyE9/USOJpe5ybBs9KaUTi9PB0nDj6nXHd+o13GHtWz31TlrfLL7/e8z3/mXzXe+z02HZdQtdoKaCnWr18ar6nScm4zWBtfXOM+YQnmRG289if9NbvrPWs083E00YZv5Wzwhtvlbd/PvYAr8r/7dhBlb8Dd/+4Wfq9fN363X6IKYf5sDIb35+5BmbQxpfbWbZyS/cWwH6NUthY8rzff5mAk+/3QzLPP5Z46t001fpNgCoHkIPgAykvACeFs7YAp50z/nppsrneAT4RMFZr0j6zTRFLKaU9PRWsHHFmInV9fr+Va49iCb3/++HTka+otQdBMi41Dzfb5rCq3phqiPfmu2KfKmM0ay61t8bRR8zPfyzKy2CD45unqOu1FrWCbr/mOOjngqFBc+kzLLvsh8tw8fU6+PP8rRo/8d0m3vu3AUK2nzx47a1M0E6N/m6Mzfmr+rmLcXmr/vv1WZ+RF//Id2M5n/s/Uad6w07pg6Hc49fACkkOVDMoBAM4WsM5+LKXQbx51S1/LQk4wpyHwiyZ7q40rp6uU5+ux9uZr1+w7SDM58R+NNmHrzzZCOmJurRz8MuSeyIIvfvw1Qx2ch9NiC6vK33WiEiaYQ2u4Oq1ehG21Vf5J+FRl6rMPr9RU3mpL5Nz1tRQahxzJf7WO/ytFA8/f12Z+GNGtHktBjfRDSkr+58Y7unzmatzhHJ5gQHRt6rG1/NvNj/vj3VZvfWpn5Dn4dUr85uTp7XY72dYA/PQAdE8EHQHpsr1+Ph/RmbKGioF6LhrdixfGR9frLzDptLKrX8GT3p/mnNO85E4DuydVlW9qx4OO+o4YmX2a7rjYFufGvZyH8ZO37t2fUc/XlX8cXLg89ql5vnJNhc7k/hjQ7ttbg0/Wa+kU33p4+o1bpDTBWmfkOYq+lKTTfZZOt3Kr9f9NXD7jpSLZJ53H12viDOv3lxlr9ZVJMiDP/dmURTdrimPcfZ0LssgvqNLG5vSy2oX1/NAFwngkwCa4VS5v5Tko3hnTEghxtS/SdAujyaOoGoGl1Ic0zhYlZlW46LEd6eFqtLspWwSpRU7eYJjP7PszR7OfN9qS6avuT0vQRdbrpq6mbwGW1qZsJJrc9FtKc2O/oE/V66eo6ndyS00zZ+v4PhPTo0hxd/Sc3HeHwQhN6zs60aV7ia1tadC+n5vqD+dt5xo07hafU6fXTWns7QrptXo7mxHSznPzaGmevCcSLQloVW31nvv+iU2yYjfi3MP9uq36ToxlvJ64JaWDDzpH1uv7kep3Rt6nmnx3kGh/bgcFK8138wU3HsM1Zpw+q13eONsHvM+Yzue/k42oT4N8P6YFN5m8w9ndhZeOaQwCBk9EhDkAX5PWslKDQbZz7nbrshZ40HXpEnXc9y19+UK/pyU6ph2uA5uZq3h+z2NQsGVMwnZMo9Jg97B0Xtjz0ZOf7NwXFdYlDz3BTyH7H1vRkup3mu50R28lCnin0n9T259PejN0O47jPt8F27DABIib02G7AJ6YIPR+b8H7aowlCj3nfM9Nr9YwJ7f6/RUhlv8/VCfeYYPBmktBjXnecKeQ/bAr5f5lZq40mbIxuMvR0DLYDg/FzE4Qe+5m+VK+Nl5vP9AMTIE0gO66gMfRYn+hWr+OOq9Mi8/yHZ9erb+zfbllIt8b2VAigy6PGB0ByptD99FM5mvyBm45x6BH1WmsK9oXZuqA4jRqfWLYGaNavQnosxUXad5jC0fQCNxEhKzU+/zRhYmFIj8YWfo3jTIFtY0tu4Jn17z/mfj0tueN9nfnc95nPHVN4b5ebltptuSemcwFj0bW1OrdVE0B8rYmVqsbro9dzNaQ0PsT0PdYU9L8dET7tDTufSv13bU2/oFZ3NKs9X+Jtz5qUv9vkHRgc/oV6LTu7Ticna9aaRMJOPwrNNphADwBhsedIAMBnCt2PPZa80G3t+zCkE+blalWqaw1ama0BenhanbaeZco5CQKADR+JQk822DP3Z81PEnpOqNfzLQw92f/+61VkCqP2niuFX6rX+1fVNi/02AD1i/jQY5v1zW/N672S+PjN+NBjmzqNbuVqD1uDFhcc8up109Ak34H5N331j/GF/ZPN3+hr32kMPfv+kKOBjzQdeqz//Ycb6Sz+maQDA/PZRxfV6Z2LMg891qHH1Wt67Pv+LCWoCATQhRF8AMSrztHVD+XosnQuNP6nNP6hXN1W1gZNypKqV9+v1ur1a00I6udmGbaHshaFj6RCKtuSq2MeC2l9bOHfsNfLPP/NFlxf0Krfvw0/5rs6u06HN+sIENK2lxLc8NS45LstbNbXHHU5mvNbNx5h9DGt29zL3v/o1Nj77hjDv1Gv4cm+gxwTxs6p0x0RQXy0+Tt5yfyNhrd12yu5+vIz8b3t2aC68ap6neumOy0TjuO6JTxIusMEnmUnme/hgAnV63I1dG6uut3uhrty1W9Brua9k6rnRvO319ONhv3N/K26UQCwaOoGIMq+shx976nEPU3ZplV3fD6ky153M2LYQtyyE1qwS2lGU7dEbA9R31svzZ9Up8IUBfFmNXUzoWSeKZjOSnCtjOU1WbJn7910ptr1+2+SCXq/ytFZCbqvPtR87g/N525bMU33wrLRoUQKtkZm6Mr4cGJ72Ht9auq/OU9dyKv1+Ntpdbqpb+O/V8KbyXaXlpm/f/+GpTlx9z/K9g134zopMOvd+oM61ztefPO4Zq3f9lD4kPkctpbu0/V6ZnKdirpJH72ZqzN/Y8Jfqh7ZIl4fK27bU95EF0BX1Nbn5gB0WKawbYLAl59IUui2XR1fVKeLvlmr979ppt38SLbnqaFmyOieJK3g0C/W6aWL0yiAZsS/0Hyg7XI3SeixnQR4TZbcdGY6+Pdve4QzhfVEoccWjtd+u61Dj9/ULFHNU9GI+tYJPbapWmmujkhQI2OPpnd8L82/uZx6Tb+4Nir0eGHgV9Ghx9ZYfnhprQs9bcBsw6Pvu3Gnr/m7a84lRPakgr2/1gk/y9VlpTnaFlnL88k63X+WdFy/er1/uR9ibOg7/tdNhB7r7yGd/UiuSv/pphuEtC22A5CDE/9OAHRdBB8AXi3GbQtydNrGmLPNjr1e5d3xjU2jDj+hVu9eUK/jEuxB3nw9pC8vy0ncA1UnZWuQzr4vRwOfMwW6RJ/rIGnmBXV67hvNbF7Vob9/P/DZnsWuTtT07tP1es4EsuyGzCaYAFL6K7NNCZqafcIUphe1Qq3Xxx/l6LJHzL/RFjcjhu1hL2kvg2nY9lvzmSL/zWyYbE5Pe81m1v/rmG0wpp/cvO/yX2Y5H5twsm239NgWs9wq94Rz6DG12nh++G86R7ea31bk3779m/9wVq2qbzC/q6ExAcaEqAm/zoluMZfgflLNDW0AgqstD1UAOhp7BntdrvrNC2nOn928SGYPYZtPbUxwvcqhfc38i+s1PEFJf98HIfX7aY5ejTsr25mE9NGOHE2en6sjnjIFt2Sf5XP1eunymLP36erg37/tMe+y+X7gS3gm3hTOX5pSp+GfdNOtzoSwd0wInWuGRDVPZjuWtqCZYSI28Mz6aa4++9MknQ2Yf6OLxtRp0TEtCVvm7yumpqXoa/VtFyZdbV5s7VlfEz4uaWZ39WV/cSPpMH/76yM7p+hWr/n2b95+/oPM3/iIWq014SfSxztCWvI3N247GfllKO6kQXNDG4DgaqvdKoAOxqvFMAVIW8uQsHbAFCIfntrENSOH1+m5S+t1UaKC759DOu2R9u3xrVk+NoVQE0aGzslRv+UhPZ2sZy0bSorq9BfzHTWnF6oO+/3XhPTmFlOQnGsC3+LkPYv1LazX+/azJ1p3VpkC7e4cPfrrXA00/yYDVyYJoWY7nrm0VkVZ2J6P9+Zolf0buMcPPElvlmtr+sbX6eEWhR4rpG2uEB+2bU8bdBZigvebW5LU5plQ+4z5+27Km7tytC8ytJhl7qvM0fJyN50O81uKyu//DOl/Y1ZdONyEsDw34Sx4NUelpYk7GbG9OTY3tAEILjo3ALoUW4sR0g9fTFGgN2yh9qVMev36Z45uS3QDT8uUaB6+sFYXpdMMKEudG6QrUecG6Ti8b72W2R7MMg48HfD7twXVj0yYeE9avt08Jqp5imSCxR2j6zT9i1k+dJjA9ZEpvO7fG9Jb+6T/+WNIr+6WXv27CSJN/PM3/35S5rOb5f/VrtMU/H/5nilAm+/wo9iusRPw7jdzTraCnwlXP8mJu0mtXcf9psB/cg8z/slk37f/GcLl/vd2mmkTdkv/X0ibzWe66KJaTf+ce9L42ISK8g9DWv5qSAt2mQCeqCbvc/V63V4jF/d9Nv/eP3dMjd6OaCHdNi9HcyK7he9u/m7PrNN3e9frULcdb/7GhNEkHXtEsr0qvmGbCbppAAgj+ABdyJulpuCQ5BoFT0sKtaYAbe87k7ALZlNwefgSU/g2hZmUOnjwOfxwUxD9Xn2zLzbviN9/2t+BWcbok+v1k+GuCVLWmNA214S25tQMmm26qKhO9361eddWxfUClg7zHd53Rp0uyXLw++iVXPV7yU1kUVTg+DBHAxeHkt/bxvy7Fp1Sr0UjkoeGZn1neSbIzzQh0U0m8vEfzOd/xgQxN90sdvu/Uaelzb3WDkDgZfXwBaBjO254vS5KVCKwBYah9frwKlNIam6BLscs296Lo7+bjjD69LqmQ08HdnjPei37zzq9b4aW9LDVEb//viY0pCqQKk8612z3+9fWapktEGf9qGEKxEe40XSZwDP8uHptNdv0cDNDj1U00I2kwf4NPDypTtXTarMeeqzDT67Tw5l+D5k6oj5xBwzu+3zdfJ/PpAg9VtF/JO5UI5WTTZhK+TdmfOJLfocdzWqqGLn9hB4AKVDjA3Qx+17P1RG/cROGvTHioqI6HdeM61QSC0XdW+Xcb9dpkSmUpKWNa3zsWeZjzPoSXmNjC/wn1ev6oXUqNOPZ0vG+/5Ae+1mOLtvtJi1TkDzuSPPZT67XGX1bvyCZVm2H3abeJtyZbZrYz2xTNgLYxzkaf19IqxL9+5vlH14gXXR8vaYeV6fDs/g3kFxI27bkaPI66c00mtul46KzTTj8kpswPvqt+a43ms9m/t6G96nXd481/8b/ntn3+XFljm77ZUjLbU9tZjvjmgba784GmEOk60/LtHYspI/KzLLfNsP7UtnHMc3x3LIPyzch7CgTlI42ocqEUsIOgHQQfIAuxxR0F+doyWfrdd+IbBa4I5nC9y9ytOrLGV743cbBx7KFuMmPmcKvvWDelJ6KTEFw+lfqNfzw1to1drzv/+Pfm8KwKWwPNq+9pNB89gwLwi32UY5O+Kkp9IcLzMZXvmBCYfd6DTZhx9YIJb/GpSVCevoJ8+9fYZZvgs1XvmA/uwkEpkBd+Jk2/g6i2A4CQtr8gbT+/5nv5S/S/+w3s00AsNdBJWXC4eEuAdhgMPgw6WuDa3VRa9ckAUAnQfABupBut+e6MQDoWqpvrHVjALqqdjufBQAAAABtheADAAAAIPBo6gYAAAAg8KjxAQAAABB4BB8AAAAAgUfwAQAAABB4BB8AAAAAgUfwAQAAABB4BB8AAAAAgUfwAQAAABB4BB8AAAAAgUfwAQAAABB4BB8AAAAAgUfwAQAAABB4BB8AAAAAgUfwAQAAABB4BB8AAAAAgUfwAQAAABB4BB8AAAAAgUfwAQAAABB4BB8AAAAAgUfwAQAAABB4BB8AAAAAgUfwAQAAABB4BB8AAAAAgUfwAQAAABB4BB8AAAAAgUfwAQAAABB4BB8AAAAAgUfwAQAAABB4BB8AAAAAgUfwAQAAABB4BB8AAAAAgUfwAQAAABB4BB8AQDuo0YZbRmrM1Bs0f9km7a5xswEAaCUEHwBA29v1Cy1ZU6W976zT8pcrdHCem5+pjTdp+NdPNsNELd/l5kWp0PJJ9nkzlGxy85oS8Z6v36TNbi4AoHMj+ABAR1FToc3LfqwZ541RycYqN9PapBKvEJ5qSFbwT6AhLJxs1uPmtakqrZk/TzvclN66W2OiPkvyoc23N/dgNwIA6OwIPgDQUeTWqHztKr2xq0JrZt2g5/a4+R1Ojfa+t0oLZ03Red8b2RhMho/UmHOmqPjBpdpcnrztWvWGu3X/BjfRCjaXRIalMZofTlilMyLmmyGdGqCj+qqPGwUAdG6h6v0H6t04AKC9lS/VlInztKPWjB89XU8tnKCeXo3PDK1RoaY9tUTjevsv9SV7Ljy/uYo0++XbNNhNhVW/s1QlxfO0OY1Q1n3odN0+a4KOOdTNsKrNdo0327XXjHc361hm1tHNfyoTu5dN1Hnzt7mpCEX3a7Zm6PpSN52Kee364iHJl5WBkbNfVfFQNwEA6JCo8QGAjqTPBJVMPVY9TxqtaVOGqsAGoBjRNRotCTeZKV81QxdOdaEnN1/9i6ZrzCD/OS8orV1jgtqPNO74Am/O3o3zNO3CGXqu3JuUasu0/CoXelSg7irV9aMiP0uKYdJS7fYW0rTBxa9q/cvhYaWm9XdP2KDTMN8MJvQAALoOanwAoMOLrtXps/hkr0bDr2VIVRuUhL3Gx1WJpFtTUW3ec6F5j5dZuo/QzPm36azeeV4I8xbVbazmr75Ox9jnjb1rbtDFt6zzX997khYuvVR5KyZq4oN+zUr/acs18f1xKk6nZsbqP11PLba1XzEaPkuyz287KnDN3VwNT1P2rrpMY+a8ZsbyNWb+Gl3VEO4AAJ0ZwQcAOrJdSzXlvIiOAJrQf9pKLRzfy00lkWnwsdswwTW/i2qeZkLFFBMq3jOjCYLJO3PP1LQVld74sJLfqmTEv/TG3Mv0eM/bdP+4vt78FosNPsrs+4r//DVaM+sbKrHXIMWEOQBA50ZTNwDoIOy1JlHNu9Lufrl1vbF8sR96lK+R198YcU1OpXaHe5I76si42phjRo1umLdhve2OLV81Vdv0xoPjoj9nk0Mbdim9Z5X+y3W80P2kXtq+8CbNmDhGZ53auD1nfW+cZjy4Sjv2+a8DAHQO1PgAQAcRd5G9bZo1aaerwUjc2YCvsTlXuManoQlaS9j1z5JKTp2hNTb4xNbq7F2lGaN/rDfMaP8rzHrHxdY0RXSw4N5b3qztSvHZG2p8emnY6EITwKarZGyyGq/G7UlcM1ZjvrczzfZFdiWeQm6BzipZrpnD8t0MAEBHRo0PAHQQPccv8S66n13kZsSxBffImhB/aNV72+zeqXLXwUKfU4dG1+r84TUv9NianIFfaqJ5neN3PPBbzR7dS33G3KWn1kZ0NmCHpdN1/NFjVfJfr+qpaSbIeGpUvd+NhtVUafd767T8ubfdjAptWLVOGz5YnPA78gcXwowd88eY6ZiapPcWaW5k6MnrpePHXaf7lzyv58LbuXaNlpSMVp9c83xtpZ6bdVn6908CALQrgg8AdDa29sQUwhuDQbzons3MsH6JLgxf+N+tSLNfjHk+0RDTEUCfntHh5o3NrimeWd6wRBfC7P2L37mB1fOz8vt6M5nljQc0e1WFylfeoPNGjdPcdRUm2hh7SlV8xTy98d4KFZ93g57zLw8yKlTZMG7VaM0tI3XelBs0f0OFm5ev4y+8X0uuaG5PbVXa/ItVrue4PB3z/Ye1cvVK3X/FWB1/VIG65XlPmKfy1WfEjzS/eISbsU0rn2tZV9gAgLZB8AGAzmbHPJ339ZMjmsXVqCZBt9eRajYs1uOuZqL/xEs1+BB/3KrZtU5zJ45R8ZqodBGn+p8RtSG1r2nDi/50t9NH6HhbAxJj7/pVrkbIrHPgsSZO+PKOv07Ll96lMUeZOTVlWlk8RmdNvEzTptykDTYp5R2raQtv05Tjwx0g/Mv7fLuXTdFZ50zR3M1VOua4E/0uv8cc617TS4PPGqI+h4xQ8dqVKhnTV3ndx2r++sgwd79Gulfbpm7ro5rP5WvwrPmaOXSILlzwvOZPOVHdwxucQLejj1W4l+zde1J/bwCAjoHgAwCdjavxsYX5p64o1Jrrx2nhB+65BAHE1kosWbDOHzVhYEbUtTgVenHu3Vr5QYU23PJdTVte5uY7PY/0m3UZ281rwvY+t1grq+3YsZpy4YnevCj71unhBa4ZWu6JGjMyurYor88IXbXkJS2Z4tda1Xzwmt5x9/cZWTxb42woKujlmtaVqazcBK+qSlXvfltVtQXqOe5hPXX/jzRucHwTu5otj2j2yjLV7F2hGx8MN4VLQ25fnTX7fk05Jo1rdqqr5H18o1s+1/gAQGdA8AGADqah9uaDnTE37RyiYht4IjoY6Nm7sVvovN5jNeWs+CBQvSZc25OvkddeqmOiwlEvU9h/XMUjbEO0Gr3z4IXR4Sd3iM4a7Rfsq1f/QhtMab/mg8Waea+9z41Z/4XXaUwPb9Sp0e7N8zRtzA1a45JB/6nX6ayo15hX7X1Ny2eN05SFrtaqe1/16W5HKrWm+LuaeO867TahK1yrsnnLa9q9pzF4pZI39DrNGOaP711xkxba7razyd6I9Z7F7t8mX6cPC9c6AQA6Mnp1A4AOwoaBlbNv0vyNlab0nqe8mhr1HP0jFV84Qn165jc0FctI7duaO2aKVtralKPHqnjCiWY5JpxsfU3l+6Wq91/Tjr1VqtxdZeaGFWjkHctVHO6trHqTSsbP0JqGC3Z8eYOma+GDJoTtr1Tlrm3a/PIqPbdinXaEq0K8a2Xma86UY+X1gF1bo/I3zWseX6qVW9x1PUb3kT/S/Fm26+syrZw1TXM3+03Hjrlqib73xkT/njoRzrrnVc0Mt1HbcJOGz4q4j0/4OqY9qzTjnB/rDRsiB/9IK+8Zre6161Qy3AQyMyut+x3FqNlXpq1rV+lxs/1v7PHndS+6X48XD/E/HwCgQyP4AECHUKMNxd9QsW2R1n2IZj44WwM3TtHEyO6t03T8zOd1/3GrNHHCIyp38zJnws9sE36GuvCzZ53mzvqxVr5XJXXrq2ETb9T140yg+eARnTcpXPvRKO+oIk279jqNGdTYDKxm3Q063fuAvm4miE27/lKd1T+yqZgJR8tmaG7VpSqZapb/1t0aM21FYycJOlEzVz2ss/7QeBNWX0zwMcofn6LiPaN1euWPtTAmPHnf0ehwdwvR0uoKPDdf/cfeprnTTOhJ2LwQANDREHwAoKN4425NXH6kSkrGqo+r3ql+a4WWPLVaG94r0+496dxfppcuXLhSU45+W3NHTfGvw+lWoJ75B3vP5vU+VgN72vF89TnuWPU068nrWagBPQ5WnnmdttykKQ9WatjU6zRlWF/lNVmo9+8htHBPLxX0LtSw4UU6feRQ9e+RoH6q9jXNnXC3yo8frXHjztHg8Idswt4Nd2vmHSu0Y3++jp+2UPeP6yvtWurub2R4IeQuzb3ixIQ1L9H3R8pTz2HXaXa4S+oENs8xwWeVm4jQrYf5jH2O1bBhJkyNOlF9IjqIAAB0fAQfAAAAAIFH5wYAAAAAAo/gAwAAACDwCD4AAAAAAo/gAwAAACDwCD4AAAAAAo/gAwAAACDwCD4AAAAAAo/gAwAAACDwCD4AAAAAAo/gAwAAACDwCD4AAAAAAo/gAwAAACDwCD4AAAAAAo/gAwAAACDwCD4AAAAAAo/gAwAAACDwCD4AAAAAAo/gAwAAACDwCD4AAAAAAo/gAwAAACDwCD4AAAAAAo/gAwAAACDwCD4AAAAAAo/gAwAAACDwCD4AAAAAAo/gAwAAACDwCD4AAAAAAo/gAwAAACDwCD4AAAAAAo/gAwAAACDwCD4AAAAAAo/gAwAAACDwCD4AAAAAAo/gAwAAACDwCD4AAAAAAo/gAwAAACDwCD4AAAAAAo/gAwAAACDwCD4AAAAAAo/gAwAAACDwCD4AAAAAAo/gAwAAACDwCD4AAAAAAo/gAwAAACDwCD4AAAAAAi9Uvf9AvRtPy0cV5W4MAAAAAFrX4b36uLGWaVbwOeKII9wUALS9Dz/8kP0Q0AHwWwTQ2ux+JlvBh6ZuAAAAAAKP4AMAAAAg8Ag+AAAAAAKP4AMAAAAg8Ag+AAAAAAKP4AMAAAAg8Ag+AAAAAAKP4AMAAAAg8Ag+AAAAAAKP4AMAAAAg8Ag+AAAAAAKP4AMAAAAg8Ag+AAAAQVS7VfeNHqGisZP02HtuXtpe0a1Dh2ro0FvNWKzwc5P05C43C+gECD5otldK7E4v/WHSst3unZHsTrlIo8dO1ZMfuFlRduvJ7/vvv3WjmwWgWRp/s4kKMsjIric1yfsuKfih4ypbdq+eqaxR9e7tevTi8O8/2dB6f8sN+56SbO55KvXsFUNVNGasxt7ygqrdXCAVgg/a13ubtKmyWpVVhRrQx80DEKEx/Dc5jL5Pr9e4t2VNxPqbVWhp6fa3dP3pq9nykMZe84wpTiWw8Va3nYRGdBLlj+nWR7a7iSxoCPt2uFYveDO366Fx4XnJTnA26tYt341lQe12vf6mVL3HrPPzfdXNzfY0/F7THzi52jUQfNByo+7Rxo0bkwwrdHl/97oEtv7mGVOsMTvD04frhFx/HoBm6t5TvfLceGfU2tu/5wXdOm6EV8gpuvghve6dIq7R6/PGaqopsOUNPFYDtjyqx97wXg10XtWv6NYrHjWxxBh+s0oTHp9jh8U6v7d9Q/hkQzjcvKBrbTDY4E2kJbZFyLWr/fnVK6ZGzY8dmgpOUd58RZtq/dFjjx3gjwBNIPig/ex/Rc+sNiWP3BN0xanbI84kRQ5j9dAO/+UvzLTTNCtBV9NT5/88USHFDSuv1kD3yoHfOcO8Oh3/UtV+N9rqWmP7m6G2TE/+8Fa9sMuvUqp+70lNH3+rXqnO07EDB2jrY0/q9bzhOntMvrbtKPNeA3RKNa/rvgtNaLFVl0efoTP+dKuKEh5fI4bvP+mdhPSFf7P36Axv+gzdY36rN48/X4sbfrvh5wbo8uXheRu1eHyWf8E2wI2boPvWlqnGhZyw19eW+s3bcs1nHOzNajT05oZt8oY5/taGP0vUc264eah7CQKN4IN2U7n653rB7rVqq9qwEAYESY1eWfCottrR3OEaP6rAm9u09bp15AgVXXKrntxcpuqsN49LV3O3P3Pbf3qtHrIXd5v13LzcFNrsqipf0LUX3qnXTzhbZx+2TdvLpRNmrNCCcX299wCdUt4JumjacPUdfLWW/uRm3fx44oJ+1PDz85s86RBdi5O4qVv45OQpxRHL/tlFbtnmt7cmYn6CITo4VerZG2fphV1leqZ4gkaMvVZPvuWu5NnzjB5d6Y93G/0tnUKLEaSJ4IOWW31txE4vdmissYmy/xU99IhX3PH1iTyTFDk0NpU7Y46dDlfFA6jeeKfutLWmxgnXXqPhh3ijTcvtpm55Nap+5wU9dM0EFRWN1fR5z2r7Pvd8c5nf9X0X36oX9rjpJjR7+5NJtv637tO1j/vns4cXz9IZvU/RzQ9ergG2sLTnWV37/Rd0ys8W6PyjvJcAnV7BJw9W2eb7NGFEouNy7NC6LSm2v/yCX5t0/BCdkNFvvEDfuvfXWnDZKSrwfqum3PCDIo2e+aSeXPCYf8JEA/T9807wxoB0EHzQLrY/dq9f2xNpf5nW3zNJE2a/Qu8sQFPKn9QVP3zBvxD/+B/q5tEZ1JYc9X39fM06rfrZD3X20d2kmt16ffmdmnTmCE0oeUZbmxWAqvXKPXfqmfde0K1jp+uZpsJPS7Y/oSTrt9353ug6LDDrueZ0dwl0n/P14J3fcgUqE34uuc9d85PY7nLX/C23iYuQ9q/XfTOfUVm71aIBWbC/WpUflKnCm3hB1w6bpLIpsScm/eGeUd6LNOCyFWY65uRk7et69hf+SYe+BRV69KoJGmv2M+HQNeLMCalPuuR208Dx92jVrxfo8qH+PqJy40N6aLXfBUnB6Et0dtzJ0AQdqsz066fC1ytFPRcx0MFB8BF80HKZdm6w60ndac++FhQoqqhT/oIeXLldZatu0b3riT5AUvvW69YrHtJ2r817gc6edEb0bykdpgBfcPS3dPXPSrVu+T26yCtU1Khs9X2a+v1Me4czoaNkvK51hZEB/3m1zu7hjSaWje2Pkmz9NSYMzdIzdnbuCfphsQk6drbTbegPtexOt+7yZzT9wjv1SpJdT+VHfhFQR/VVqoZw25c+qGc23qcJFz8mrhRCu7HXuDx/h87o3VOnXLZApRsaj8ulc85Q38GXa4F93r08SuWzmj6ySKMvfKihVuXsOXfolHWTEoaFcMcF2x8eG3OtkIkgyx/SM+43VfbiY3p2S5l272vcudTsK/NPunx7kp4sdzMTOXSgzp+zymx79G+4quxtbae4gAwQfND2en9bl489QWfPulxRFdRHX6I7LrTte6v1wh33iuwDJLDnBc26cJZ/4bKnUs9cNVZ3tuAHk9f7FF1iCxU/uVyn9B6oy+derRPS7V2tpkzPXNMYOgpG3aEHx6eIBtne/hTrr9l8r+5c5c8fcNkP9a0EYaybKSDOu8z1CGVrfhKGn916+00380t9k18LYd7/0BK/2Dfgm6Zw6Y0B7eRQ87ueOMAEkqkqctfH1Lia1rLND+ne56pU4P0xV6kq8m++YIAGDjpB55dcruHejL46ZXBPHeyNZ2DfC7o33J12bjcNGHW57vjZCpU2XOezTqWP/1DDbZKp3a6H7krSlXzYvvW6d/azUa+peesxTf32VD36TuQHSNChShqdG9iBDg6Cj+CDdtBNJ8yYp6sHx/fnP+Cia/QtuxOsNjvMn0ZcAwRA1bbN/thbtd4e+fNMQHnwHp1t739VW6lnZ31bU5eVqSUtrLoNOl/3LF+g89O8p1b1W0/qWtvj0mYXOk69WYtnDVe3JBcaZ3v7U6+/Rm+//IpfSDr6ct08NmlcUd/xC7T00hThx6znSXet4vCTklxP4PUad6det7VYBWfrmnHJ1we0jTz1POsOLXv0Ig2o9K+PGTHe1rTmaeBlS7Vg/Akq8Fp+7tZu80N5Zbat5bGdjQzQJT+Zp8tP7RsVdnqOe9C/3ibvBP1wZWNYiGrqFtlJwqFn6IfFZ2jA0Mu14NelWlx8voYf3VPdGq7zyVO3o76lW67w45Xe2up3v51A9Tvmt95wwsRs//TFWnytu/anZqseu2S8rl3Zsv0fugaCDzqWQ07RFVecob7DTUFlIv3yA56a3Vo/e4KKrnlGZbZg3eMM3WwDyvGn6OqfL9XVg+3ZghptfXiCxs5er+qYbl+zrabydT05c7SKfvCQXvGupTEFkUkLtKzkDL8gEivL25/e+vN0woxlumP0Kbr8pvPVN0kY8+Wp74UPmgKca0Rjw88P3dln251u+Bqh3hfp+8MTVIXVmNBz+STXa9wAE+iu1sCU6wPaSG21KsqqVRP191jjuobuqb79vBmqrDR/4TX2up7dqvJnxTPLqNz+tiprXtedP4xu0pZMwek3a/Gc8zXwUDcjgbL3Xdzplq+406Fm+7cunKpvX2J+696PsECnXL9YC8YN0IAx92jFzy/XQO8nWalXnn1FFa2870PnR/BByzWnV7cUupkd5dI7ztcJBWZvVlupyrhmJ0AXUVujsrX3aULRWM1a5V8xUnD6D7Vi+c06I9xsK6+vzp5jC/h+ob1y1SyNn/msHzCyreIFPXTVWBWNnq6HNnqlEOUddbbuWF6qBVMGRt853cr29me6/txuGn79PWnWYHXTKbPm6fKj/anho4uUv+tZ3Rq+H4opcJ39o0v8nuCibNdD35+gh96y55oLdMadD6ZdYwa0lpo927V+2a2aMLJIk+6wJxxMYLh2qdatvEPfMn+f2x+Z4NWwDjjOr8F8fYsJDfa2EpGdd5jfbzTze7K9L9rfwHsPNTQjbRYvZL2iJ0vMdrgeF3ue862Ge3ppf6VeX+lv/9TFW/2anLyBuujRZbpndGMj0ryjztcCuz8ZepEWPJDiBEfD53pbb9sTFOiyCD7okHYvcxdRDpuqJ91ppbxkOzQgkGr0+v1jNaHY9RDW4xRd/pNSrbrlW+oZW+ngFfCXad5Yv0BQuflO3bkynfOxGXrrBT25ZbdfCOlhrwFYodLHr9bw3rEbZLXC9me0/mbI7avzH5in80fb3t/y9MqCO/2usXML9C0Tzq4e5L8sjg1prlB289C4+AW0rdrX9dCFkzTr4Re83163o8/WHctW6J4xfZXXY7h++Pgq3XxqT9W8v1WVg8/2g8zaO3XfevPY33besVtPXmyPv7PcvXoidDtD11x7ivoOP1vdlo72jtPhzg2SWn9rxMlQN4ywzequ1UOrbfO0PPUdd49+PincyqNaL5SM1vR7/O33rg8ac4dWlC7QJcck+H3ZGuQ5l2hgqp/ecUP8z2k+22P2s8Vujx1KXvFeimAj+KDlMu3VLQ0Fn4tsH5+nnsN/qPNPcpNAl5CnEy69XMMPHaCzZy1W6Yp7dP6gVEd2e+3cAi248BSdcv1SLUhxTUtmCnTCN0/xe1IyBZC+J52vH/5sldattNcA9DRbmUy2tr+562+mbifo8uttz1F5Gj7hIg2whcYVq/TD2EBzSIFspXSThTKgreWeoOGjevq/lZ+XqvRnMScHTJA/o2SFlhZ/SwNMEJo193wNsH+6NuBP/rZ62iZw4UoV8/d9wvSLdIqbtApG36Old1ytbzdUz5hf+1Hn6/LRSfY5B7nHSHnd1LPnQA2f9EMtXlWqpdNPibg2sJvOmGR+e4cO1BmXmXWVlmrxtcPjT5hk4hD/cw48NOt7DHQyoer9B+rdeFo+qijXEUcc4aYAoO19+OGH7IfaWE11tSk8dGu3mtf2Xn9C+6tVbQqG3bpwWYrfIoDWZvczh/fKThtianwAAE3K69a+oaO915+QCWJdOfQAQGdD8AEAAAAQeAQfAAAAAIFH8AEAAAAQeAQfAAAAAIFH8AEAAAAQeAQfAAAAAIFH8AEAAAAQeAQfAAAAAIFH8AEAAAAQeAQfAAAAAIFH8AEAAAAQeAQfAAAAAIFH8AEAAAAQeAQfAAAAAIEXqt5/oN6Np+WjinI3BgAAAACt6/BefdxYyzQr+GRr5QDQHOyHgI6B3yKA1pbN/QxN3QAAAAAEHsEHAAAAQOARfAAAAAAEHsEHAAAAQOARfAAAAAAEHsEHAAAAQOARfAAAAAAEHsEHAAAAQOARfAAAAAAEHsEHAAAAQOARfAAAAAAEHsEHAAAAQOARfAAAAAAEXqh6/4F6N56WjyrKdXivPm4KANoe+yGgY+C3mEiFlk8ao/k73GQmiu7X+uIh2lxysq4vdfMy4d6vjTdp+PXS7Jdv02BtUsnXZ2iNe0lK/afrqcUT1NNNerxlmY2Jec7bRrn1xQq/J0MjZ7+q4qFuIkB2L5uo8+b3df8eyFQ29zMEn6yL3+El/CHH7BTiX5Pmchq41x+VZCeUzK6lmnLeNk2J+zFmuv5G/g98m5sywjviCNE79UJNe2qJxvV2k2mw71/Yb6UWju/l5oTF7OATrDte7Gctit85ed/TPDW+JMPv2f57LyyMP6DELtcJ6s4/W9gPdRbZ2h+io+K3mKGkx9z0eMfXF4vijyUJeMfZD+KDjJ3/4qn2N2Z/nzdIJfHH3+hjdOwxMf53HdZ/mjsuJzvmJeUvc/uUbP32k29jUrGhL4Pw1tQ+i+DTMtncz9DULavcD03mx/Pyq1pvh9lFWnP9ySrZ6F5ieT+mMlPYj3zNRC3f5Z5PdzkRdi+7IbMfuMeEhASF7uasP8z/cavxs718v0aWztDwkk3uFf5rri+1O1L/NU9Nk+afF/n5U/Pf7yai+KGn3Ox4I9c9ZVmFez6xzSXRn3V2Uamu//pN2uyeD39Pillu5GdKyR7oku08y7eZ77/xuwgPFPrQ+WVrfwjAV6ENL25T/9NHpBUmBhebY9WOUm0wvyV73Bz+9ZO9wR6O7O9w+NfN73PHNnP89ecP/3rj725wsf97fGpaoQkEhWooctrjmX2fPcka/l27360NSFPiTkb6ISp8HLbjUcdOb3np/N7t/iS8nZFD5LE6Ui+NWxyxfekMsSFt6G2JXxcxeN+P+dync8zuNAg+2bRrnV7cUahpJRE/HvPDsfuDNQuXarc3w/x4F5q9TtGljWdYvNeYnc9itzNIazkRzI6jOLKGJR22sJGs6jvT9TdwO+Vpd0WcPRqiYvvG0kfcjm2TFppt7T/t0oazHj3H36Vp/bfpxQ2pA0p4xxdVmxRh97JHzOeJ3PH6694x/5EkO0bDfHf2n2PklMbP6h0sVKoXXeEs2XJVujr5ch3vYJMwXPp2l5dFH1SAoMjW/hDojLxjrCuUe+OuoO4dD+zJtcbCu38iwJ64izwp4E83vM8bbFCROaaNiZnvhkmxx2dzrHq5sTbH1sbYwrr9DdoaivUvrzTHXtviIjzuvy4p+zm82iqzDM1oXF/DyYvEtRmDT208Dg+eNF39G8oDJggtNt9H5O8/AS8smc/+4ul2++3xObzNZniqUAsTfva2EF+eQcdH8Mmm3hO0MGInE9annz0jEFam7WbHNfLU6GZSdsfQUJBOazlhpuBQbGsj7m96pxXm7aRKvZ2gf7YiRkbrj+SfYYlrftanUI2bZnfEsa/xv5PUbOixO31bO2J3fPHK3zeBqGhU9A5o6KioEBN3dsn7rDE1LLt2qtyNWj3HLzE72OgduhdYosQetPzQY0OaPcDYA00idpvTPXsHdCrZ2h8CQWCbUXkFdVPwb6jlbypsRBTw7UEkvIy45bjnk/IL6OHAlLjGx40X2wDhn2S0r/VONO6Yp/PM+JTySxuOhbZG6KnTS735fuiJ/603GHqp+ZzuOGz2CyW2lYc9seGdeDSfcVKyZuP+dnjN9cxn9MoN3vG5r/qE1+WO4bOPMtvYxuEn/qRoUxoDb1OtZ9B6CD6tzq8F0VFH+oVb70dbqAEJT/GXqTxpdW/Mchy/iZv94fV1c9Iw1K++jb8+JpXE60/H7g2l2hG5o4qR3s4jXG2drH1shco/MMeFfom/h/JyV5uUpDAWyTsDZQ4wU5JWXSc6y+MHusgA5QemVM3WNulFcwCKPXvHDhHBla39IYD0+ccnezzy8lFEgIqd9pt7NTYTi3y+oczgnUD0Q5Ffi5T6mOodv6cUNdT0esfGYrkm5JEtRKI1NEOPbILmNQ+PN7jYhEjNU7HXpK4xuGU8pBueXEubkbMzuWanMaievja8zmRN9dBaCD6tbeMjXtV07BnNjCVcjl8Az+yH10zN/hz+NsbVxFiu+t/febZ/VXG4DbQ9GxbZ9K1ReGdqmwhmcpYniXDNku0owe0ME14DAQRFtvaHQGfjak2im7r5TdfSFl5Gw3KSiW4mFz6e2GPciyZIRDY/DTftLk5U4HdNwb312utyXODxm7v5tVU73o9t/RDLHTfXjoq6hmZziTmOmmNf0hOw4dqgyKayRvLm4b007PRCtz2pru9xtWyRx93IIfY6n4TMZyq2TfTub/b1uOFrqBqa6qV1nROygeDTmuxOwpaiW/Dj8CRZTnjH0aJlp6PZn8Pu8PyQMDtRD2iu5snuiE5/cUz6nQW0knANjW1DLBM+4jtFiNiZzjYvaemOylXRR/UOl9a1VEAnlK39IdAZhWtVMmrqFiOyZsZbTjLhGp7GZuE29BTrLhWfGtmZgR3MMfqoS7WwRCqOqX3wWj/YEbPe2f0e0ZQNI/xj1suXqtxrem6esx39NCzLDrHHRXfcPHW1/7wJWMttj3G2+VqKnlG9liIJrv3xmrQnaXnSs09f6YOdrX7s9GqibLP7THp2TSZcDjDf6Xbz79JUZ0xoOYJPa7EHeXtGxhzkM+r2OFay5Wy8ye8ZLRs/vFSa/Tls6HE7hya7b/SrwRs7QGhvQzRlWmHqThG8NsutcwG2dw3Ejm1R1xkBnVq29ocAMle+VMXvm3Bja1caTji6wWvLZtgCuFf74MKP+c0uNGWMae464D7jl/jv91pqhDsaiFiOGbxFJeuowK7XhrUd8zTfq0VKfYzzrn+Na7ruNw9PVmMcf+1tcsmaxTfFBsjrSwvVv39s768tlej6Z7QGgk9rSHWQ732k+mibtif8xcdcB5NiOZvX2j1HZM8wkWdf/B+j3xNKxJBpjUqq9adcdiahJ1t6qc9Ryavd+/RhZwK0i2ztD4GuLu2mbjH6mFDj/fZcs7PIY7ethQ3zah/8Y7at7dG0SzXMf8bjNQe39+Z5+X71sdemRhz3/UCQ/GSsV2Y4r1SnN9zqYpRetOvPpEOCjau9FiTJuo5OVRvUwPU2efqwzMsE9jP49+IxIXCxDXq2DEYTtc6G4JNtqQ7ynr4a0F9aszY6hHhBJvI6mCaW09A+tGGIbLfq77jiXpNkh5RQputveE0Toccu1+zsYq9h8c/UtKyg49WUxPYE1cSO0j97Fb/j8nagrh2xt8OO2zn7vVE196yRJ9W6E10TBXQ22dofAp1dNq7xSbupWyoRPcVFHr/N8aihmZVtUfLBdJXE1D54zcG9a2Bs7YQpc3zgd2ltm6759+9LdKLTv97I3nA8uhME1xxvyjbzvcTXnNjjefSJTFO2WGh7o01yPbDZ16TuIc4yy7DX5vQv0rCMyhp+YPR7l2v8jLYc5HW9n8F9CNH+CD5ZZX7gKQ/yVrhZ14zGwr/dyUT9YNNZTmtq/vob2r4mq+npPUH246+5PmJHZ3ZYtneUlnZw0HP8pd5Fmtc3nIUyn+P6FDtKK9xkzevC0/H+PRo7OPDuO2AOWn5vMT7v+qqWdnCQYN3havTUO2+gM8jW/hDo5GKbl8UMbXfNm20ZEXuNjxsia37s9jZ5kb/57Za4pmteIEjWs1sTTbi87ya+vNBzWFH0/X5cD2+xYczjTrCk6iGu8aSs2bfEdJiQkney1rzP3rA1wXdiw49/E3Y6JeosQtX7D9S78bR8VFGuw3txu8VEbKE12c015V3MGPHjNgf3yB2NvddLeOeX0XIauB+1/XFmEFb8ddmq28ZlNm/9RvjsrpuMFfkZbS1K5H428rmmmQLV12eofNrKBDtT/7mGG7PGFrq8bbTV7ZE76fAO0U16Z8RiduKxn82eeYvaCfrrVZLP4X1ee3CI23GmsW7EYT/U8WVrf4iOjd9iEjF/0+lq/NuPOZalI/K4FHPMst1ON+f6Ee93/GJR1LGr8bed4nhlP79tFpcgLCTmHwu3T4n47Ud+h3HHXCPiM6b6fI3bm6L8koBfTknvmBxeR7J9l/98dFkL6cvmfobgA6DTYT8EdAz8FpPwCu3KoKAbe/LMTj+iAemeCIsMGi4QqCEMZBKiogv6UcEnHEQShZBYkaElA2md9IhYdurXh08sZhZ4wt9X4pOryUV9V25eGMGnZQg+ALo09kNAx8BvEQlFBjE3K7UENT6AQ/AB0KWxHwI6Bn6LAFpbNvczdG4AAAAAIPAIPgAAAAACj+ADAAAAIPAIPgAAAAACj+ADAAAAIPAIPgAAAAACj+ADAAAAIPAIPgAAAAACj+ADAAAAIPAIPgAAAAACj+ADAAAAIPAIPgAAAAACj+ADAAAAIPAIPgAAAAACL1S9/0C9G0/LRxXlbgwAAAAAWtfhvfq4sZZpVvDp3bu3mwKAtrdr1y72Q0AHwG8RQGuz+5lsBR+augEAAAAIPIIPAAAAgMAj+AAAAAAIPIIPAAAAgMAj+AAAAAAIPIIPAAAAgMAj+AAAAAAIPIIPAAAAgMAj+AAAAAAIPIIPAAAAgMAj+AAAAAAIPIIPAAAAgMAj+AAAAKDDqFj6fQ256ElVuOlUXrltiIbc9oqbilShJy8aou8vTWcp6CoIPgAAAOgwyt/frgFnDFcvN53KKZOv0IDVpYqLPi8/qgd3nKGpE9JZCrqKUPX+A/VuPC0fVZSrd+/ebgrx7BmGsebH5iaNM+Zs0i1fdxNhL9+iITNfcBOJXpPmchq41/e7V5tuOsXNS8OuJ/X9c7dp6qZbFP2uTNffyJ6pGfvwdjdljIrfJnuG5prVbkIDdMXTP9f5GfxZ2fcv6LdCP4/bob2iW4Zco4ZvNsG648W8J9H2eN/Tg2r4VGktN4L99/5poVY8dn7cjjz6uzhD98b9WyDWrl272A91Nkn3NUaT+0N0VPwWO7GY311Tsvm7jD7uOf2vcMdIe0xeoMJU5YIMtz2MfUvnZPczh/fq46ZahuCTVS4sKPzjNdyPM+rH5s0rayxcx06nu5wIDWEjowJ5uMAfW9jOfP1h/nYo4rO4dURsl/+avg3rjH9PauHPOuCy2ODjr6usYX7sdCLJti/+M8QuN/I9KYVDU8NOvZG/84/4/r3vWYSfJlDY6mzcbyZRsG9yf4iOjN9ie4k/OdmkBMegDsP+7sMnB115I6GmPkOqEyzotLIZfGjqlk271qt0xwBd8eOIH+XXb9G9o6QXfhpuq2p2Vj81P+hRUxsP6t5rtuvBRa6iNq3lRDA/9FmRNSzpsDsWryCSQKbrb1Ch9S/YQHJHRIHlFN0y5wxp9QI9uctOv6JHvdByScNOqdeEO3RF/+0qXd9UO1y7ox/ihZ5EKpYu8ApWjdXa/rq3P/yoWWsSL5f6hbGIABPenvC/R7LlKlHVegwbooZE1hRFMv9uC1bbM1ARO2jve35B1yRsrwx0Qqn2NensDwEk0EvnP7ZJmzbFDE9foQHmWXuSMu65jhp6Yryy1u4t7EmSxm1fcZn5VPZkY8RnsCcOhwyJGbzjrTmGxs63A8dVGASfbOp9vn6+Kf4sZZ9+djcUVq5tO8xP+tTocxGnnBpRkE5rOWGm4PCjB6XL7jWFdTerKe5siq0x8XYmsTJafyR/RxxXu9K30NsR+0xoMDux6Nf430lq4bNbdmd4r9klxrNtgjWqqDFEWF8vMq99QaUvu2l7NmjI910IM0wha1PcmaFe6tvPjRq9Jvw87jUV5WVuLMye0R6iW8LrMcI1U/YAZENjnLJtZgd9hopiatC87/n9MvOJgU6uqX1NOvtDAF2Hd0JwgAb0jzhuG97xPcYpN0WEuvDgBb/o0NQwpN0aBkFG8Gl1fi2I+vX1z1LsKlOZ+VkW9vWejGGeCxfI48Qsx6lYOssLA1MnZFAF6BX2EwSUlBKvPx0V60tNAb+v+sYEqbD4GpVEwme3klVfV6jsfWlAv8TfQ1m5ixFJQl20V1S6OvmyEtVahQNdZDNAPzA1sz3xjm2mSAh0ck3ta5q9PwTQMn4LirhakVRDmr2spcNrDRG5bNe0bf0ieyL3Dk3tF3HcTnB8j3t/eEhV42MGengDwae1eb2KxJ/RzFjC5fgF8KimUq2l2Z/D38a4mhjLawLjN12LDhHtyw9iA1Q0PLawFj5Q+NcqtLinGK8mLPqslpXozBYAANmTpKlckiFxjW0L2aZrket57Hydf5N/osTW+m5/Yb0LWn7NcN8+jcfc8InFuBqehNO2wyJ/OrMTvggigk9rss2q7FkM8+Nu1ln/sCTLeeU2/wL7Fi07Hc3+HDYouAuaE1Uxu7PBmzatUNELYztG+1sTxvwgFnmdUljEgWKOdE1kk7nm6D1cRf2lF2be0tikx6w/rqcbAADaTaIWH37z7tgalZRDJjVGtpn6jlKtt8dYdy1ubLNwj3ccfUELktTkeC1OIq8hRJdH8GktNizYKld7RqMl7UqTLccrICcJFNnU7M8ReU1OUzVSJlD8Z2QHCO0k4nqEJs8Kff2SqA4QmscGqRVmORHV8muLWufMGgAAzeF1eBTb4sNv3u2fvExzyKhzhVN0yWXyjrFeZwdRrUYim+n5Pdttf3isPx3T1M3rDGn1Ne61Zshicz10TgSf1pAqLPTuq77mZ7kt9tp4T8x1MCmW4/d6EtmO1XVr6f3A/RqEuB5PMq1RSbX+lMvOJPRki98hwfb3E18ZE1lFnlAmoSerYpobmO/Za+rWv1DZ6bgR6MAy2R8CaBevLDLlgP5X6JLWbl1ij8MRZYleE6bqDFOmuWb1AF0xObIkkVkzvaihk/Rsh9ZD8Mm2JmtI+qjQNm9aGx1C4s5oNLGc+N5MbM2BecK+3oWNuNck3J4kMl1/w2uaCD12uSYoRfZ+Zvm9pLWsoOP1hhbbE1SqKvKwJkKPF/LizhL5bY6Td4CQhoTfhetYIc07VgOdW5r7QwDtwnYi4AWPyNtbtLnEZYOkHRwkGWI7Noh8f2yZBMFF8MmqV3RLytBjhZt1XdP4Q/OarUWe0UhnOa2p+et/5bYmanp6n6+p9n5Akde1mABg70PU0g4OvLNDthas4YyR+RxeoEmxXBs+mqjpOWXyFRqw40HNithpetdXmbW1qIOD8DU+EfdGyspygU4jnf0hgPZgT/r5t2RopZsJx9y2Ifo2EfYaIv/G4SsuK9M1riVLHHtD08iTsAkHd2I4klfusDdSt8/fK0WWSRBooer9B+rdeFo+qijnLs1J2LMHXnvShGLCgKtlCLP3egl3HJDRchq4mpZ+mYUVf132x9+4zOat37AhwgYmNxkr8jPaHWrkRfyRzzWtcYcYH1b85xq+2djw5m1jqYrcXeFjtyNK5B2iYz9b3N2j/fUqyefw1vN+ojtOh2vI3GRTd6WGh7vFdz6J9jUNUuwP0bHxW2wPMce5jKQ4hltRx7omXtsSScoL3m/f/M/uD+LLDNHb4+1TXihK45jpH2dLz4goM3jr36ap3vLs92nKBa31WdFidj9zeK/sXABA8AHQ6VDYAjoGfoudXczJN6/r51aq4UlD8pOE8UEn9UnaeLEtOyLfz8mWjo3gA6BLo7AFdAz8FgG0tmwGH67xAQAAABB4BB8AAAAAgUfwAQAAABB4BB8AAAAAgUfwAQAAABB4BB8AAAAAgUfwAQAAABB4BB8AAAAAgUfwAQAAABB4BB8AAAAAgUfwAQAAABB4BB8AAAAAgUfwAQAAABB4BB8AAAAAgUfwAQAAABB4oer9B+rdeFo+qih3YwAAAADQug7v1ceNtUyzgk+2Vg4AzcF+COgY+C0CaG3Z3M/Q1A0AAABA4BF8AAAAAAQewQcAAABA4BF8AAAAAAQewQcAAABA4BF8AAAAAAQewQcAAABA4BF8AAAAAAQewQcAAABA4BF8AAAAAAQewQcAAABA4BF8AAAAAAQewQcAAABA4IWq9x+od+Np+aiiXIf36uOmAKDtsR8COgZ+iwG18SYNv77UTfj6T1upEt2g8+Zvc3Oi2ecXju/lpqTNJScrZhEpRb1/11JNOW+edvhTDcKvSbzsQk17aonG9XaT3jJKdXrkvAabVPL1GdLsV1U81M1Ch5XN/Qw1PllXoeWTTtbwrzcOJRvdU5HsTiXla9JcTgP3+pJNbjpNdsfw9Zu02U02ynT9jXYvmxj1vkTbZHdaja+ZqOW73BNpsu+fsqzCTUWyO7OIZWf6fdh/l0lLtdtNNopZbsLXpJDucpvxXQCdS8y+JdPfEoC20X+6nnr5Va1/+X6NNKHi9GEulBTdb+bZ+Y3D7CL/qTgJXptoSPz+Is1O8RobghqW8dR09Xfzo/VVn7jQY2xcrTVm+acTerocgk9W2QP6GM1XeGdhBvNLXXN9TGjwzqSUadpTka+JLPCmuZwIu5fdoPmxp0aaZArdCc6oNGf9YTb0nDdfjZ/N7jBLZ0QFEPua60sbd2hPTZPmn5d+gd9/v5uI4p/BKW/YGfrrThyQErAhMOGC7fcxQ2saduArNU3zdF66Bbaky/W3t3G5mX8XQOfi9i1HxfyWMj1BAaDt2JDQv0jDEgWIVlWq6yNODMYeRnfMH9N4AiVRWaZ8m3b0L1SieoLNa0tNcLpUg824d7KWEzBdBsEnm3at04s7CjWtZIJ6ulkaept3lmLNwvCPyhz4F5pfb9GljVWv3mu2af5id/BPazkRTMG6OEnVc1JejZMpdLvJKJmuv0GFNry4zexM7oqoVh6iYvvG0kdcYX6TFpptDe9wrJ7j79K0/tv04oamAootNJ2ctJp997JHvDM4Uxqq2v1175j/SIIarWjeji9hCDQ2PmJCpfk+Jg1xM3ppXMl09d9Rqg1NBJTUy/XPOM0uDi+38bto+FsAgiTZb6lh/wCgo/FCwukjGssD9mRmRCCxQ+KTkS3V3Bofv6zgNdXbMU/nuW1sOAlqykwLSxtrsLzjruapON2TpOjUCD7Z1HuCFr4c35a0T79CN2aVabspBY88tbGwaw0+1YaD1X4BPa3lhJkfePE8adr9psDsZjXFq3GyZztW6qlpCZaZ0fojmULM4lej2vh6+hRG7JBMGDE7qejX+N9Jau5M8Q67I7TV7vHK3zeBqGhUQ6DyDB1lXluqF8M1VV7TvugaFRtObJgaOTtFdX2T/CZrkTViTS7XhMn1L98Wvb3mO+xzlBsFAmZ3eZkprcScOe49QqendeIDQNvbpBcjQoInk6ZuCUJSoiFxcGpujY9fFrHbFA5Hkdu3e0OpdkSefLavn5LeSVJ0fgSfVufXguioI/2zJbt2qlyFGpDwGq0ylSc96xmzHMdv4mZrOfq6OWnwCtwJAkpKidefDm8nk6ydrRFfU5OIvyOLDwphFSr/wOzk+iX+HsrLXaEqQajrOX6J930kvcBx6KUxtTB+2NwRVYDzA13kMppcbkL2IJP8cwCdmXdyIsk+ZMf7JhQB6GCGaIptgt3cVghZvMbHDuFyy+Di6Pnx1/j4ZYI+faJPsja0GokNZF6qKtVCan0Cj+DT2rymHfE1PBlLuBy/2djI2cnCQBY1+3P42xhXE2N5ze38nVBk07eOx509UnhH6a5RWBzRFDBL/BAYc3YNAIAMeM2sIwv2aQ6JrontOf5SjYxsjtpmTd0cV1ZINiS+9ti2JAmfZA6HoCHuBGqSwaQvan2Cj+DTmsIXtRfd37LuEpMsZ3OJf2F8i5adjmZ/Dts8zV5HFH0dSwNX82QvcD79xTGZ98DWVrzmcSdrYb/G9sR+CErUG14LmJ27HwIjr5ECACAz4RYHmQ6JW4L01YD+27S93E26Whyvqbwbt4Pt6jrtzoQy4ZUV/Cbutul47LoTlku81jXhliaRISiFhM3PETQEn9ZiC8u2zan9YSYq9Kcr2XJMIdnrGa0ly05Hsz9H5DU5Te1I/Pa1jR0gdCybF9tmbdNVEnFAGFxsd8JZrBaPuO4qsyaIAAC0psTXnvYcVqT+7tpk/5rWvjp9mP9cgxZd4xMrjfASFtmjW2QISll7lOWTmeiQCD6tIVVY6H2k+SFGnDmJEnMdTIrl2F5WbHvUxgv/bMiwsxprIqLvlWOGTGtUUq0/5bIzCT3Z4u+Yk10nEN3OtxnirkuwZ8CydF0CoQddhNdBygc7E/YMyXVtQEfld3AQFzp6T9CUIr8cct6LRXrKHO/H9Y45htnyg6sRSjUk7RzBK0/YcoZtPbJN88/zyxxR1+kkKNt4Ham4nlf9zgwimts33J8oYki+AQgYgk+2NVlD4heY16yN/qF6QSbyh9nEcuIu7LP3w7BX9nk7GT9sxL0m4fYkken6G17TROixyzU7qtg2ud5OKjb4ZcgrVIV7xgvL1k3KWquwRuhBF9Kzj/m9xHYD77rP57o2oOPZ4J3ktM3qI3tBazR4ku1UIOb2F1kV7tjItrIw63H3CIxqZpegjOI19XuqSC+aoOTdW7ChC310dQSfrHI3BE0aeqxws64ZjYV/r9la5L0t0llOa2r++jeXNFHT450hMsHv+ogqZROG7H2IWtrBgXcBpq0Fazj7Yz6HFypatlxvx74juo//8OdM3RNdE2wIJPSgKwn3kFgccV8z20NikkIVgPY1LHySM1lZwBzTS7wbb7dyM7Hm3ETVa2FjRe5z0NURfLLI75HLSNimNWKnYC+gm11kCv/uOVP4HTm7sYvltJfTSpq9flOQt/dmNW+M6ns/PISDnq0tmu2qx73nTMjqMzvT7rUTsV1K36+RDdvtd/4QtVyvxin6Pj5N8rrAvl99Iu4Z4F1fFRXu4u/j0xTv2iHzGHUvgvDAXaQRSPbs7UrvZoH+TQXHaL6m66l2OcEDoHlWe8c7/3g1URuGLXHH9ATlg4TliPjBFINS8E9ijpySSa2SPSbPUHn4Pj5HRZy8jLipacOQegMQIKHq/Qfq3XhaPqoo1+G90r26DACyj/0Q0DHwWwwo2wx7YaGearhtgx8kvJOihu1dLbY3Na+Dg/cvbagdstcCX6/0Wo7Y19qeUxtOVNqTlOdt05SXb1Mfs9xi3RV1ErNhXaeubgwt9todb3vttj6iAU/F34g9/nM5XrNzteF1ychENvczBB8AnQ77IaBj4LcIoLVlcz9DUzcAAAAAgUfwAQAAABB4BB8AAAAAgUfwAQAAABB4BB8AAAAAgUfwAQAAABB4BB8AAAAAgUfwAQAAABB4BB8AAAAAgUfwAQAAABB4BB8AAAAAgUfwAQAAABB4BB8AAAAAgUfwAQAAABB4BB8AAAAAgReq3n+g3o2n5aOKcjcGAAAAAK3r8F593FjLZBx8AAAAAKCzoakbAAAAgMAj+AAAAAAIPIIPAAAAgMAj+AAAAAAIPIIPAAAAgMAj+AAAAAAIPIIPAAAAgMAj+AAAAAAIPIIPAAAAgMAj+AAAAAAIPIIPAAAAgMAj+AAAAAAIPIIPAAAAgMAj+AAAAAAIPIIPAAAAgMAj+AAAAAAIPIIPAAAAgMAj+AAAAAAIPIIPAAAAgMAj+AAAAAAIPIIPAAAAgMAj+AAAAAAIPIIPAAAAgMAj+AAAAAAIPIIPAAAAgMAj+AAAAAAIPIIPAAAAgMAj+AAAAAAIPIIPAAAAgMAj+AAAAAAIPIIPAAAAgMAj+AAAAAAIPIIPAAAAgMAj+AAAAAAIPIIPAAAAgMAj+AAAAAAIPIIPAAAAgMAj+AAAAAAIPIIPAAAAgMALVe8/UO/GAQAdyNNbQ/rZGyG99mFI/6p1M9GuDs6VTjyiXhcfX69zB3L4BIDOhOADAB3QrDU5mrc55KbQEU0fXK87Rta5KQBAR0dTNwDoYGxND6Gn47P/RvbfCgDQORB8AKCDsc3b0DnwbwUAnQfBBwA6GHtNDzoH/q0AoPMg+ABAB0NHBp0H/1YA0HkQfAAAAAAEHsEHAAAAQOARfAAAAAAEHsEHAAAAQOARfAAAAAAEHsEHAAAAQOARfAAAAAAEHsEHALqS70n1t/vDQjcrmxZe6S/7r5PdjBgv3WiGIdI15vlkr0nIbrd57zVusinh9TTJvOavrfRdAAA6FoIPAHQh735ZutaEgtAb0tmZBI80TXnALNss32SJhoAVGUBOe1c69STp3kXS7qPSDBw2nBzvxtNhXm9f/vwmfzKVd8+UDnPjAIBgI/gAQADZGo/WrNlpig02NgDZQaea7bjSn6//kv7wOT8Mbfpz0+HL1gzVZxpOPm9eX2W2wU0m5Gq+vuQmAQDBR/ABgICxzc1O/YT0MxM6rv1Aujii1uXL70r32EB0vPSMCSdt4TSzvtADbsL4stmu0zb5tUOfSbENNvTcc5QJSm+Yz2JCUroWfsG8509uIhEbeszn/5v5buz3AwDoGgg+ABAgNixc/Dlp7fMmWJhpr+bFBIdTz3Th578aa2Ls81ljm6PZQGWWm+51OE0J1xp92WxzJoaYz78p1Xvcd5AqdAEAgofgAwBB8b3GGhJbo9LAFvRd+HnXvKa13G7CxM+qXI2SGZrqvMDrCCHcBC5bTADr+bH5DtwkAABhBB8ACAJb4+KabyWsIbHh53kTCsxrEoafcI1NJkNkaDFBy15TE+7cwA7P5PuvS9i7mtkGr2Zqi5vOkmuONv+paOL6HgBAlxSq3n+g3o0DADqAbrfnurH0vWsCRk8TeppsvmUDzpnmMZ3XtpaIa2zS3QZbO3SxCVLXms+ZKtTYTh20NqbGK4XwdUT2eqjmNv2rvrHWjQEAOjJqfACgk7OF9y/9Oc0QYQLBZ543j6awn9F9dLLE66Utw9CTiZ6fkHamGXoAAF0LwQcAOjmvE4CIXtOaZMPPjf59dNoy/NjamPA1SK1S2/Q9PwBmtdMGAEBgEHwAoIuy3Urb8JPwGpwsCt9T6FQzbm+emmkvbelqshtrAECXRvABgC4sfE+dbIu8gWo48ISauD6npY7MN0Huf90EAAAx6NwAADqY5nRu0BGEOwrw/DnD5nedGJ0bAEDnQPABgA6mswafrorgAwCdA03dAAAAAAQewQcAAABA4BF8AAAAAAQewQcAAABA4BF8AAAAAAQewQcAAABA4BF8AAAAAAQewQcAAABA4BF8AKCDOZj7l3Ya/FsBQOdB8AGADubEI+rdGDo6/q0AoPMg+ABAB3Px8RSmOwv+rQCg8yD4AEAHc+7Aek0fTIG6o7P/RvbfCgDQOYSq9x9grw0AHdDTW0P62RshvfZhSP+qdTPRruw1PbZ5m63pIfQAQOdC8AEAAAAQeDR1AwAAABB4BB8AAAAAgUfwAQBkrHR5rk5YF5LeyVW3+Tkqc/MBAOioCD4AgOT+nKMTbs/V5HfctFN0ar20MUelx9TpDoV0W8zz2WaDVuYBK0eTzbZ7AQ0A0OXRuQEAICkbOM7eIT1zY62K3Lww+9ysHnV6vUeOum2tV/W4es0z4WTWXveCDBQONcsZkfxw5G1HZb22TqtTXzevaTb4hPRmE8sGAHQNBB8ACBLb9GylG0/THVNrNf1zbiKSre1ZENI2N5nMuWNqtegYN5Ept46Lkm2DQ/ABALQUwQcAgsQFn0Q1NHFSho6QX3ujFGHDrStpcGrgBxDFBSS3jgJbW1TnzSlbl6uBG73RtCWvLSL4AAAacY0PACBO6XK/ydozKWpYyvb4j4UpQ09yZevcOlzoiWSDW3WTQ53u6O7ekMK2jTnqdjudMABAV0fwAQBEsbUu9roeW5OTvNYopFV/MA/965uuWXK+0sONGOGandTryA5bI+QFpXOks20AosMDAOiSCD4AgAb2WppwIEnZfO3PIT22Vzp3YHxtTZw/S2+6USsy9KRuIteUkP7HbMNxPdJsxva5Or3uaovu2ONqgZZzGASAroI9PgDA09CBgAkGTQWS0rUhbeter5vS6dRgj99Bgtck7h0/9NimbC0LPYYLVJE1SekqGucHoK09Ql4AKnXzAQDBRfABAHi8MJBOr2kmvNimcOcOT6+HNe9aIBOSCu3EMX7gSNa8re+I1M9HKtsaEaiaKZP1AQA6N4IPACADOZpsu8vuX59mF9Y5um2jCSdfqs+gG+p0uOUOrSO0AADSQvABAKTHdn99e0hPd6/X1gQ9sSVSts683jzekdXupG032P52PEM31QCANBF8AABNstf/dLM3M+1fn15zOKNVem6z9w66vemutgEAiMUNTAEgSNxNRTORtHc1d4NTex2NldZNUa2I97W85zbLvxGprTmyzo27EWoy3MAUANCI4AMAiGGbkvm1KumHDMeFHrU4bDRug2Wv5cl8eQQfAEAjgg8AAACAwOMaHwAAAACBR/ABAAAAEHgEHwAAAACBR/ABAAAAEHgEHwAAAACBR/ABAAAAEHgEHwAAAACBR/ABAAAAEHgEHwAAAACBR/ABAAAAEHgEHwAAAACBR/ABAAAAEHgEHwAAAACBR/ABAAAAEHgEHwAAAACBR/ABAAAAEHgEHwAAAACBR/ABAAAAEHgEHwAAAACBR/ABAAAAEHgEHwAAAACBR/ABAAAAEHgEHwAAAACBR/ABAAAAEHgEHwAAAACBR/ABAAAAEHgEHwAAAACBR/ABAAAAEHgEHwAAAACBR/ABAAAAEHgEHwAAAACBR/ABAAAAEHgEHwAAAACBR/ABAAAAEHgEHwAAAACBR/ABAAAAEHgEHwAAAACBR/ABAAAAEHgEHwAAAACBR/ABAAAAEHgEHwAAAACBR/ABAAAAEHgEHwAAAACBR/ABAAAAEHgEHwAAAACBR/ABAAAAEHgEHwAAAACBR/ABAAAAEHDS/wfzZJWijqqY4QAAAABJRU5ErkJggg==;" parent="1" vertex="1">
          <mxGeometry x="-389" y="-434" width="576" height="585.72" as="geometry" />
        </mxCell>
        <mxCell id="o2X0s68jg5Q_wTkpl9aG-5" value="" style="shape=image;verticalLabelPosition=bottom;labelBackgroundColor=default;verticalAlign=top;aspect=fixed;imageAspect=0;image=data:image/png,iVBORw0KGgoAAAANSUhEUgAAA5AAAAM1CAYAAAAGnR55AAAAAXNSR0IArs4c6QAAAARnQU1BAACxjwv8YQUAAAAJcEhZcwAADsMAAA7DAcdvqGQAAMctSURBVHhe7N0JnE/1/sfxz8xIhBSlaEElaVMi4qZLusRNaVMp3UobJW3chAot0iI32qR/iZJK6VJKlC7pVtrDVdFmKyIjsszvf97fcw6/+c1vxjFm+c3M6/no9DvLb5/jd877fLe0zPWbYwYAAAAAwHakB7cAAAAAAOSJAAkAAAAAiIQACQAAAACIhAAJAAAAAIiEAAkAAAAAiIQACQAAAACIhAAJAAAAAIiEAAkAAAAAiIQACQAAAACIhAAJAAAAAIiEAAkAAAAAiIQACQAAAACIhAAJAAAAAIiEAAkAAAAAiIQACQAAAACIhAAJAAAAAIiEAAkAAAAAiCQtc/3mWDAPAACAgrZ+qvVvN9S+rFHFqux/lB1Zs5bVa9XOOjSpY+WDuwBASUGABJB6Zg2wk/pMDRYC9Xra8091sZrBIoCSaem4rnbeyAXBkq9e94k26oJawVLxSvb+2gz5wPq3CBbyYeO0f9opt88IlgJtH7R3+zcPFgCg5CBAAkg9RRwgC+OEsbThO9oBSfbfwvyu5gxqaon/XApNRn27aOQI63ZElWDFjivMAJnzu6hv3Z9/xjrvHyxGUPD7+kqb2L29Dfs8WAy0HPSeDWpF+SOAkocACSDpCdPOqW7Neo+0IR3rBMs7qIwFyJT7/pMo7u+o4G20VfPfsOcfe8q+bznKhnSqHqzfniU2/pJONnJhsCiJ+2ZpDpCS0dGGvHurNQsWd1SyfalUB8iFj9p5lzxlS4NFJ6OVDXrjHmtZMVguACXhdwRA6UAnOgAKwUqbc+9DNnlNsIgixvefaOOqBTb5Xz3svJtetFVuTXlbPHm4jf9wic0ZP8EWbnErEUXL5tYomMX2zZ30YvbwKFtmWP9TmtpJf9mxadDM4PFFgt8RAMkRIAEUjqNb2AlVg3kUvTLx/W+0pTOGWvcz2/gn2Ce1sa7XD7eZP20Mtsf57Cm7d/xHtnTOaHsmqErYqOPZfqnhT0/ZMzOTPAZJtWnXio5fovpprI2cuDZYKAAZwW1R4XccQBIESACF4ohTWlm1YB5Fr/R//2ttzr1n2Hn9X7SvVgQn6FvW2vcfjrX+551h/aet9NcFyrc82zpV1txKmzhhhhc9PfXOsc5Ha8Zs5oRJQclkydOs/wf27n8KfnprUKvgFeLsf4mdl9+6q2XOWps2crjF13beOVWsSv6bnuYLv+MAkiFAArCaFzyT9AQy0vTWPdYyx1Xxo+yUFlHblIHvf8dlzhxqgyZlD4nbrLSZt19kfSYtDpY9GY2tw9lBG7sZY23yCs1Utw7nBCHp87H2csGd6acktQ/MXiWyq43/KdiYaMsCe+axhF5DPUd0PsfqFXUpWAmlffTBAq1yWstq5pHm+B0BUFQIkAB2ysJnhtvMxPZjrbpYhxrBfEHZstE20k4thyL7/lPJT2OtV/+plhksJqf2W92zlUTW69jFjnBzX9j4SX5nI65kcv/61qb7zXbKDnS0UhLVPrh+MLd934+708YkhstqZ1uPjtkDhTpuyR5Ktz8l6+hl4chOSe+bbOo2bknwqBSWOcMevCvnPlrvyvHJA1zi9O491iZ4zDa1rHoh5bky+TsCIN8IkADyb8UkG5njZK6WXdSlENpIffeodW3tt3GbOHcxYVKK8vtPFVsW2/jbh+fo9KbetePtmd7NE6rb+SWRg2YFVVxrdLTz2taxRp1vtUFn1vXXZTS2Xs8/Y/0vaG61C7BHzBLt+7E2aFRiyKtubfpcZUdQ+rh92kd7/dOmJabHw3p6+1nEHk2/+sjmBLNbVa5uNQtjHy2LvyMAdgoBEkA+rbVpw+60uYlBruVVdt5hwXxBC9q4DevZ2U45pZNd/69JtnBVWe38pBi+/xTw/fgBNnJ+sBBqdKvd27mO1e74oA3rnljKttKm9ekchMjy1rL/eHvw2o5WrxqnxkllzrZB1+YM6NXa9rPrWxRxA7wSaa3Nuat7zn00o7H1vquL1Y4YwBe+PztnCfuh9QthGKOy+TsCYOcQIAHkS9L2PRn1rXv3tub6KilsG5fY3PF3WreOJ1qHbgNs4tyVfscoKeT7cT2s27+8E8HEk7MCUOzffwHZoe/o+6dsUGL1R52Y9+u4teSx9gUjbEjbxHp+Xojs282GzS3A3jBLoFUrtlP105WcXW/TEnsTOqynDevbvETtV8VDHTt1tj5TE9vmVrc2d92zA9VBvd+2OTn/VrWbHF3gHdqUlt8RAEWLAAlgx32fvA1avSsH7tCA3TukfBWrnMvV+8z5U21Yz/Z2ypk9bOSMFKne6sLOR7Zw/PXW4ZzrbeJ3BRhvi+P7Lww78h1tWWCj+jyao0fLRjcOTDgxr2LN+o607omlJ144mnh9DxtTkH+HEmbt2rwCdC4lZ9Xa2pBhuZec5afjludzlBJ7+273iUnvm2wadUHQGVIq2bLWZio85ujYyQuPQ8Zb/x0pvV04ySbm6NCpijVqWMAD+peW3xEARY4ACWDH5FLFzbXv6VzAJzjxWg20yW9NsVG3dLFG++dS/XDFRza+f2c7pUNXGzZ5QaGU/EXivqO4sLNitg3rerL1n1YAJWDF9f0XtB38jhaO+mfOTl28z9w7oVMXJ6OOdR72oLVJLK5RCL2km43/PljOl8X2/XfBbEHZ8oWN7Hln8vErC8xGy1wfzG5Vx2qqTuSWlTbN+3eTo+SsWivrP2qgNaMoKm8bF9v4a9tb/yThseXtY3YsPHrmTnrRlgbzW1Vuay39HqAKRmn5HQFQLAiQAKLLrYrbDrbvybfy1a1eh5724PPv2eSnbrXOjXLpkjBzgU28u6t1OEclkkuKtmpr5hc2Ktl3VK2jnddqJ9uQFff3X1B29Dv6fKj1HpNQpU/V7G7vknubsMrNXfhpmSREjuzaNf8hcsuf9mfiSXfNvbyokH+rJj9q4+dOsv5dzrA+477I2fatQCyyxcmGKdHf4tozbNCMZOHxHmtTRL1wVqm8azCXiupYnVxK5DZ+96L1Obuzjfw84Vcmo451Gj7eBrXZwT1jxSQbMynnRZTK7dpZo4L6911afkcAFBsCJIBoVEUrWRW3HW7fUzAq1+to3YdPsbeevyf3IOlKJDtZh/P+aeM/L4L2bxsX25he3WxMjg40vLDzr5t3rgfLFPv+821Hv6MtX9iwfi/mGOS/XrcI1exqtLVB/+qZc9xChcj8lkT+tDjnwPB7VMl/b5WZM2zEyI/8+S0rbc7Ibtbp+kk5Pu9OW7/Yvk8s1qpXy1aO6mNjEsNP7bPtwXFFFx6lWmGNT5EPOduK7mrlk/3b3fiRjbxpqM1J/GPVaG69nhpjvRrt6AWjjTbnseE5O7SxWtapw1HB/E4qLb8jAIoVARLA9qmK2+2drX+OziFkpc2dONW+L6amZeX3b+WCpEokOx2U/DR+408zbGT3HjY+R72wApT5kQ27pLONynFiFrQpqh0s5EcKf/87JB/f0Vf/6mMTc6THq6IPh1C7iw27q6NVSwwAG7/IX4j8fpElPqRe7fxW+fMCw8ihOYZ7OLJViwLvLMXmzrIcY9o3ONo69creXrRam4E28ZmbrVEhVlvNGdBqWc2UyY8rbfF3SS42JQuQ5Rtbr2eyV5Wu1uJme+b5B3P9LcrLxjlDbcjUJK/dqqd1rRfM74zS8jsCoNgRIAHkbctim9znopxV3OKs8k58up53p81cE6woBiqR7PXM2/b8oLOtdpJzt3rdvYBS8H3gO64a2wU9bGKSMFLvolE2LGrYSaaEfP/bk5/vaOOcO63fi4mfu5Zd1OeSHapmV7nFrTbmrrY5Q5lC5LXX2+QdCJFfzZ0dzG1zaO38deqSOWuwDUlsN7f/Jda9Q8Gnqblzcr7vlo0au6qWrr3o/nWs011TbOLt3ve0A9/tjltg789JDEn1rc7OXGApSFsW2NzPgvlQRn2rndtvR1BVus1hza37yGk2cUjy35/typxtQ+5KUvKskvkrC2A8xlLyOwIgNRAgAeRujTo26Wz3zsn9pGOrFZOsf6duNuqrIqgqmqvyVrPVzfbMGxOtd1zbo2ptH9y5EJerjbZ08gDrfEmSamyeahqX8Mqj8t8dfon7/pPJ53e03vvsSU6oq5090LrlY3y6yi0G2rBrj8p5Ir5qtt177T9t2opgOS9bPrK33kj8fltZo4bB7I5QD5h9pyZ8vurWodelOavc7qz1M2xijnZ1ja1Zo+DbUAh6frz1alkExYALZ9i0xM6Q6h1lRxTGAPn5sHHmJJuWWIW0RWNrFMwmVaOtFyIftM5H57ONc25tgj0F0iNqqfgdAZBKCJAAksr86lHr3un6pCVG1Zr1tN4X5eyKXyU6Y67sbP2nRThRKUzla1mH26fY5JGXWKNGhTSG3ZovbHyfM+y8u70QkKPNkpqRjbAxvfP/uiX6+w/l+zvaaHNHDrbJOdOjDfZCYH7V7jzKRiUZQsJWzbBB3QZst+Rl48wXbWJiDzeNmlujHQ0/K6Za/1wG6+/ebKfLmnJY+Mxwm5n4/bc6204p8Hqy27PWpj31VI4eRmt6Aa2gKgc065847Mcz0QPYlgX2zGMzgoVtWrYugBLA3Kha95VJ2gRLAfSIWip+RwCkHAIkgARr7atx19tFVz5lXyVpD1Ot1UB7ckgX63DlMzbx9lZJ2mqttJm3t7dujxVWb5LRVT76KntweEH3KrjRls6407p27GYjZyU7wapuzW4cb6N6Nc5neCwN3//OfkflrVG3mxOG4ahuHfpet3MdEXlqXzDChrRNUtK2ygt1Fw2wObl9abmFi47tdqi9oqvKq7CaGI73v8TuLYwLHd8/ZUMSe7D1vstO5xRiKMpF5rQ7bVCOhphHWeeOSUJMkdM4mNfnHCqmclvr0KJwvqnMr8bmWq17e+Nvbl/p+R0HkHoIkAC2WfOFjere3rqPnJ20F0i1VRszaFsbqWpt7rExj12StMrdwjHd7KL+yUueSqrMz70TvjNPtPP6T7Lvk32u8kfZRY+NtyGd6uTv5LwUfP8F9h1VbWX9x42wTkHbuGod+1mvAimdq2LN+o6x/q2Sh8g+FyQPkUnHoax8tnVqFfE9bfFP6Dt3TVKVt1pz6z3kqoKvuvr9WOt+SdxYm6GW11m3o4P5IpI5d6h1H5QzgFc7+zrrVNw9f3p/mznDuuUcB9NT75KrrFlBV6/duMRm3t/ZOl05PGm1bhcex+3E+Jv8jgMoZARIAFtPbjt17JazS3/JqG5tbp9io5K0Vat8xFU26plbrVmSYphVMwZY52sfta9K9CXsjbZq7os2qOuJ1qG7d8KXS1u58kdfYiMnjrJuR+SjHVSJ//4L6Tuq3Nh6PTXeujVra9d3b15wJWbu+8ze++hWCpF9sw8b8v34btY9RymeWaPul0Yem29a/zbJT+jd8CUPWocC7kRm1cw7rWvX4TlLnzK8YN63bcGXdOYqKAnr+WLOCwpeUOrTrYCGp8inzIWT7N6ubazPi4uDNXFUhfTs/HWQlNRG9XQ6wLq262T9Jy72/tUk4YZQyWd45HccQBEhQAJlnCsxOic4uU12lblGW+s99hXrn9eA2LU72pAxyccQ2/j5U9a9awns2W/9YpszboB1a3eideo51KZ9l/R0zz8pu2WiTR55lR1RNVi3A0r0918U31H5OnbRfQOtZUEnnrD30RwnzNWtwwUdgyp93gn5qG7W7V9f5DzZ98JF74470OlMLqWx3Z95ZueGeEnghqzp2d469U1WAuz9He661doUSXrURYWx1v+8XErCXHDeiVK2nbAxc4ktnDzcrj/vROtwyZ3Je+Hd6Sqk22xcscAm/6uHndeuvV1/f+5DZdTueE++h1DhdxxAUUrLXL85FswDKDN0cjfJRgx7KPeTfo9OaIbd2Cp6t/6uN8FcOoRQNb2oJS2zBthJfaYGC4G2D9q7/ZsHCwVr6biudt7IBcFSVOWtZsurrH+fLvkIjin+/SdR9N9REfl+kvW59s6tVQkrt7nHxt/eysoriPUdYBOT/X22V8Uw2f6bqPbZNmTkzdasIL6XLRvt+w8n2DOjnrJp83PrPdMLj0PGW/8W+ewpNJKNlrl0kb07+Smb+OIMW5hbiZUX3js9OCofA+3vIO97yVyz1tZ6AW7h94vsy/dn25wPP7fv1+T+b85RKeBjOzEW5vq19v0877WmTbLJ0z+y77dXclejuXW/fWA+enEteb8jAEoHAiRQBi0c1cm6/V/OKnlb5fuExuPGG+uevMv48o2t9/Mjkl7hzibFA2S1Rl3s+t5XWcv981epMuW//ySK+jsqUt+PtW5dh9vCim1t0Isq7dxoM/ufaP1zNtmLdgKdZ4Asb7U7D7GR3Ztb5QIo3XLmDrUOPV/MvbMTtTv13nO+qlfviBUvWvczh9pXwWJSKgkb3s86FPZ+sWW2DWp9fc4hOfLk/W06DbRhvXYgbOWwwEad1zVne9lkytexNtf2s+s7HpWvfaEk/o4AKB2owgqUQfW63GwdkrR1UVXDZt1H2eQJOzGmWUYd6zBkvA3K0dNldWvZd2AJPukobzWbdLFBY9+zicN77lQwKr3ff8F9R0WqdhcbdldH63DTzUFV2fLW8pyzc/ZMqVLDMRFKXzJ2DWayq3zY2Tbo+bftmWsLMDxKo47WKZehKqq16Jn/trk7qkZHO69VMJ8oo4rV63SPTZzg7YNFsV9kNLYTWgTz26WS8ktsiP42O1JSl1R967CdXmXL79/YOt/yjE1+a7z175S/8Cj8jgMoLpRAAmVU5rR/WofbwyIWXXm/2fp362j1Cqyq4VqbM6hz0LOh2l55J0stI57MFHEJ5MY5Q61znxeTtx2qXN/adL3KunZqbrULsDfGlP7+kyiO76h4rbSJ3dvbsM81v+Olht9Put563TvbVpWvYke0usS6dj3HmtUuvOC0amI363T/F8GSH1a797nKOtQrguAYL7E0tHwta9TpEuvetSD37WjyLjUvb5UPOto6eO+tQ7vGBbvfJiuJrVzHGrXuaJ07F+x+UNJ+RwCUDgRIoMxaaZNv6mbTahfmyZ138nFvD5vZYoT13pG2V0UcIGXjT5NsSM87bdoK7zSs6lHWrFM763RKR2tUaCf9Kfz956Lov6PitXHWndZtUnXrfu2l1iwfpWYbM9d6waGKd1pfBNbPsEFnP2qr2p1jF3Uszr/JAht1SQ+bW/NsO+XsdtahYR0rX5ClrTti/qN2XrenbG2NWlYlo7rVa1LXatdrbo0aHm2H7l/dKhfaV6R/251t1NrGdspJbe2UNi2sXo3CerGS9zsCoOQjQAJAaONay9xSxSqXmlK0QsB3BABAmUaABAAAAABEQic6AAAAAIBICJAAAAAAgEgIkAAAAACASAiQAAAAAIBICJAAAAAAgEgIkAAAAACASAiQAAAAAIBICJAAAAAAgEgIkAAAAACASAiQAAAAAIBICJAAAAAAgEgIkAAAAACASAiQAAAAAIBICJAAAAAAgEgIkAAAAACASAiQAAAAAIBICJAAAAAAgEgIkAAAAACASAiQAAAAAIBICJAAAAAAgEgIkAAAAACASAiQAAAAAIBICJAAAAAAgEgIkAAAAACASNIy12+OBfMASqhYjH/GAIDUlZaWFswBKOkogQRKKIXGcAIAIJVxzAJKD0oggRIk2oHXvw/HaABAcdhW2Lj9UkdKJoGShwAJlADJg6Ou5AazAACUAH5ezBkaCZJAyUGABFJczvCYGBwJkgCA1JYYHJMFSUIkUDIQIIEUlRgcsy9nD415V23lnzgAoCjkHgDjw2HOMJn9cQRJILURIIEUlFt4jF+fnp5m5culW7mMdDcPAECqysqK2eYtWbZxc5abD4VhkRAJlBwESCAFxQfFxPCo24q7lrPyu2S4ZQAASpKNm7bY+j835wiP8aGRAAmkLobxAFJMbuExnCpV2IXwCAAosXQM07Es/tgm4a3EzwNILQRIIIUkO3jq1p/3Sx7LleOfLQCgZNOxTMc0Hdu2HeeSHwcBpBbORIGUlDM8ZqSnU/IIACg1dEzTsU3HuG3HOyE4AqmMAAmkiPgrrf5s9uVdKHkEAJQyOrbFHf48CpLBrCf+2AggNXBGCqSY8GCpm/CKrKZy5Sh9BACULjq2xR/rvP8czQNITQRIICWFB85tB9UMhuoAAJQyOraFx7n4Yx+A1EWABFLAtiut/q0W/QOqW4zbDgBA6RIe4xKPfd6S/3+OgUBKIUACKSTnMTLxqiwAAKVN8mMduRFITQRIIOUER0zvyOkfPOOvxgIAULpkO9ZtPeBx4ANSFQESSDE6droqPHHL2w6oAACUMjrmBYc5/5DHhVMglREggWKWV9uOcBvHUQBAaRUe46IcDwEUPwIkkPJ00OTACQAorTjOASUJARJIGYkHT39ZF1258AoAKK2yH+cSD3gcAIFUQ4AEUkRiSCQ0AgDKGo6FQOojQAIAAAAAIiFAAimNS68AgLKCYx5QEhAgAQAAAACRECCBlBRcheViLACgrNh6zOPgB6QyAiSQ8jiQAgBKO451QElBgARKBA6sAIDSimMcUJIQIAEAAAAAkRAgAQAAAACRECABAAAAAJEQIAEAAAAAkRAgAQAAAACRECABAAAAAJEQIAEAAAAAkRAgAQAAAACRECABAAAAAJEQIAEAAAAAkRAgAQAAAACRECABAGXYAhvZsbE1btrKek9dG6wDAAC5SctcvzkWzAMoBrGY/08w/jYWy7KsLO82y7t181lWo3pVtx0o2ZbYsxd0tGH/CxYjaPfARza4ZbAQWvmqXX3aMPt5r9bW58X+1qJ8sH6rWdav8XX2htW3XhPH2oUHBKsT6XnaDrIPrZZd+swk6354sD6ptbZo0iPWb/h8O3XUaLuwTs7PUr/nJBtqN1vH4QuCNdLOHvposLUIlmxmP2t8wxtmh/aySeMutFo/PmtdOg3zomxutvMZgBJuxco1lp6ebulp6Zam2/Q0S9N8WprbnngLoHhRAgkAKHE2fjTLPty41pbUqG+H5QiPuVvyTBdr3LjxtsmFR7fFRneNWx9M/Wa6jYEqtvHH/9iC1Z/bsAHP2qIttezCcR/ZRx9pesiLib5aXccG6z6yST3rB2sBACgdCJAAgGKh0rowaOWctgWynFba6xOnu7mj251s1d1c0ah/1WA7Vy/49TDrN36WPXtBGDZV2umLD6nZSyK3RyWV8d/BJOt1aLAJAIAUQYAEAJQsP75uL3zk3VY/13pVf3BrWMs+hYFugQ3rpOV+Nstbii8dnHFna3cPy2htg2fEB7dtU46qsxlHW69bT7dah59r5zauYhu1TlVRdf+h7WzB8JHmR9t2du8Heo6xdmmtN+x1V5KparXee1H1VfnfMOvYuIs9u8hfBACgJCBAAgBKlA/HPum3F1z5u63NcKt23IpXrfcAP+pZxoc2pI0X7Jq2sqsf/dzCrnQ2rlxgrz5wtZ3TdaQt2BKs9JRv2d8mPdPbTj/0MKt/dPUgCHqPv/kNq9L4aGtySEOrnvGG9W6q4NrFRv9ay2rtGTx4Z6m9pAvIXvD8MVgHAEARohMdoJjRiQ7Klp3sRCdbhzMJndNkk0cnOmtn2aDO19mrK4LlbKpb624XWfnZT9obX2/rlbX1PbPt3ja5NbYMP9O29zNrQGO7bkound/sTCc6W+9LxzooPehEByhZKIEEAJQQa+2N4TmD1saVH9qzN59jVz8ToS7o6ll27yXbwmP1lpfaQ+Nn2OwPptrgVgqIK236qGF+eMyoYnWbXmi9H51g/Vt627aW/vlTl2eW+E+yAzauXWlLVgTB9NsnrUurQa5qbWQHXGhjXfVawiMAoHgQIAEAxWJHO9HZOHOIDZnhzVSvblX8Vc6fH02wYTMW2YfD+9noxcHKZDbOskGdrrMXdJ/qLazXqBk29YHudvTaV+3m09pavxmuRaOnvp07fILNeG+GTRjRy85tXNeq5FL4qJLGxo3DEtU37LogXF43Rcth+8uguumn91rbVm2t4z1BZNyy1taunW+LtubeoBOdB4JPfkxvm+q+C8IiACB1ECABACVC+RaXWa+WXvC79SKrFayTKm372+BWmltgI/uOtkVx7RWzKe899o52Vrd5Lxv94kN24TFmHw49x1p1G2azVpS3ui2bBM9b11o0TxIag9K/+KE5WgxUwAt7S93Wi+pD7bWsaqZxAfDQo61J+SpWa4/giQ++1EZPe8outPl+qerBB/mv37i1tVbbzk+ftfE7UNUXAICiQIAEAJQMGXXt9Ae84Fc3WN6qirXr2cvqK3T9b6TdO2mlvzqJKi0H24ThF9rRVcwWPXOVXT1+kVmNdtZ/4js24foW2Uo2t2+636vqdksgg+quu7Wze2fPsEkDwt5fd7e9vDC5cmXwfvesbrvrdrfWdk4nvZMlNvqJN7Z26gMAQCogQAIASr4DLrQBl9S3+mffa73bRhgZcssse3KEyv1q2aX3DbbTD8iljmqeWtvg2VNt7IALrUnw+Po3THAljt3reAsZVax++16ujeVTXePLTLOb/8mH7rbWUYdtHdOySZfLzJVzzuhnV0Vp2wkAQBEhQAIAisWC4R1d6VzyadvA/FHVv2qsjf1na6u7m7ew9te8S+5W/2orXVXXtbZ4wSJbq+aPWzuoya1n15yWPN/TLhk+y+zEXvbIi7Nt7AUqHq1vl46fbRMevMzq/jjG+l07xD6MfzPxVWz/mG6vTtVMLWt3yraqsXovg3v4ywuGX2X9ZgZPwDAeAIBiRoAEAJQafqc23hTfu2mysSKrt7YL26u8b61Nv/Mca9U8DK7Jpn7+c310r7XyljsO9/uBXTB2iL1yyGB7beJYe+SGc61JnbhSzIzyVre5FwKfmmozpniB1NWNnWWDNDbkzUE0Lme26MUnbboCZePLrLNrR7lN3a6Drdfhmltpb9z5iH0Y9vEDAEAxIkACAIrFjvbCGsVe+8RVFVUV0gt62elJa49WsRa3vWYT7rnU2jWta7VqVbGklVi956heay9/W+N2dmqNWtbkgv42dupUG9ujrn3x0HV2See2SUJnwtRppC2wulb3YPesZuVr2bndTrcWnfpYr+YtrPs/T99afXWrjLp24agJ1qtxE+v1WG9rojfBMB4AgGKWlrl+sz96OYBiEYv5/wTjb2OxLMvK8m6zvFs3n2U1qld12wEAKE1WrFxj6enplp6Wbmm6TU+zNM2npbntibcAihclkAAAAACASAiQAAAAAIBICJAAAAAAgEgIkAAAAACASAiQAAAAAIBICJAAAAAAgEgIkAAAAACASAiQAAAAAIBICJAAAAAAgEgIkAAAAACASNIy12+OBfMAikEs5v8TjL+NxbIsK8u7zfJu3XyW1ahe1W2PYtWqVfbLL7/YunXrtj4vAACFKS0tzSpVqmR77723VatWLVi7fStWrrH09HRLT0u3NN2mp3nP5c17zyeJtwCKFwESKGYFHSB/+uknW7t2rdWsWdN23313d1AGAKCw6Vj1+++/29KlS61KlSq2//77B1vyRoAEShbOLIFSRCWPCo/169e3PfbYg/AIACgyOubo2KNjkI5FOiYBKH04uwRKEVVbVckjwREAUFx0DNKxSMckAKUPZ5lAKaI2j6q2CgBAcdKxSMckAKUPARIoRdR+ktJHAEBx07GITtyA0okzTQAAAABAJARIAAAAAEAkBEgAAAAAQCQESAAAAABAJARIAAAAAEAkBEgAAAAAQCQESAAAAABAJARIoMzbYItmvGwvT5huizYEq0IbFtn0CS/blE9XBytCeTwmsOHXZbY6M1hIapk9ecWdNi9Y2ipzdZLHbf/1tppxk13zWvydcn/shmWf2BTv802fv70nBYDS6/bbbw/mssttPYCyjQAJlGWb59n9J+xpzQe8ZFPGXGMH1exiU8KsuPkT63fs4XbNmJds8Kl72slPLAvW5/GY0OpxdtbeNa35I4uCFUl8+bCN2/dMaxAsKqxOGdDBalbxnjv+cVFeb6sNNs57bPNWFfzFPB4778HmtuexPWzsWy9Zv1YVrdHQHFEWAEq15cuXu5B4xx13uNvEKVy/YsWK4BEAYJaWuX5zLJgHUAxiMf+fYPxtLJZlWVnebZZ36+azrEb1qm57Xj7++GM77rjjgqUIFo+zLg9UsBHDz7Q9FL7OrGiDT/jOvr65rm147iyrOKa9/TblMtvjo35W8xyz6YsGW4M8HhOaN+Bw6/dlXZt3wsPZ1seb3r2Dzes72XrsH6z49Enr90kj67Csi11WbvK2x0V4va1+GmEd7mpgk0e29pfzeOzqGVNs0Ynt7dhy/uOaHzDb+m0aa+21DABlwODBg61///7BUu7uuusuu+WWW4Kl6KIek1asXGPp6emWnpZuabpNT7M0zaelue2JtwCKFyWQQFlW5wIb68KVVLATTmhg8+b5JXHT33rZGrRq7W9r3Nw6LJ5iUxZ783k8xskcZ/3+1dp6XOTfIynvPiN+9YJiGB7lmMts8CXH2r6JAW57rxdn3uMv27Hdg/AoeTx2j1ZBeJT965oXd23eT8EyAJQBmzdvDuby9ueffwZzAECABLDVMpvy8jw78xQFsGW21AuLxx4SlvI1sAZHzrNFOQJW/GN88+7tZ/P63mh1v/kkWJPTsqfGWs2rL/Ai3Y7K+XpbbZ5uIz460645MljOIffHbnj9ZXu5TntrXydYAQBlxG233RbUfEk+aTsAxCNAAnBWP3eZXbP5Pht8jmLdelv9i3eTrTRwg/32WzAbyP4YT+YUG/yvY63f1cmrrfrm2cOvHWs9WgWLOyDH68XZMGGELb3oMts3WE6U7LHLXr/TurQ+yA7/VwOb/uHgbe0xAQAAkBQBEoDZ/Put9Q172OS3brQGUdsAJnnMokdusvevHWwXVPaXk5oxwj457ZodD2t5vsdl9uSYmtYjSbB0cnnsvif2sPtHv2Q3VrjPzuw9xXLtmwcAAAAOARIo61ZPsS4nPGlnzRhr7bc2W6xoe+wdzMapGIavZI/ZPN3uv6uBDe6dVzRUL6lLrcsluZUT5iLpe4zz5cP2cuMe1jpZ+M3rsZX3sH3rHGs9XhhrZz13kz35TbAeAAAASREggTLu/QFd7P2rx9qthwUrnH2tZh2zT+aHw2kss0XfNLAG9fylpI/5aZ4tqjzbbmxQ02oeUNOaD5hn8wY0t5o3TA/u4PnpSRu7V4+8SyiTSP4et5k+8hM784rkwXV7j3XK1bW6h8yzuYzkAQAAkCcCJFCWbZ5iD/+rgd3Y/dhgxTaNTmht895739wQ+9/MtunW2pof4s3n9pg6PWzyj0ttaTDNHugFzoGzbekDcR3sJPaSGkUe79FJ1qNrKI/Hznt9uheLA6vft+lfNrBGNIIEAADIEwESKMsWz7NP7H3rd4JfauimoMRw3/NvtMve62Fdho6za86/ySrcdaOdsJ3H5Gm7vaTmYjuvl2ePrrk+drUteu4sa3BCN7v/kfvtrCZdbPZF99llCsgAUEbssssu9s4779jtt9+e66Tt5cuXDx4BAGZpmes3+6OXAygW6iY98TYWy7KsLO82y7t181lWo3pVtz0vUQdt3ipznk1/fV72zmPqNrczGwdtFH+abvc/MM5+O+pGu+mSBv54itt7TGDD/Ok225pb68P8aLdhYhfrsuFJe+n8XDq6CSQ+Lu/Xm2d3th9rZ07JpQfVPB+7wRbNeNKefG6p1Tz/MrusVd18DCsCACXXsmXL7NFHHw2WktPg/VdffbXVqFEjWBNd1GPSipVrLD093dLT0i1Nt+lp3ut6895rS+ItgOJFgASKWbEGSAAACgkBEiidqMIKAAAAAIiEAAkAAAAAiIQACQAAAACIhAAJAAAAAIiEAAkAAAAAiIQACQAAAACIhAAJAAAAAIiEAAkAAAAAiIQACZQiGmQ5KysrWAIAoHjoWMTA/0DpRIAESpFKlSrZ77//HiwBAFA8dCzSMQlA6UOABEqRvffe25YuXUopJACg2OgYpGORjkkASh8CJFCKVKtWzapUqWILFiyw1atXEyQBAEVGxxwde3QM0rFIxyQApU9a5vrNsWAeQDGIxfx/gvG3sViWdyD2br2DcZabz7Ia1au67VGsWrXKfvnlF1u3bt3W5wUAoDCpzaOqrarkcUfC44qVayw9Pd3S09ItTbfpad5zefNBG8rEWwDFiwAJFLPCCJAAAJQUBEigZKEKKwAAAAAgEgIkAAAAACASAiQAAAAAIBICJAAAAAAgEgIkAAAAACASAiQAAAAAIBICJAAAAAAgEgIkAAAAACASAiQAAAAAIBICJAAAAAAgEgIkAAAAACASAiQAAAAAIBICJAAAAAAgEgIkAAAAACCStMz1m2PBPIBiEIv5/wTjb2OxLMvK8m6zvFs3n2U1qld12wvauM/NHvuv2Qc/mf25OVgJAIBn13JmTfc3u/J4swuODlYWsBUr11h6erqlp6Vbmm7T0yxN82lpbnviLYDiRYAEillxBsibXje7f1awAABAHm5sYXbfqcFCASJAAiULVViBMkolj4RHAEBUOmbo2AGgbCNAAmWUqq0CALAjOHYAIEACZZTaPAIAsCM4dgAgQAJlFB3mAAB2FMcOAARIAAAAAEAkBEgAAAAAQCQESAAAAABAJARIAAAAAEAkBEgAAAAAQCQESAAAAABAJARIAAAAAEAkBEgAAAAAQCQESAAAAABAJARIAAAAAEAkBEgAQJlw46VmscFmo4JlAACw49Iy12+OBfMAikEs5v8TjL+NxbIsK8u7zfJu3XyW1ahe1W0vKGn9ghmgFBl1ndllewcL+TBvrtnhLwcLnnw/3y/ev7GHgnmglNGFmIK0YuUaS09Pt/S0dEvTbXqapWk+Lc1tT7wFULwIkEAxI0ACRUMlkPcdZPakt+93C9YB2HEESKBsoworAAAAACASSiCBYkYJJFCwvh5s1iCY3xGrvzPbc3SwACBXlEACZRsBEihmBEigaFCFFSgYBEigbKMKKwAAAAAgEkoggWJGCSRQQM70/v00CuZ3QlhCmd+qsPEo7URpRAkkULYRIIFiRoAECl8YBuf94t1WMbvJW77f35Q/zc1+a2+2NGHYD6AsIEACZRtVWAEApVoYHlUaePiP3kwFs/ZeAIyn9pGx64IFAACQKwIkAKB0UimhwuMGs5vCqqQve0HyF7PWTdw9nLBzndVVzEYF63IInuvthOAZT0E1r+0AAJQGBEgAQKkz6jqzWHuzPbz56dOzV1ft9qEXFvf2At+Z/v0UHufNNdvTC4C5tVd8u7X3XF4QXRQs56Dg6G1v7b1mriEUAIBSgAAJACg91JGOFwTPWmuWNsULisHqbGZ7YdELjA0amV3mBUlXtTWPdowKma0rePdTwPQem5S3/nBv+zxv9jLv+W701wIAUOoQIAEApYIrdTzA7yBqz9HBytx4gfGm7/zZunlUO9VzKmRO98JolN5UD1do9cLmfd7jAAAojQiQAIBSodtDXnj0pqju90KmQqSqnao6a6L48HhybiWPiVS6qRDpPY5OeQAApREBEgBQ6rleVgdnn9RWUSFSVV1rNtq2TnT/sHpr5PAYiguRyYIpAAAlGeNAAsWMcSCBgvW2t2+rzWK81d9tv1pr2BtrriWO6ok16JgnpIAZpWorUJroYktBYhxIoGQhQALFjAAJAChJCJBA2UYVVgAAAABAJARIAAAAAEAkBEgAAAAAQCQESAAAAABAJARIAAAAAEAkBEgAAAAAQCQESAAAAABAJARIAAAAAEAkBEgAAAAAQCQESAAAAABAJARIAAAAAEAkBEgAAAAAQCQESAAAAABAJARIoIzatVwwAwBARBw7ABAggTKq6f7BDAAAEXHsAECABMqoK48PZgAAiIhjBwACJFBGXXC02Y0tggUAALZDxwwdOwCUbQRIoAy771SzseeataxDuxYAQE46NugYoWOFjhkAkJa5fnMsmAdQDGIx/59g/G0slmVZWd5tlnfr5rOsRvWqbjsAAKXJipVrLD093dLT0i1Nt+lplqb5tDS3PfEWQPGiBBIAAAAAEAkBEgAAAAAQCQESAAAAABAJARIAAAAAEAkBEgAAAAAQCQESAAAAABAJARIoEei6HABQWnGMA0oSAiSQ8jiwAgBKO451QElBgARSUnAg5XgKACgrth7zOPgBqYwACQAAAACIhAAJpDSuwgIAygqOeUBJQIAEAAAAAERCgARSRFrChdfE5S1bsoI5AABKh8Rj2/aOhQCKHwESSBmJR0l/WQdPTRs3bXbLAACUFjq2hcc539aZQOIygOJGgARSng6eabZ+w0Z/EQCAUsI/tvnHOQAlAwESKGZpedTPCbfp/5u3bLE/1hMiAQClg45pOraFR8Eox0MAxY8ACaQYHSN1oNx2QN36P1ub+Yf9uXGTWw8AQEmlY5mOaTq26RjnDnP+kn8MDJYBpB4CJJBywqNoeAD1b/0Dapr9tibT1q3/090FAICSRscwHcvC45qOceGxLljQTHALINWkZa7fHAvmARSTWCz8Zxjz5v3l+CkrKyvH7S7lMqxihfK2a/ldrJw3DwBAqtq8eYsrdVSbx03efHp6uguPibfZJz3SD5JaBpAaCJBAilAw3HYbBsksLyzmDJKJ673/6RF6mP5zjw9mwhsAAArV1ogXBL8w/7m5uGCYnq7bnMFx2/rg8f7M1lsAqYEACaQIFwQTbnNMXoDMyrYuDJTuAdnCoz+fKPlaAADyJ2e4C/Kf+59/ozComzAg+uEwXbdJSx7950y8BZAaCJBAilAQDPnzfjDcFha9KazCGix7//PXxz0m+C9O9iUAAArHtqDn5oL/uVCoOQVBzXuTC4+acgTIbY8Jxc8DKH4ESCCF+CHQzSkb+uEwCIbxy4lTuF23wX9JJF8LAMDOyRnwghzo/hcfCpNPidv9Zfd/fwFACiFAAinED4O+cD4xJIbL8ev0v+De/nJSuW4AAGAnJA95W4NhsLB12c2HU/Z1bim4lfh5AKmBAAmkGD8Y+sL5bYExWKflcD5baMwtQCZdCQBAAckZ9MJwGD/vgmKwIj4wxs+H4ucBpA4CJJCCwrAo2YLj1tswKG4LjPGP2cZbl2w1AAAFzU+GbjbetnDo/h93G67PfiuERyB1ESCBFJQYBhNDpGyd924T7q1VAAAUmzAkhvxFfzlZUEwMjARIIHURIIEUlVuI9GUPiYn3zY5/4gCAopB76MseGt3/3bwQHoGShQAJpLic4TCxhJESRwBAassZGt3/3XyI4AiUDARIoARIXsJIcAQAlCzJgqMQHoGSgwAJlCB5V1UN+fchXAIAisO2LLj9UEhwBEoeAiRQQkULkwAApBZCI1CypQe3AEoYHYDDCQCAVMYxCyg9KIEEAAAAAERCCSQAAAAAIBICJAAAAAAgEgIkAAAAACASAiQAAAAAIBICJAAAAAAgEgIkAAAAACASAiQAAAAAIBICJAAAAAAgEgIkAAAAACASAiQAAAAAIBICJAAAAAAgEgIkAAAAACASAiQAAAAAIJK0zPWbY8E8AAC5Wvxuhh35gdk+5c323cvsmIoxO+kvMTt3Hw4jSf2Sbsc9lmYLgsWi8FK/LdY2mAcAoDAQIAEAkUydkGFnJaShtqdm2UvHlYDDyFcZVnmyH36POcCs4b4x63xcltWvEGwvDKkUIPX5JwbzO8v7zl7q7r3ObsEyAKBMIUACACJIs3sfTreBq4PFwIDLt1jvfYKFJBbPyLAjZwULhaR+iyz7uFXeh7LPXs+wFh8HC1I+Zm/3zrKmwWKhKK0BUqrH7OPLvQBeLlgGAJQZBEgAwPb9nm4dhqfZu8Gik+4Flr55V5lMjQCZZk8/mW49lgaLcnDMMs/PChY8WWm2JtNsgzc7f5E3790uW5Zmn3nrbKPZnOVmYXZernVJpHT10YIOkFInZj9fmGVVg0UAQNlAJzoAgO1a/lVCeJQDY3ZSMJva0uy/XgCMd5IXfrZSuLor3fYbnm4He1OH19LsAm+64UOzp+d507dmC7zQqOCYW3gsa5o28cLjBYRHACiLKIEEAGxHkhI8z0knZ9nkE/I+hKRECWSSqqS9L95iAw4IFgqodC5pCWQRVmMt0BLQrDSb9FK6XZD4xncze6Bzll2xH6cOAFBWESABoExJs6kT0m1gesxGn5Zl9csHq/OyOt1OfjjNPggWQw9cs8Wu2CNYyKep4zPsrIXBQuCuK7dYz72DhYKQJCCO67vFOoZ1cAiQ2a1Ktx7PptnTvwfLgfoNYza9Q5ZVpe4SAJRpBEgAKEMWzMiw48ISQS8ItD0uZvefnGV18ugMZcFU7zEfBguhmjH79rIsy6P/nEiKIkDmKAWtFrMvu3ufOVh0ATKuh9Z9LWYND9Gt2a5VY3ZMNf9ujvc97bPbDhw2S1iAXP5Zhp3sfReL45qHqtTxrjOzrGd8tV8AQJlFgASAMmKNF5QOn+jdBstbeaHo4pNjdtdxSUqXNqTbpcPT7IWNwXKgY4csG3fszh8+iiJA5hh+pF7MMjvHJ6RClBggE8Nrvnl/l8He3yVYkp0KkLlUWa1TP2b/7pT3BQYAQNlCRRQAKBPS7N2vk4RH2Wz29NQ0229Yhg3/Ji1Y6Vv+Yc7wqCEwrmxYUq49ptmyxKqYNbhuGm/DSi84DksIj15g7H1eln15DuERAJAdJZAAUIYoLNw4Ps2eXhWsSGKfA2I27qwsa1oueeljnSZesGhbMIeOwi+BTLPhI9Otb9znPfe0LTa6YbBQ2FK6Cqv3vt5Lt/bvmS1PKJCt733/q9d66zWuSaBqZe9vv1fMOh9l1vmILNuHYAkAZRIlkABQhlSonmUjum+xn8+LWdvdgpUJlv+YZicPz7AWo5OUPnpHjQEnlaTrjl5ICgdwDBF8zP5It+FPeeH23ZzhURb8kj08isbJ/GxxmvV9Lc0OvtcL/jPSbU0R1QQGAKQOSiABoKzKSrMP3k23C95PHiKS2f6g/dsUxRAe2SRtX5izrWCB9/KalxQsgVzzTbqd+aL3t98crNgZ1WP28eVZVp9QDgBlBgESAMq6zHQb/lKa9f0xWM5NhZi9fUOWNY1Yd4UA6Sm0TnTyQR3lTEy3C+YFywkqVDfreXTMTj8sZvX3jFmF4O+8IdN7/9+m2UOzve9xpb8umzox+/nCLKsaLAIASjeqsAJAWVc5y3penHe1Vqe82eo/gvlSSL3UHjwyw57+OXtHQkVP7TYzrPLgbdOlXwWb8mlrRzmJ4dE7C2jYIGazrsmyX6/eYgNaZFnD6tvCo1SoHLOGDbNstLf957NiVifxzGFxmt2R0I4VAFB6ESABAE7VQ2LWu36wkMzvaXbW8Azr8VlxB6xCsDzd2r/q3awy6/FUuh38RLpNyqOjocg2eKE7mC0e6ignw454LM0mJYR/dZb0ds8tNussLzTuEa0yUtUGWTargxcqg+XQ459yOgEAZQVVWAEAHi9ovJ1ux70fLG5HnaNiNuu0JONG7pCcPaRKQQyIv03OKqxXnLfFHjgkWHC89/GI9z7iq2dW98LVxVnWNK8S2Si+yrDKE4N5URXWc8zOKqR2kdmq56qjnPFp1vfnYDnk/c06npJlo5vEcgTBaNJt4LA0uzczWJTirJoLAChSXDIEgDIvzT54PXp4lMVfpNl+D6fb1PgQUUKs/jOYCS1Ms4Hx4dE7Mt51dgGER0nsqKa6F76D2UJXIeZKQLMp5302LxiPU3jcnGZTZ2RYi2Fx1WXvybCDH8uw4V+l2YZcO1byvpuawWxodeEEYgBA6iFAAkBZlpVmL4xLt5M/DpYTnHtalr2U25iJqtL6sBc2ir3NYN4qJhzp1myIf7/e5//QC0vBktQ5LqvAOtlZnFC6WiF/RX75kx6znhfH7NzywfLuMXvpmi3Wc7+YLf8sw467L93OmmX2WfxFAC/wLv/FrO/EdNtrRy4Q7BazfYNZAEDpRoAEgLJqVbr18ELCpd8FywnO7ZRloxvGrO1puXSeIl7g6Pt0ul3wcaqGyJjV3yOYDSz+PZhx0mzOT8FsoOsxBdeyY8GKYCbQtEYRtxrZLcse7GDW8OCYfXtNlrWt7HcW1Og1771tbxgPXSB4NMOm5ug4Kc0WJPbGuqvRCysAlBEESAAoc/yOVQ5+NM2ezhamtlHJ4+gjtoUddZ7y5VUx65isWmeW2aQZ6fbuxmB5B1T1gkdhS3yNBb9mD7urE973YdWDmZ2WZp/9EswGmu7vfad7Z9nH/bZYZuL0zywbkNdre0fsK87Kyvm4uClZyWnVI7bYrPOzbB93xE+3OyZ7IdJt8TU8LmY/9/Ue773+5BYJQXCDWZfX0rPXhP0mzYYklKzWOShG+0cAKCMIkABQhmg4hx4j0+24d82WJ2vj5h0Vel/olzzmUC3LxvXMsrsSQ0oFsxEXbbGTwqqSkcVs38rBbJxluYTa/EnyGt7zLw9mk3nlqwIqTd2QZh/Ed8HqfbdN9wvmE2hw/7OGp2dviynxR2nv7/X4S97fzpsWb6/0MDdeoM0W9CvHbOSpQWdI5WJ2UqstNt0LkfE2LEyzZ4LPseHndOvwSlq2ACo9mxZxySoAoNgQIAGgDNiwOt2GP5thez2SZk/nNjzFbmajr9piA+rkEQa8kNHzci9gHhQse0eRu7zwePE+wfIO2iNJm8Dh76Xb8vwGpCTq1whmQl5IWxzMKmAeUy2YDbzwmhfSxqfbpMVptvz37O0jd8i3aTY1mHUO9AJatqOu9/yLvUD/SIbt97x338SqotVj9nHPmJ2b8B0tmJdmR96XYT0+zMf35L1+tqf7I82WJVxIqH9SzK5IuBjw2AfpNnVqhh3xdJq9m/CFNGyRZVckVBMGAJReDOMBAKVVVpot8ELM0++k2fC8itw89RvEbEqnsJpjBN5zT3op3d45JsseqJf/w8iGj71Q+3qwsBPO7bTFRh8RLCRKHErDM6KnF3p39+fXeO9hvwJ4D9mG0PBMHZ9hZ8UNsH/SyVn20lFeAPwxzV79OM0e+8l77dwCYPwwIqvS7YLR3vedLMl6f6+GXjC9uGnMOteNWdVywfpcpdnA4el2b3wprxegR7TPsjP23/b4z17PsBa5dKwUb5/6MZt7ThbtHwGgDCFAAkCp5PeumlsHOVt5AeWuM7OsZ16ljoVpg/ceh3vvNR/tJ+PlGSBXpluLR9Lss2BRLj5ri41oECx439XUCel21k6OQ5EtQHqf64IHvNAXV7o34ryYDX9++8Nd7HNwzGZ3Tgjzf6TbwDFpdm9Cm8pEFQ6I2Vde8MyrQHjDvAw7+KXs7SB3mPfe2p6YZWNPzO9YkgCAkirqtWYAQIkSs3O9k/tcOzYp74WoDln26w1e6Cmu8CgV/F5CI5d85kd1s6YJVTLfWBz/gjFre06WfaneSne4Hec2i+MS2fIPs4dHOyhmnQ+J2cUJ1WWzUZg/L8u+3drhTZzdsmzAlf57rJ9HKWPX5nmHR6nQYIt9faH3mZN1iLQ93muf1DBmH9+0xV4iPAJAmUSABIDS6oCYDUhMkJXNenfygqMXAEYcmxoBQL2EftszZiOaeAEuSac6Oy9mzWoFs4Hli+PbQYoXto/dYrN6Z9nPl8VsdAsv7Hnf3T7e+9kn4pe0+s9gxvx2hfEhsPdJWd53HbOT6gYr4lTwAu5d+psozHshM3f+e/z4piyb1TZJ2K0Zsz71gvntqFony166wQurXpC8q6H/veeo/uq9f33++jXNenrfx+TLvPf4zy02+bQsq78TQRsAULJRhRUASrOf0+2459KszlFemGwSs4bVyuZP/uIZGdbiM7NmB8es82Exa1s7ZlULOwRtTrNJr6ZbXy/4fXSWAqTnm3Tb72Xv71HLex/1zdo23JkwlmZrlqbZ07O9aZHZ6Z232IADgk0AABQSAiQAAAAAIBKqsAIAAAAAIiFAAgAAAAAiIUACAAAAACIhQAIAAAAAIiFAAgAAAAAiIUACAAAAACIhQAIAAAAAIiFAAgAAAAAiIUACAAAAACIhQAIAAAAAIiFAAgAAAAAiIUACAAAAACIhQAIAAAAAIiFAAgAAAAAiIUACAAAAACIhQAIAAAAAIiFAAgAAAAAiIUACAAAAACIhQAIAAAAAIiFAAgAAAAAiIUACAAAAACIhQAIAAAAAIiFAAgAAAAAiIUACAAAAACIhQAIAAAAAIiFAAgAAAAAiIUACAAAAACIhQAIAAAAAIiFAAgAAAAAiIUACAAAAACIhQAIAAAAAIknLXL85FswXukoVMoI5AAAAAMDOWLdhSzBXdCiBBAAAAABEQoAEAAAAAERCgAQAAAAAREKABAAAAABEQoAEAAAAAERCgAQAAAAAREKABAAAAABEQoAEAAAAAERCgAQAAAAAREKABABgB/z000+2aNGiYCmnn3/+2T766CP7+OOPgzUAAJQeaZnrN8eC+UJXqUJGMAcAKClWrlxpY8eOtYULF1pGRoYdfvjh1qlTJ9t7773tf//7n/3+++/WuHHj4N5Fb+TIkValShW76KKLgjWFa8CAAe47GTFiRLBmm19++cXOPvts23fffe2AAw6w++67L9iSP99884298cYbtmDBAqtcubKddtpp1qxZM0tP96//btmyxaZMmeLus9dee9k//vEPq1u3rtv2448/2uTJk+3rr7+2ihUrWrt27eykk07a+tiQnqN379525JFH2iWXXBKszW7z5s02depUmzt3rn3//fd29dVX23HHHRdsNfviiy/szTfftMWLF9vuu+/u9g9tT0tLC+6xjZ7rgw8+sLfeest+/fVX23///d3fbr/99nPb9d2+/PLL9uWXX1pWVpYddthhdsEFF9iee+7ptgMAtlm3YUswV3QogQQA5Oq3336zc845x/7v//7P6tWr50Ljc8895wKDvPjiizsdknbWjBkz7P333w+Witf06dNt3bp1NmrUqAL5Xvr06WPjx493372C3umnn+5CXOjdd9+1a665xg455BBXKnruuedaLOZfF77rrrvsqaeesoMPPtjKly/v/o7vvPOO2xbvscces0ceecRmzZoVrMlp7dq1Llzq7z1x4kQXFEMKhL169XKBsH79+rZq1Srr2LGjffrpp8E9slNAvPXWW11J7RFHHOHCb8uWLe2HH35w21XC+9///tfq1KnjPvfDDz9sV155pf3xxx9uOwCgeFECCQDI1Zw5c+yKK65wJ/QVKlRw6xQY5M8//7TzzjvPlixZ4kq+VOLWvn17+/e//+1KyfQYBVAFD5U0KbzoVqVzp5xyilWqVMk9z7fffusCYGZmpguop556qu222262YsUK9xg9h5b1nAoUiRSM9DiVRCYKn0OhplatWtamTRv3XDNnznSB7K9//evWUjKVsOk9/eUvf7GNGze6z67SO61Tyd2BBx7o7pdbCeS8efNs0KBBNnv2bLvuuuvc8zRp0sSV0uq59H2pNO2EE06wcuXKue/i7bffduFp2rRprgRRnz2eSvv0unqPer8KXvq+n3nmGfd3aNSokfXo0cP9jVavXm1nnnmmde3a1X3nCmQq3VOJo0ry7rzzTnvvvfdcSWFI71mhU6WT+p4VfJPR4xWM9Zq6r0oszzrrLLdNgXXp0qXu+w3pPdWoUcNuu+22YM02mzZtcn/rsERxw4YN1rRpU/ecXbp0ceviKbzqb//aa6/ZQQcdFKwFAAglkACAlKLwoZIfBYSQwo8mBQcFLYUKhQsFAU3Dhw+3Cy+80F555RVXmqSw0LNnTxd6FGpUMnbZZZe5xypMKDQo1CxfvtyVbqrqpR6jEKJQqJIqhTJVa9wRCo2qajlu3DgXxG6//Xa79tpr3esqlNx7772u+q3ofSh0KeyJgpQCjd6/gotK/lQ9NS/6HvT5w7Cl5/z8889dwH3ppZdcyaHmn332Wffd6XPpPam65yeffOLCbqLatWtvDbj6W6h6qN6/6DOpJPD4449391EgU7XR8HtS8Ayrq+pW1XzDx4re3xNPPGE33nhj0mAeL3x8Mnrt+PAoei96/mR22WWXbNVRdWFCIV0BOZ7+NtoXVJJbtWpVF/wBAMWPAAkAyJWqJKqETKVmKjVU6FIoUjhQmzyVzDVo0MD++c9/utLI0KGHHuqqvfbv39+V9ilYKcjdcccdLkypJExVJtXGT8FLoVKlVaoiqddUYNXrqArmwIEDXRVLVefcESrd23XXXV0VUD2Hql6qiqk6t1FJqQKmQpyoBFTLf/vb31yQu//++23YsGHuPY0ePdqqV6/ulvNy1FFHuRLOmjVr2s033+y+M31WVSFVmNZn0PM+/fTTrrRQVOqnUsUHHnjALr74YrcuNwrYCtoqYQyXFeyqVavmlkWlu8k6+FH4VVXRbt26BWvMhWUFerXZLEj6Tl9//XVr27ZtsCZ3CtuTJk2yZcuWudLUeArb+j4fffRRF3L32WefYAsAoDgRIAEAuVLJj4KTOtH5+9//7jo/0W18NchkVAIZUpVWdQKj8KLOUhSuVBKm8KJSMnXwohJKlVwqUKp0TmFBgUwllaoWqoAXtu2LSoFJVVAVzPS6CqAqTVXAUamZAotCrJ5X1VdVfVRVPhV4Vb1UYVmP0/tWSdiO9qqqcPTVV1+57yIsRVRJpsKjSlhF32+HDh3cfF4UNK+66ioX1lu1auXWhd9H+Nyi+cTvSZ/5pptuct+pqriKvn+VsGo5rEoc0uNV+rdmzRo3JZYM5kV/U1WJbd269dZOdnTxIHwuzcdTb7V9+/Z1AV+dM8UbM2aMC6JqA6lbBXwAQPEjQAIA8qRqkyeffLJr16cStbAaZl5UYhdSdVG1cVM7vXCaMGHC1naQ6ilUJYIvvPCCu59Cl15T91HJk4Kb2ioqSO5IiFRIUzvE+NdVaeSJJ57otivk6DUVzhSMVYoqqn6q93/ppZdufZxKD++++263PSq9VwW1+ICmXmxVaqhwKSrFDauZ5kYBUAFbwVehVoFb1GZSzxOWZkrYq2lIr6/vUEFNpZ9hNVB9DyqBPProo92tSjMV8NQeVe07VYKsNoya9Ngo9H3r4oDe1z333LP1tdRmNHwutcMM6XvWd6tqxQrZid+D7q82j9rf9L4UTgEAxY8ACQDIlUqM1q9fHyz5FHrC9m0KRPHt6pJRYFO4aN68uQttmlT1VQFBj1XbOpXyqTdVlYipyqhKvRTAVDqn6p/qKVSd4cSHpe3R6ym86rXC11V1XAUcadiwoWtDqGqteh9qSygakkTBTO36wsdpSiwh2x4FIlVfVelmSD2TqkfUqO35wuq9CncqUY1vh6jhOlRlVe0n9V3ps6qdpUqIRevUfvC7777bOsxHSAFdHfrccsstrnRSVYfV6ZGqGKsU8z//+Y+rQqxJ39P26LX1XKKqytovQgqV4XPpIoRoSBh9pyr1jS+tFn3mMGCLSkNVBXd7QRsAUDQy+vYbcHswX+jKl+PHHwBKEgUSlRKpXaCqcaqTGwU8lRqp9EolQ+ocR2FLQVMhRfdRiFHPqKLeWdWWUdVeFUgVTlSSpuqYChKqwqiAqZJGlTqqMxtRFUv1OKqeQhUgFcYUMOPDiegxCoLq5VSlZZpUEqfgqMcpIKoUT+0uVR1XQ0fove2xxx6u91O1SVTbx7DNnj6DSvtUdVIhTCWiDz74oAuvqvaqoKvPmqzq6YcffmifffaZ+wzqLEZhcfDgwa5N5/z58+3666+3zp07u9fSd/rqq6+6ISpyo0Cn96f2pfoMKi3U30Elc/oeFCBVMqpSSZUq6rtSVWC9rnqJ1edVlVIFMj1Wk9qY6vFnnHGG60lVk0Kj2ouq0yJVq1UJrL4HTeowSRQyNWyIPr/oO9Lz6HMqJIZ/O5Vg6nX0fak0VCWw4XMpOCsMq4Mk/Y3U/lLPo/vrPeh1VV1V37e2K9RqiBC1K1WJcFj6CgDwbSq6ATW2IkACAHKlk3+V/KitoIKfgpOqRCp0KMCoFEwlRGrnqFIiVUtVSZPCmwJa+Bxqt6cApcCm6pK6n0omdR+FHnV4o85fLr/8cldlUQFI99P9Neak7quqkCr9TKQB5xUgdb9wUgmm3qPeh5YVehTYFNxUMqnn1+fSe1O7SwWfcIgIBRlVfdXnU8DT+1PYVdjR+1WJnoKQOslJFPY6qyq54fejoK0QG7bHVCmcQpfupwCuMRNzox5VFYz13aknWk0KtAqhojCo70ThUa+naqrhgPz6myisKaSHj9Wkz6r7KjCGU9gDrEoF9fmTGTp0qGuLqoCpcKfvVd+nXl8lnAqpWhe+jl5bwTyRPrf+HrqYoMAd3l/h8ZhjjnGvrxCuEmcFS1VfVilsfLVoAICvOAIk40ACAAAAQAnEOJAAAAAAgJRV6kogVdVHbSZUVUhtJtRAX1WFRO1fVL1G1WDUdkXVbtS+RVVkVFVGVZpUHSdxQGQAAAAASDWUQBYAdQuuAKm2FeroQYFS1L5GbWvUfkWDFvfr18+111CnBGr8r5CpgYzVaQMAAAAAIKdS2wZSXYprAGiNVabODjQYtToH0DqFRo1ppoGx1YGBOilQr3Varx7+1GvfIYccEjyTT2FTpZXhvNClOAAAAICCoryhrKGakVEURwlkmQiQ+kOo97zHH3/cateu7bardz4NGq0e/hQE+/Tp49brMeo97/zzz3fLoTFjxthrr73m5tW7n6gXOwAAAAAoKBoPV8Nfqdfr7SFAFqD4ABl2564QqHaRonGxbrjhhq0DM6tbelH35ur2/R//+IdbDqkqbDhYtkosdWVAoRQAAAAACoLyhoZA0ri7yYauSkSALEDxAVJjXGle42+pU51Nmza5McgeffRRN36YxrXSoNb6gyloDhw40Bo3bhw8U04aLFkBMhyHCwAAAAB2lnJKixYt3Hi5Gqt4e+hEpwCotPGHH36wBQsWuMGKdatBrk8//XTXQY462FEHOnvvvbcbNFqDW3/66adugGyVLOrxxx57bPBsAAAAAIBQqSuBVGi84447bO7cucEac72vnnfeefbEE0+4dox16tSx/v37uxCp9pEawuPhhx92KV8h88gjjwwemRwlkAAAAEhlOscNO4BEakrWIWdJKIEstVVYCxMBEgAAAKlKTbnWrFnjzleRutTT6l577WXlypUL1hAgcyBAAgAAAIVHw9ItWbLEBZMKFSoEa5GKVq1a5ZrPHXDAAcEaAmQOBEgAAACg8IShRE21kNoUFtV3i4YZDEsh6UQHAAAAQJFRIccuu+wSLCGVqQ2kJgX+koQACQAAAAAR/fbbb/a///2vzHZSRIAEAAAAyrAlS8xmzTL7+edgxU5Qadpbb71lV199tRuD/bbbbnPVNKVLly5b5wvbAw88YNOmTQuWCtYXX3xhjzzySJntpIgACQAAAJRBmzaZ3XOP2aGHmv3lL/7t3Xf76/Pryy+/tMGDB9uFF15ot956q+233362dOlS17nPSy+9ZD/++KOtXr3ahS/1Fvvnn3/aypUrXfDcvHmz6z1WJXzr1693z6dSPj1W6/Q4tRHUOm0P123cuNHdN977779v3333XbC0jV5Pj9Hr6Llk3bp17rVDGkM+fM4NGzbkuH9Zl9G334Dbg/lCV75c6cirX3/9tdtxtzdeJAAAAFCUFLbUrk49sKppnSYVlCVOWn///WZ9+24LjLqdPt28x5o1bZr8cZoy8ugXc968efbzzz+7Ekh15HPcccfZ/vvv78ZiHz9+vAt+8+fPt4MPPtiN0655lVg2adLEjdk+btw4+89//mOTJ092j1W41Djts2fPdh3L7L777q7DmT59+rj7aZ3Oy+vXrx+8A586vdRr6DlCCoE333yzvf3222765JNP7IQTTnCBV8HyUC9BK0w29T683o9C7k033WTvvfeevfnmm/bpp59a48aNXSDW+/7b3/6WdCzHqPS+9Z6qVKmytRMdvebo0aPtH//4hxvmY3s2FV1/qFtRAgkAAACUMgp6AwaYHXJI8qlePbNBg4I7x/EyjReo/O3JHnfYYWZJCvy2atCggS1btsyOOOIIu+aaa+zDDz9068844wwXkhQGb7/dL79SyV63bt1cddPly5d74XW6F2rvd5OeRyWWqvJauXJld5/77rvPmjVr5koxFbR0P61TkIti2LBhrsfTBx980O6++25XQvnLL79Yy5Yt3WuL3q9C6vHHH++eu1WrVu61NSkYL1y40N2vLCNAAgAAAKVMWppZjRp+tdRkk5ejLLfCMz1W25M9TiFS23Oz77772iuvvGJjx451JYCXXHKJjRo1ypXUpXkPzMjIcJPU8N6gSg5V0qbSvblz59rZZ59tHTp0cCWWqj4algqqRO6hhx5ypX/1vHS766672kUXXeRC3vfff++eb3tmzZrl3tdpp51m55xzjgunGvbk8MMPt88//9xVXX3nnXfsqquucgFVpakjR45091cA1uvsTIljacE4kPnAOJAAAABIRb/++qsr6dtjjz1cKaSmZLxsZn//u9nMmX6pY0jhUO0hp0zxq7ImE9S2jGTEiBGu+uerr77qShJVFfXoo4+2xYsXuxLKf//73+5+r7/+ug0dOtSdZyscioYj0byCpMKetqn08dFHH3VtFDWvoKlqrHr+eAqIp5xyil1xxRXBGnPtMhVYr7/++mCNWcWKFd2tqtyq1POjjz5ypY2qfqswe+qpp9r555/v7qMArKrBCqITJ0504TUMw/mhdp/6XLVq1dr6mRkHEgAAAECxUGGZwl6yyctyrqqqMkpYoqhbLd95p7892eM05UWd1/Tr18+1G1Tbxv/7v/+z1q1bu20KbwpfyTq3adeunQtjCocaIuO5556zDz74wJUMjhkzxjIzM12VV1UvVfvDp556yi1rqlq1avAs2el5VKKoSSWc6tTn5ZdfdqFTPamqdFFtRvW6Khi69957XZBT+FZJY48ePdy6N954wz1en0XVWMs6OtHJBzrRAQAAQCqK70Rnew480KxVKz801qxpdsopZkOG+CWQ+bXbbru53lEVuNQWUsFMJXh6T3/xnvizzz5zVUM1rxLGhg0busepdE8lhiqRUymgSiubN2/uSuHUs6uqt6pKbPfu3V2VV4XIjz/+2FWZveGGG9zrxlPpnt6HwqomlWL+9a9/dc+pznPUlvGQQw5x5/MKkOroR9+dqqpqvRx00EGuzaVeW8+h1z/qqKPc+1bHN6pKq/edXyW1Ex2qsOYDVVgBAACQiuKrsEal3lc1ebnITSgaVGEFAAAAUOIoNKoAj/CIKAiQAAAAAIBICJAAAAAAgEgIkAAAAACASAiQAAAAAIBICJAAAAAACpXGcdR4iup5tKBoVAQNF6IhOqL68ccfbfHixcHSNmvXrrW3337bPWciDe/xn//8xw27saP0mHfffdc9R2lBgAQAAABQIE4//fQcU7du3ey9996zs846yzZu3Bjcc+fpuYYOHeqGLolq6tSp9tprrwVL2yxatMiNvZjs/f373/92jxPdL/6z3XnnnbZ582a3TeNbXnXVVXbxxRe70BiaMmWKvfjii8FSyUeABAAAAFAgnnjiCTeddNJJVrt2bTc/ZMgQN1C/qCRy+fLltnr1alc6p0nz69ats2XLlrmSOpUCrly50i1roP2wVFD30WM1xZfoKfStWLHCBcn4EkQ9Vs+h5wpDXjyt02P02D///DNYm9369evtrbfesmuuucbS0tLs999/d6WeI0aMcJ9N6zXuptb37dvXTjjhBDdW/NVXX20///yze4zWv/LKK+6zlwYESAAAAKC02rRJCSv7FB+mErdtb/t21KhRw01VqlSx3Xbbzc1Xr17dhSwNkv/ggw+6QKlSuvnz53tPudGVUF5//fV23333uVK8Rx991Pr06eOWe/XqZR9//LELcjfeeKMr8bv33nvtzTffdK+nKrH/+te/7P7777eLLrpoa0mfHqPXGDx4sCsVfOGFF7KFS81PmDDBLr30Urvnnnvcayajqq16j/o8IQXBcePG2euvv741mP7yyy/u855//vnWvn17O/nkk+3JJ59026pWrWqVK1e2JUuWuOWSjgAJAAAAlFYHH2xWu3b2yQtWWx16aM7tt9zib1Obv8MPz75tJ2RkZLjSOQXA4447zoU8Ucniueeea3fffbftvvvuLjgqECrYXXDBBfbSSy+5do4qKRw4cKBbr5AmCnCnnHKKC4qXX365C6eiQKoqpgqsqub68ssvu9cJaV7rhg8f7h6j95OMXlelpHrvsueee9qAAQPs6KOPdu0iu3fv7gKl3pu2hfdr0KCBff31125eKlWq5EopSwMCJAAAAFBaNWqUczrkkGCj59hjc24/8MBgo+eYY7Jv2wnp6eneSx/iSiP3228/W7VqlVuvErp69erZLrvsYt98842rcqrgGAbA8uXLuwBWv359V5qosPjVV1+5x+oxRx11lLvVc6qUT9VRv/32W2vcuLFbX61aNXcb375RpaHx2xpt57OpKqoc6H031113nbVr185VYdVrqV2kgmN8CadKRvU5Q3p8/PaSjAAJAAAAlFYvvWQ2aVL26bbbgo0eVflM3N6jh79NoWn8+OzbdpJCZCIFrTCgKdBVrFjRRo8e7aqdqprprbfe6kKkSh9Veqmw+cADD7j76/nCx4pKC8NgqB5XRaWUCo9h6aBoXiEyrIIa3jeRXlfPn1fvsQqGe++9twvE4f3UTvIYhe+A2myqGmtpQIAEAAAASiuFpsQpPsTt6PZCdvzxx1vTpk1dWPzkk09s4sSJrgdUlUqqNPKnn35yneioRDI3CpXquEZhUz2gal5VSuPbMSrMaZ3aWuo+YXvFRLqfAm7YaY+q06r948yZM137TL1WnTp1XFtPhU21x3zqqafss88+s8suu8w9RuFVHfroPqVBRt9+A24P5gtd+XKlI6+qPrOubhx55JHBGgAAAKD4Kego1FSoUCFYUzz0HmrVqmUHHXSQW1YpngLciSee6LZpWdvVO6tKAxXm9J61XlVX1Ubx888/d+FNgVId8Wj8xi+//NL22GMP195Rz6fteuyuu+7qHqtt6glV5+l77bWXu/9hhx3mhuhQ6Ix/XbVjVLtEVXs977zzXBBs1qyZe38hlWaqN1V17qMqscoAqj6raqsqCb3hhhtcaafCo7arCq7eu9arF1oZOXKk1axZ09q0aeNeP6TnUrAMP4eoNFOlr3q/es7t2bR5x8em3FlpmeuL7lUrVSj8qxZFQUXp+uOqETAAAACQKjQshcKIghQKhkKmemm9+eabswXAKFSlVZ3+qN1kYhVWbfvhhx9coFUAFlWrbdGihc2YMSPPUtbQug25V60tLFRhBQAAAIBcqGfY3r1773B4FJWuqg1naWn/KARIAAAAAEAkBEgAAAAAQCQESAAAAKCUUAcw6sRF4xNqiAqm1JzU1lF/J7WDjB9epCSgE518mEAnOgAAAEhBCiQa5mLt2rX5arOHoqEeWBUcNbSH2liGSkInOgTIfCBAAgAAIFUpnChI6hapSwEyfsgQIUAmIEACAAAAQHIM4wEAAAAAKDUIkAAAAACASAiQAAAAAIBICJAAAAAAgEgIkAAAAACASAiQAAAAAIBICJAAAAAAgEgIkAAAAACASAiQAAAAAIBICJAAAAAAgEgIkAAAAACASAiQAAAAAIBICJAAAAAAgEgIkAAAAACASMpMgIzFYvbYY4/ZGWecYZ07d7a33nor2GL22WefWZcuXezMM8+0GTNmBGsBAAAAAPHKTICcMGGCPfTQQ3bHHXfYVVddZbfeeqstWLDA/vjjD7vtttvs9NNPd+v79OljK1euDB4FAAAAAAiVmQCZmZlptWvXtkMOOcQOP/xwq1atmmVlZdnSpUttt912s7///e/Wpk0ba9KkiY0dOzZ41DabN2+2DRs2uGnTpk3BWgAAAAAoO8pMgLzooousXr16tu+++9rBBx/sqqwedthh9s0331j16tVt1113tfT0dKtbt6598cUXwaO2GTBggLufpksvvTRYCwAAAABlR5kJkC+88IL98MMP9v7779vbb79tzz//vAuKCo5btmxxbSRFJY1al0hVX3/99Vc3Pfnkk8FaAAAAACg7ykyAfOedd+y0006zI4880po2bWoHHXSQLVmyxOrXr28rVqxwVVMVJL/++ms7/vjjg0dts8suu1jFihXdVL58+WAtAAAAAJQdZSZAtmrVyh5++GHXmY5KEL/88ksXItUWsmrVqjZy5EjXS6vaRJ533nnBowAAAAAAoTITIM8991x74IEH7LfffnNtHRUm1SZS1VUHDhxo++yzjytZHDFiBCWMAAAAAJBEWub6zX7jvyJQqUJGMFeyqRRTPbhqPEkAAAAAKAga7aFFixZubPpKlSoFa3O3bsOWYK7olJkSSAAAAADAziFAAgAAAAAiIUACAAAAACIhQAIAAAAAIiFAAgAAAAAiIUACAAAAACIhQAIAAAAAIiFAAgAAAAAiIUACAAAAACIhQAIAAAAAIiFAAgAAAAAiIUACAAAAACIhQAIAAAAAIiFAAgAAAAAiIUACAAAAACIhQAIAAAAAIiFAAgAAAAAiIUACAAAAACIhQAIAAAAAIiFAAgAAAAAiIUACAAAAACIhQAIAAAAAIiFAAgAAAAAiIUACAAAAACIhQAIAAAAAIiFAAgAAAAAiIUACAAAAACIhQAIAAAAAIiFAAgAAAAAiIUACAAAAACIhQAIAAAAAIiFAAgAAAAAiSfkA+fvvv9tPP/1kP/zwg61cudKysrKCLQAAAACAopSWuX5zLJgvdJUqZARz2/fNN9/Ys88+a5999pnFYjFLT0+3TZs2Wa1ataxLly7WokULy8iI/nwFacKECS7Idu7cOVgDAAAAADtHeUc5Z8aMGVapUqVgbe7WbdgSzBWdlCyB/PLLL61r166233772VNPPWWvvPKKvfzyyzZx4kQ777zz7J577rFHHnkkuDcAAAAAoCikZAnk+vXrbePGjVa1atVgTXZK5r/88osrjSwOlEACAAAAKGiUQOZTxYoVt4bH+fPn20svveRKHxcuXOjW7bLLLsUWHgEAAACgrErZTnTUcU7Hjh1dVVZVYx01apRr+3j22Wfb0qVLg3sBAAAAAIpKygbIxx9/3Fq1amVvvfWW/fvf/7bJkyfbm2++aU2aNLExY8YE9wIAAAAAFJWUDZCrVq2yZs2a2e677x6sMVet9fjjj7fffvstWAMAAAAAKCopGyDPPfdc69Onjw0aNMhVYR09erQNHDjQTaeffnpwLwAAAABAUUnZAPmXv/zFxo4da3Xr1rVvv/3WFi1aZIceeqgbG7Jp06bBvQAAAAAARSVlA2R6erobB7J169Z24YUXug50TjrpJNf7alpaWnAvAAAAAEBRSdkAuWbNGuvVq5dddtlldtttt9mAAQPs0ksvtZtvvtnWrl0b3AsAAAAAUFRSNkA+9thj9uuvv9orr7xi48ePtxdeeMHN//DDD/bMM88E9wIAAAAAFJWUDZAKitdee61VqFAhWGNu/uqrr3ZjRAIAAAAAilbKBsjmzZvb5Zdfbm+88YYtX77cli1b5saCVKjUUB4AAAAAgKKVlrl+cyyYL3SVKmQEc9GMGzfO9bqqqqzqOGfvvfe2iy++2M4555zgHsVjwoQJlpWVZZ07dw7WAAAAAMDO2bRpk7Vo0cJmzJhhlSpVCtbmbt2GLcFc0UnpACn6EtVpjgJklSpVrFy5csGW4kOABAAAAFDQSkKATNkqrKFddtnFqlWrZnvuuacLj999952NGTMm2BpdLBazzz77zP7617/aPvvsY127drXffvvNrX/rrbfsqKOOsoMPPpgOegAAAAAgFykbIFesWGHffPNNjunTTz+1uXPnBveK7vPPP7du3brZ4MGD7euvv7Y77rjDpfp169bZiBEj7JFHHrGJEyfaU089ZfPmzQseBQAAAAAIpWyAvPvuu+2kk06yli1bZpuuvPLK4B47RkOBNGnSxB588EG76KKL7Pvvv7fy5cvbokWLbI899nDbVArZtGlTV0U10Z9//mmZmZlu2rBhQ7AWAAAAAMqOlA2QFStWtKFDh9qSJUuyTeqJNT80LMi///1vF0B79eplAwYMcCWNP//8s+2+++6uemzYUY/um0glk6eddpqbhgwZEqwFAAAAgLIjZQNku3btXKBLtP/++1vbtm2Dpeh22203O/nkk+1vf/ubm4499lhbvHixVa1a1ZUoqlMc+eOPP9y6RBpS5M0333RTv379grUAAAAAUHakbIBUddXzzz8/WPJ7JJJatWq5cLmjGjVqZD/99JNt3LjRTatXr3ah8rDDDnPtLdesWWPr16937StbtWoVPGqbjIwM16GPJs0DAAAAQFmTsgEykTq/2Zm2h+eee65Vr17drrvuOrvxxhtdz64NGzZ0Q4Mcf/zxdsstt9j1119vNWvWzFdABQAAAIDSLuXHgQydeOKJNmXKFBf48ks9rq5atcrS09NdgFQ7S1EwXblypavGqvXbG3OFcSABAAAAFDTGgSxADRo02Omqo/ojHHDAAbbffvttDY9SoUIFt07bovyhAAAAAKAsSvkAuXnzZlu2bJnddNNNrv0hAAAAAKB4pGyAVEc3DzzwgNWvX9+OOOIIO+GEE+zwww93g/6HHeoAAAAAAIpOygbIJ5980j766CN77rnn7Ouvv7avvvrKxowZYzNnzrSxY8cG9wIAAAAAFJWUDZCfffaZ6xlVPaTus88+tu+++1qzZs1cVVYFSgAAAABA0UrZANm8eXO79dZb7b333rMvv/zSvvjiC1f6eMcdd1iTJk2CewEAAAAAikrKDuOhQf01bMfUqVPdEBtpaWluHMf27dtb27ZtXc+pxYVhPAAAAAAUtJIwjEeJGQcyUSwWc6GyOBAgAQAAABQ0xoHMpyVLltjLL79smZmZwZptFNxmz55t06ZNC9YAAAAAAIpCSgbIKlWquDaPRx11lF1yySVuOI+RI0fajTfeaI0bN7bhw4dbvXr1gnsDAAAAAIpCygbI2267zebMmeOKcH/88Uc3jId6Yn388cfd0B516tQJ7g0AAAAAKAoltg1kcaINJAAAAICCRhtIAAAAAECpQYAEAAAAAERCgAQAAAAARJKSbSCXLVvm2hnmpmHDhtayZctgqejRBhIAAABAQaMNZD5lZGS4nlhzmypUqBDcEwAAAABQVFK+F9bNmzfb6tWr3Xz16tVt3bp1tuuuu9ouu+zi1hUHSiABAAAAFDRKIHdSLBazp556ym666SY755xzXHgcM2aMvfHGG8E9AAAAAABFJaUDpEof58yZY3fffbebV6A87rjj7L///W9wDwAAAABAUUn5Esj09HTbc889gzXmSiFVfRQAAAAAULRSOkCqMx2ZPHmyrV+/3t566y3r3bu3/fWvf3XrAQAAAABFJ+U70fnuu+9cG8iPPvrIqlatagMGDHDtIYuT60Rny5acneikpfm3sVy+0pK8PZXfmxTm9nCb5LW9ON6bFOf2VH5vsjPbU/m9SWFuD7dJXtuL471JcW5P5fcmO7M93CZ5bS+O9yaFuT3cJnltL473JsW5PdwmeW0vjvcmO7M93CZ5bS+O9yaFuT3cJjuzvTDemxTn9nCb5LW9kN7bps2bU74TnZQOkKqq+vXXX1uDBg1sixfYVJ21XLlywdbi4wLkmDHW+bDDgjWeypXNLrnE7IADzN5+2+zNN7PvGNWqmfXqZaYhSJ591uzzz4MNgb33Nrv5Zn/+gQc0GKY/H4rfPmSI2cqV/nyoXj2zyy/35++5x2zVKn8+5O2Idvrp/uMeecTs99+DDR7tyGedZXb88WYLFpiNHWu2YUOwMaD3XquW2fvvm02cGKyMM3iwWfnyZurgaPr0YGWcO+4wq1jR7KWXzD74IFgZ0OP69jXbbTf/tT/7LNgQqF3b7LLLVCRt9tRTZt98E2wING7sv/81a/zty5cHGwLt2pm1bm32449mTzyR87Odd55Zo0ZmCxf62xNdeqmZ/tZffWX29NPByjhXXml28MH+59Lni6f9ols3/7tL9t3st5/ZP/7hf/YXXsj52fW62q/0nvV3S9wv9L71/tet87/jRM2bm51xhtn69Wa33RasjNO2rdnJJ5v98YfZ7bcHKwPevzfTxZrjjtOVHLNHHw02BPSj1rWrWd26Zu+9Z/bvf2ff5/fYw+zaa82qVPE/20cfBRsC1aub9enjzz/8sNkPP/jzob32Muvd25+/916zX3/150PaL3r08OeT/Zto0sR//9rX9fxBb86O9vnTTjP7y1/8z/bMM/53EO/qq/3Ppvf94ov6QQo2BMJ9eto0/997onD7K6+YzZ4drAzo9fX30N/9+efN5s4NNgRq1jS76iqzXXf192n9u4zXsKHZuef67/n//s/s55+DDQH9TfW3XbLEbNQos8zMYEPg7LP9f+/ffmv22GPByjjaJw8/3GzePP/1E+m3Rr85et96//H0mbXPh7+FU6cGGwL77us//+67m738cs79Qs+rfd47gLr3nrhf6LN36eJ/9jvvVHd1wYZA06b+70Fu+3z43WzcaNavX7AyzplnmjVr5n+nDz0UrAzos+m1Dz3U//eu9x+/z1et6u83+r1P9nfX+n/+05/X967vP178v4mhQ81++cWfD2m/uP56fz7Zv4nwu9FnHzbM7Lffgg0e7XP63Pot1Heq/SZxv9DvbP36Zp9+6v+b1d8g3q23+p/xnXfMpkwJVsbRb4j26dde838TEunvod8NjfP84YfByoD+vV9zjf94/c7q9zae9scLLvD/bnrvifuFxob++9/938gnn/SPB/F0/NNxcPFis5Ejg5VxLrrI7Kij/H9renyi8LvRsVvH8HjqFf6KK/zfpJkz/d/CeDp+a5/X3/fVV/3jaLyDDvK362+kz5a4X+h96f3p76q/u37v44W/dTpODBgQrIxz0klmHTrkvs937Oj/Fmp/034XT79B55/vf/+ffOL/e4/f5/X7rs++zz6qLmb27rvBhoCaIN1yiz+v3xL9psSL/zdx331mK1b486H440Cy7d754dbfi/vvz3kcaNXK7NRTzZYu9f+u8ec+cuGFZkcfbfbll/5n03cU76abzGrUMJs1y//bJQr3+ddfN+9sP1gZR38PnQfot2LOnGBlQP+WdG6lfxPJzgv1W6hjrI49+jehY1W8E07wj+/6HRg9Oudn199cf3v9W9E+n3gM07+nY47xz6kefzxYGSev44D2VZ37aN9Ndl6ov7v+LuF+oX8X8fRvRc+vfzv67PPnBxsCel1t1z794IPZf8skPPfJbZ8Pz3lz2+fbtzdTbUb9Tug4Ek/vScdX/Z56GcSdH8R/d/p76fdg//3N3nrLPwdIPPfRfqNz22TntPH/JvQ7reN0PO/xm7zz/VQPkKYAWVTTjtq4cWPs0EMPjZ100kmxV155JbZhw4ZgS/F64YUXYsFP6LZpn31isf/+17/DoEGxWFpa9u1168Ziq1f72885J/s2Td7n3Oqoo3JuP+ywYKPnkENybm/TJtjo0Wslbr/2Wn/bN9/EYrVqZd+Wnh6LPfGEv/3112OxqlWzb9c0d66/feTInNs0ZWb62/v2Tb79t9/87ZdfnnNbpUqx2MqV/vZzz825vVmzWGzNmljsjz9isZNPzrn9kktisT//jMW++y4WO+KInNvvvNN/7g8+iMV23z3n9mef9be/+WbObZomT/a3e/tg0u3vvONvf/zxnNu0X3zyib892Xdz3HGx2E8/+Z8t2Wdv3z4W27IlFlu1Kvl+cdFF/nP/+mvObZquucbfrscn2z54sL892ePLlYvF/u///O36jInbq1ePxd5919/+wAM59/kDD4zFli71t//jH9m3adJ+HGraNOf2+H8Tmk/cfsIJwUbPwQfn3H7ppf62n3+OxQ44IPs2vddhw/ztM2bEYtWqZd+uaeZMf/vo0bFYRkbO7fpOZeDAnNvit/fokXObXl/fuVx4Yc7tRx/t/5vZ7P1unnpqzu3nnefvMz/+GIs1apRze79+/nNr39t775zbw3/v+uyJ2zS9+qq//d//Tr79rbf87c88k3PbHntk/y1M3H7kkbHYokUx7wc9Frv44pzb9Vu2fr3/e5lsv+jc2X9u/WbstlvO7Vde6W/X95e4TVP43eg3K9n2Rx/1t3/0Uc5t+mxTp/rb9e9dv53x2/fbz/8dkmR/d/02h1q1yrk9/t9E/fo5tzdsGGz0JPs3EX432vfq1Mm+Tftc+O99zpxYrEaN7Ns1TZnibx83Lhbbddec27W/yZAhObdpCn/Hb7gh+fYVK/zt+s1O3KbPHj7+9NNzbu/Y0f+bLV/uHxMSt994o//YL7+MxfbfP+f2f/3L3/7eezm3aXrpJX/7G28k365jo0yYkHNbxYqx2KxZ/vb77su5XX+rBQtisU2bYrGrr8653TvHcce4339Pvl+ceab/3Nqn99or5/bwt07/ZhK3abr5Zn/7unXJt4e/hfPn59xWufK23wMdKxP3+X33jcW++srfrteJ36apdu1YLCvL3/73v+fcftBB/jZp0CDn9vh/EzoPStyu5xT9ZiQeB7TP33KLv/3TT2OxmjWzb9fknc85L7+c/Pdk3jx/+0MP5dymKfwd1+sk2679Va64Iuc2nYv98ou/Pdl54Smn+PuF/j1rH0nc3r27f4zQvpXsGDh0qP/c+veu43ni9uee87dPm5Zzm6ZJk/ztr72Wc5v2g/DcZ8SInNv1+6N/izp/SfZ7oOO3Prv+TXfokHP7aaf5z619WucSidvDcx99P4nbNIXnvLnt8/fc42/X+VfiNv17fv55f7v2/cTjv46pOj7I7bfnPPfR749eV5Kd1+m7CR17bM7t3udV/mnSpIn39QTn1tuRLHMV9pTyVVi9L88L99Ps1VdftVWrVtnhhx/uqo4eo6smxcSVQG7YYJ11hSKerlqo1EZXwrYkuRqgK3miK+aJV4J0NUdXK0RXTLQbJQof/+ef/m28+Mcn2673pfen5028wiYq2VUJn95X4hV90XPrNfS5Eq9KS7g9t88ebk/22SWv7fGfLdl3E//Z9PjE7fpc+ny5fbbtffbw75rbZ4+6Pdl3o8+m7bl99u19tvjtyf6u29sefje5bd/Z72Z7f/dwn072d5Xi3OejfrZkf1fZ3mfPa7vW6/Vz2x7/2bQ98bsrqH1+e9sLY5/X+vDvmmy/iP/syf6u29sedZ/Pbfv2Pvv2/u4Ftc8ne3zUz57fv2v42ba3PdnfXfL6brRer5/b9vjPpu2Jn317f9ftffbw77697bl99ry+u+19Nq3fmb9ruF2S7TdRv5vctuf12WR7f/dwn0722SWvfV7y+jcT/93l57NH/Wz5/exRt+e2X4R/V21P/Ozxny2v7cWxz0u4PdlnDz9bbp893Kdz+7uF26Uw9vntfTd5fTbZyX1+k/fcVGGNk58AGVKQ1JiQGtKjS5cuNjSxmkURcgHS2yFytIEEAAAAgHza5AXPVA+QXnxOXbFYzObPn+9CY8uWLW3SpEk2fPhwG6z2dgAAAACAIpXSAVId59x///22xx572NNPP21Tpkyxs88+23YNi34BAAAAAEUmpQOkelx9+OGHrVu3bi5EpkIPrAAAAABQVqV8FdbRo0dbhw4d3NiPagc5aNAge1Fd6gMAAAAAilRKB8jNmzfbhx9+aKNGjbJdgt6W2rVrZ59qjCoAAAAAQJFK+RLI9PR0q6FBXANr164N5gAAAAAARSmlA2RGRoZVrFjRxo4da2vWrHHDZ/Tv39/atGkT3AMAAAAAUFRSPkD269fPFi5c6DrQUdtH9cqqIT0AAAAAAEUrpQOk7LPPPnbPPffY3Llz3TAee++9tz377LPBVgAAAABAUUn5AJlo1apV9sknnwRLAAAAAICiUuICJAAAAACgeKRsgNRQHZMmTcoxzZw5M7gHAAAAAKAopWWu3xwL5gtdpQoZwdz2DR061N54441gaRsN7XHGGWdYz549gzVFT73BZmVlWefOnYM1AAAAALBzNm3aZC1atLAZM2ZYpUqVgrW5W7dhSzBXdFI2QKYyAiQAAACAglYSAiRtIAEAAAAAkRAgAQAAAACRECABAAAAAJGkdIBUO8N33nnH/vjjD1u2bJlddNFFdsUVV9j69euDewAAAAAAikpKB8gtW7bYc8895+ZffPFF22+//WzXXXe1//u//3PrAAAAAABFJ6UDpIbs0JSRkWGzZ8+2Cy+80K666ipbvHhxcA8AAAAAQFFJ6QCZnp5umZmZdvPNN9vatWvtkEMOsa+++sr22muv4B4AAAAAgKKS0gGyXLly1r9/f2vevLkNHz7cKlSoYPvuu6916tQpuAcAAAAAoKikfBVWDaapwFi1alX75z//6TrVqVu3bnAPAAAAAEBRSekAuXnzZhs5cqS7VSc6qsb67bff7lQnOurBVVVijzjiCPv000/dc993330upJ5xxhl27733BvcEAAAAAMRL+RJIDeWxyy672KxZs+zyyy+33r172//+97/gHjtGz/fqq69azZo1rXbt2m7d8uXL3XP/61//ctVk33zzTZs/f77bBgAAAADYJuU70VGp4913320rVqywevXq2YIFC2yPPfYI7rFjNJakwuKll17qenaVOXPm2MEHH2y1atWyAw880OrXr2/Tpk1z2+L98MMP9sEHH7hp4cKFwVoAAAAAKDtSvhMdVTfV+I/333+/VapUybWFPP3004N7RLdu3Tq7/vrr7ayzzsoWQFetWmUVK1Z0YVUqV67s1iX67rvvbObMmW6aN29esBYAAAAAyo6UDpCitooKfOo8588//7Tq1au7QLmjFPpeeOEFO/XUU2233XazKVOmWLNmzdyQIAqXqiora9assb333tvNx/vrX//qwqymjh07BmsBAAAAoOxI6QCpUHfLLbfYu+++a2PGjLGNGze6Kqjjxo0L7hFdw4YN7ccff7RvvvnGVUFt3bq1TZo0yU444QTXMY/WKWSqfaVCJgAAAAAgu5QOkFu2bLHff//dhgwZ4qqzikoCFy9e7OZ3hDriUcllOGlMyRo1arjSRpUoXnbZZa6TngsuuMDq1KkTPAoAAAAAEEr5KqzqOVVBUnSrTmz23HNPt7wzXnvtNTvmmGNcZzoKj//5z3/c1K1bt+AeAAAAAIB4KR0gFe7U86qqsaoX1D59+rgxIM8888zgHgAAAACAopLSAVI9oyo0/uMf/7AbbrjBVV+dMWOGHXroocE9AAAAAABFJaUD5Pr1612V0iOPPNKuu+46O//887eO3wgAAAAAKFopHSDLly/vhtlQ9VUAAAAAQPFK6QCpDnTefvtt+9vf/mbNmze3Vq1auenhhx8O7gEAAAAAKCppmes3x4L5Qlepwo5VP1WA/Pjjj4OlbfbZZx874IADgqWiN2HCBDdGZefOnYM1AAAAALBzNm3aZC1atHD9vlSqVClYm7t1G/zRKopSSpdAbt682V566SU79thjrXHjxm468MADXU+sAAAAAICilbIBcuXKlfb999/b4sWL3W04P2fOHNe5DgAAAACgaKVsgBw6dKi1a9fOXn/9dWvbtq21adPG3d51113WoUOH4F4AAAAAgKKSsgHynnvusfnz59ugQYPc7cKFC23BggWuBFL1ggEAAAAARStlA+Qvv/xi8+bNs2uvvdaN/ThlyhTr3bu3jRs3znVgAwAAAAAoWikbIMeMGWNTp0518//73//s8ssvt4oVK1qfPn22rgcAAAAAFJ2UDZDfffedtW/f3s0rTCpA3nHHHTZ69Gj74IMP3HoAAAAAQNFJ2QBZvnx5y8zMdNVVp0+f7jrRkb322sv+/PNPNw8AAAAAKDopGyBbtWplN954ow0cONDS0tKsWbNmbr0G1dx///3dPAAAAACg6KRsgNQQHmrvWKtWLXv88cetXLlybn3t2rXt73//u5sHAAAAABSdtMz1m2PBfKGrVCEjmCvZJkyY4KrWdu7cOVgDAAAAADtn06ZNbshC1bqsVKlSsDZ36zZsCeaKTsqWQAIAAAAAUgsBEgAAAAAQCQESAAAAABAJARIAAAAAEAkBEgAAAAAQCQESAAAAABAJARIAAAAAEAkBEgAAAAAQCQESAAAAABAJARIAAAAAEAkBEgAAAAAQCQESAAAAABAJARIAAAAAEAkBEgAAAAAQCQESAAAAABAJARIAAAAAEAkBEgAAAAAQCQESAAAAABAJARIAAAAAEAkBEgAAAAAQCQESAAAAABAJARIAAAAAEAkBEgAAAAAQCQESAAAAABAJARIAAAAAEAkBEgAAAAAQCQESAAAAABAJARIAAAAAEAkBEgAAAAAQCQESAAAAABAJARIAAAAAEAkBEgAAAAAQSZkJkCtWrLD333/fpk+fbh9//LFt2LAh2GL2yy+/2LvvvmszZ860X3/9NVgLAIVv0yazTz4xGzrU7PbbzSZPNlu1KtgIAACQYspMgHzhhRfsjTfesK+//tqGDBli999/v2VlZdmff/5pt912m02bNs1ef/1169OnT/AIACh8Eyeadexo1ru32R13mJ19tlmPHrqwFdwBAAAghZSZAHnNNdd4J2d3uNtHHnnEXnnlFVu1apX99NNPtnLlSrvlllusf//+tmTJEpszZ07wqG1isdjWCQAKwsaNflj0foa2UuUIhcopU/ztmzebZWXpNyi4AwAAQDFKy1y/uchOSypVyAjmitfYsWPt5Zdf3nr72Wef2T333GNpaWl23XXX2YEHHmg33nhjcG/f1KlTbdasWW5epZjnnHOOde7c2S0DQFSqsrpkidn335vNmOFXW03msMPMmjb1fjcrmVWubLbbbv68Js2HU7gcvz6cT6eVOwAAJcom70ShRYsW3jnCDO947h3Qt2Pdhi3BXNEpcwFS7RwVEl988UU7+OCD7YknnrAffvjBBg0a5LarCqv+WAMGDHDLoeXLl7uSSlGYrFWrFgESwHapBHHuXLP33/cntXdcvdrszz/N/vjDD5TJeD8xtueeZmqWrZ8ePY8CoaYM76d0e7eaqlY1q1492qTX0mMAAEDxIUAmKO4AOdc7i7vrrrvs9ttvtyOPPNKtU6c6CpPDhw93JZCXXnqptWvXzs4//3y3PZkJEya49pMESACqWrpmjd/xjYKe2i7On2/22Wdmn39u9tVXZuXKmVWrtm2qW9fs6KPNjjrKrG9fs48+yl5FdY89zJ5/3qxtW39Z2xQ29ToKn5o0Hy7Hz2v6/Xe/KqyqwCZOCq6J68IQW6WKHzr1+po0Hy7H32rafXezXXc1K19+25S4HD/pO/B+YgEAQB4IkAmKM0CqkxyVLg4cONBOOOEE72SmnFWuXNk76VpjF154odu2efNmFy4nTZrknSh5Z0q5IEACZZdKAlX99Isv/EkBcdkyPziqtPC33/yAdfjhfkDUVKeO2d57m+21lz+pemlIJZLXXGM2e7a/rJJAVYC44ors99sRCpwKhWFY1G04JVtW2FToVAgNbxOn+PWZmX4YVDBUaAyDYzifbF2FCn7oDEOo5sMwGj+F6ytWDD4MAABlCAEyQXEGyCuvvNJeffXVYMns0EMPdW0g999/f3v77betd+/ergRy6NCh1rp16+BeyREggdJNITEsnVu/Xu2ezdQEWtMHH5itXeuHo1128W9r1jTvx96fmjf3SxhVlTQqdZKj6q16Xj2HSgJTmcJpWOIaVrFVgI5f1m046XPpM4aTAm78cuKk7QqdYeBWFdv422TzYZvP7U0KvuEtAACphgCZIFU60dlZBEig9FBgUeBZvNgvWVy0yJ/XpHmtU6CpXdsvSQwnhcTwVqWLyN0W79i2bl30SdV185pPXKfArzCvzoZ0rA2nsEOhxE6I4rdFmVdpKO1DAQBFgQCZgAAJoLgpDH73nV9lVKV+KlH8+efs1TpVAqgeUFWaeMIJfnVUhYiwOqbCCgpPWEKp4Bl/m2xek6rU6iJAOIWloOG8SkvDdZpXCWp8qWTY+VBu82q/qaq1YWln/BS/LpxXNV0CJwAgPwiQCQiQAIqCSqXCAKFJgVHtFdWpjW7Vjk+d2YQn/qqCqn611LGNJpUsEgBKJ4VTlVyG7Tk1xXdElGw5bCsa3uY1r3Cq6rEq9YzvdCic1218W1BNumARXpxQleiw7Whu8wq0AIDSiQCZgAAJoDCo/V3YqY0mVTsN298pQOqE/tBDt3VqozEW4zu10Qm9SpqAZOJDYrLb+Hl1SKQ2n4khNJzUGVH8Nl3skPigqNv4+cRblYaH4TO+M6Jk4VTL6sCINp8AUDIQIBMQIAHkh6orxp+k//CDX/U07Njmxx+3dWijE2z93oZVUL3fYBcadRINpBrt0+q5N7zYEX/hI/FWU2KHROEUX7U3flKJq/b9+Gq2YVXbZLcqmVfbz8RqvHlNhFMAKDgEyAQESABRqE2bShHjO7KJ79xGpTiqdhrfmU04aXn//amCitJJVWSTdSaUbDlxXZT7K4jqQozOWeI7FEq2nGx9svskblfoBAAkR4BMQIAEkIw6Npkzxy9NVOc2Cxb4VQHDUkeVohx7rF+iqKlxY7+aXljiqNJHSkGAnMIOicIpt5JKTWGHRHmVgsaXhoYdEunfXpSSyvA+Gus0vkQ0fj6xVFT/zrkYBKAsIUAmIEACZZNOMsOeMDWp11MNwB+2WVSVVHUkEp5A1qhhVr++37GNqp82aMDA8kCqUehUKWZ8G8+8JtUc0IWhsCp64m3iOk0KnPptCNt0bm8KOyRKbDea2zo6JAKQagiQCQiQQNmgk8Qvv9zW6+n//me2YsW2kguddB544LZeT484wqxWrW0lESqhYKgMoHRRaaguJiWGxNzm16/3Q2d8CM2rx1xVwVVpaHxQzGteU9ghUXzHQ4nL8fO0pQZQ2AiQCQiQQOmgE8HwZE9hUaWLc+f61U81ffaZX+0svMqvky6VImpMRVVBbdLED4oAUFAUTsNqtmGNh/CiVbg+flnVdcOqu7qNn0+2Tr97CpzqaCisYhtOicvhpPuHVXfjq/nmNk9VfAAEyAQESKBk0omZqp2qI5twCju50bRsmX91Xp3YHHRQ9k5tNKm0McJvIAAUGf2uqTZEfGdCOzqf16TgqQto6jgot46Gwvn4W40hGn+f3CbdR6ETQOlCgExAgARKBpUqfvqpX5r4n/+YffyxP3xAWLVs82Y/GIbDZKhkUT2fxlcN48QGQGmS2CFRbpPup/Co6rdhqWey28R5PVYlkGFp5PYmlVyqem1Y+hl/G07xy7qvHgcgtREgExAggdSgExW1GQpPXNQ+cd48v92iJvWCqhOZ+MH2FRjVoY06ttGkdQCAnafQqSq1+l1ObPepZbX1jF+vC3phT9Vhu9Fk8+GySltl9923tefUpOWwjWfiNpWEhs0QNOnCYPxy/Drd0m4dKBgEyAQESKB4KDB++63fqY0m9YC6ZInfTkhXwDWQuTquUUBUpzYNG/rjKaqtj65ga5va8tA+BwCKnwKnQmFYKyQMiolTuF5hMz6Uxnc+pPnEZVXTVWmlQmF8SEw2hduSdUik+cTlcJ4OiYDkCJAJCJBA4dHJhE4SNOng//XXZu+/708ffOC3ydEBW5MO+Kpy2rSpX/1UU+3aVG8CAPjBM7zAGGUK23zqYmVet+F82CGRLlAmTqrdEl68jF/W/cOqu1FuueCJkooAmYAACRQMHXx/+cXsu+/8Dm10G3Zqo9sff/QPoAqF6tQm7NhGy2GnNjowc4AFAOwsXcDUhcuwg6H429zmdatqu7qNn5KtU/BUKafOpdV5UHynQ8nWhfOaVBU3nM9tne6vYyaQCgiQCQiQQP7o4KmQOGuW36mNJrVb1EFb1ZPUqY1+Y/7yF3/yfnfssMP8K7Y66Koakq7KAgBQ3HQRNCyJ1G1e8zr+qf2nSjrDdvt5TSo51WPiOyTa3ny5cn712rDNfzjpQmvYF0A4r1vdV48DCgMBMgEBEkhOB0tdkVWpYjipZDHs1EbVUdVpQngA06SB9w8/fFunNipZpEQRAFCWKXSq1FLtOeM7Hgrnk92G7UTDjoeSTeF9dOFW4VGdDoUdDyXeJq5TiWfYfCTKpECLsosAmYAACWyjEkQNuK9ObXSr6qfqzEZXTzUpVB5xhN+hjab69f3gGLYN0QGJK6AAAOSfjrVhbZ4oU9ghUdjxUPxtsnXr1/uvE3Y6FGVSldowiMZ3RJQ4H94qdKL0IEAmIECiLFEVmrBTG00//OB3ZqNObebM8dsp6kc/7NhGPZ0ee+y2Tm3UGyrdogMAUHLp+K+Lw/GdDukisarbxs/rVssqPQ2r7mra3rwCsAJnfMdDyab47WEppy5Cq3lLfAdEifOaULQIkAkIkCjN9KOvdoqaNGRG2KGNgqNu1THAfvtt69RGw2SEHdqoc5t99yUwAgBQlqk0NLHDofgpcZ2Ww0nnGYmdEIXL4a2CpwJk2NmQJmWU+OXE9boNp7ADoviOiOLXhb3lIv8IkAkIkEhVuoKndoYLF5o1auSHuu1RO0WVKL73nt+pjR6vzmz0469b/YAec4zZiSf6Hdscd5xf1UQhUVf+NNFmEQAA5JfOXzQpGGoK55PdqsRSVWvD0k+dx4SdD4WT1oXbVAVX5zNhZ0NRblViqdLOxA6JNIWdEIXzulU1XD22uOh7+fBD//M2a+a/v+JGgExAgEQqWrrUrFcvs4kT/fCnq22XXmp2663+D4vaKuqH5aef/JCoQfg1/fyzWZUqZjVq+D+E++xjduihfoc2aruoeV2JAwAAKGkUPFVqqdCZrPOhxHXq7C++4yFV341fTlyvcy4FTp1LxXc6FD+feKs8FXZIlFvHRPHr8+qQaMECsx49zAtq/mfV8994o9n11/vvqbgQIBMQIJFqFBDPOcfspZeCFXHUHlE/KGq7oEnVP1T1VKWKmhQU1ROq2i5qUukiPacBAICySOdUCoXxnQ7FLyduU5BU8Aw7IIqfkq1Xh0QqrVRNrrDDofj5ZMu6kK/zs3BSEA1v77vP7KOPgjcf0P2feMKsS5dgRTEgQCYgQCKVKBx+8YXZX//q/zAl0o9IWP1U1RqOP97/wQEAAEDRUqll2PFQ/G3ifLisNqJhp0PxHQ9pUoDV9mQuucTsscf8MFocCJAJCJBIBSpJVE+ob79tNn262ccf+z8qidQT6quv+tVTAQAAUHKoxDO+w6H4SWNs9+wZ3DHBRReZjRrll2AWh5IQIIux2SpQtNTWcdAgv+ppx45+1QX1GKZqqGr4HU/LDRqkRmNqAAAA7BiVIKrmWM2aZgcfbHbUUWZNm5q1amV21VV+7/eJ1BRJTZiKq/SxpCBAotRS3fpPP/WvIikwaiB+VUk47DCz22/3O8RRKeSkSX6nN+FYR/rR0A/MP/9ZvD2DAQAAoODpXO+ZZ/y+LcJCBHW+066dmSoYJhYsIDuqsOYDVVhTm7qhfu45v1fVb74xW77cb8OoBtG61diL6mkrnsZufOcdf+xGlVC2bJn8yhQAAABKPjVfUk+s06b5nSVqGDc1Xyru2me0gUxAgERhUENodYKjoTUef9zsxRf9DnA0DlGnTn41BZU+AgAAAKmMNpBAIVq2zOz5582uvdasTRuzDh3Mvv3W7Oab/fVz55o9+CDhEQAAACgoBEiUOGq72K2bX9W0a1ezsWPNGjc2mzXLbOZMs8GDzdq390sgAQAAABQcAiRSnsbyee89s3vv9dswqnes//zH7OST/U5xVOo4erS/Xg2g6fgGAAAAKBycaiMlxWJ+SeMtt5j97W9mZ55p1r+/3wHOhAlmkyf7vWdpsNd99gkeBAAAAKBQESCRMjSw6/ff+1VSTzrJL1F84gm/lywFybDNo4bk0Hg+u+4aPBAAAABAkSBAolippHHhQrORI/3SRAXH7t3NdtvNb8uoMRpVXfWGG8z23DN4EAAAAIBiQYBEsVBw1Lg7qp569NFmPXv6g/r/4x9mX35p9tprZjfdZNa8uR8mAQAAABQ/AiSKhKqh/vij2ZQpfjA85BC/KqoGbr3oIrNXXzX76Sez2283O+AAs112MUtLCx4MAAAAICUQIFGoNMj/jBlml19u1q6dWefOZuPG+eHx9df94Pjoo/4YjupBFQAAAEDqIkCiQKlq6po1ZvPnm913n1899dRTzd54wy9ZHDXKb/OoAf7V3nG//bydkL0QAAAAKBE4dUeBUBXVOXPMBg40O/dcsxYtzIYMMTvuOL+DnDff9Ns1qgSyUqXgQQAAAABKFAIkdsq6dX6pYv36Zi1bmt1xh9/W8f77/VuN1XjppWZHHOG3awQAAABQchEgsUM2bTKbN88fq7FrV7O6df0xGvff3+zmm/1SSPWiqt5U1aYxIyN4IAAAAIASjwCJSDTI/3PPmZ11lt/hTbduZp98YnbjjX77xhdf9MdtPP542jQCAAAApRWn+khqyxazFSv8kNirl1/CqJ5Uv/jCH5tRbRq1rU8fv51j9eoMuwEAAACUdgRIZPP772aTJ/slixpqo1kzf7gNjdX49NNmM2eaPfus2YknmpUrFzwIAAAAQJlAgISzZIlZ//5+Zzinn242YoRZ1ap+SaNKHYcN86uvaigOAAAAAGUTAbKMWr/e7L//NXv4YX+cRgVH9ZjatKnfg6o6ylHbRo3VWL481VMBAAAAECDLnOXL/YCoYKiSxuuvN9u40S9xfOstv3rqddeZHXIIoREAAABAdgTIEk7DaqxZ4/eSmsyGDf54jGrXeM45ZgceaHbnnWZr15pdfLHZ/Plmb7/tD8lx6KFmlSsHDwQAAACABATIwH//+1/r27evDRw40AtcXuIqAT7/3C9BPO88f7D+CRPMYjF/29KlfpXUq64ya9vW7NxzzX7+2ezWW81eeMHs/ffN7rnH7OCD/fsDAAAAwPYQID3z58+3s846yxo1amS77rqrtW7d2tatWxdsTU3hcBqqeqq2iuPHm51/vtkDD/g9ptar5w/mr/EZ//IXsw8/NHvvPb+jnDZtzPbYI3giAAAAAIgoLXP95qDMqvBVqpARzKWWkSNH2k8//WR33XWXxWIxa9GihfXr18/at28f3EPjIm6xrKwsN/+il8o0f66K9YrB5s3++IvqACcscYyn9ouNG5v97W/+VKNGsAEAAABAytq4caP99a9/tRkzZljlCG3L1m3YEswVnTIfIBUEBwwYYEcfffTWQHjttdfaUUcdZVdccYVblmHDhtmz6mHG89tvv7mgWa1aNbdc1JRjFy/W+whWJNCg/rVq+b2nAgAAACgZlDFUO3Kxd7K/9957B2tzR4AsBlEDpK4GbFKPNcG8lC+jCU079sMPP2xNmjSxZs2aBWuBojVv3jxXG0C1BdLoMhjFIDMz09VUmTZtWpk9HqB4bdiwwQ499FB3srnbbrsFa4Gioxp6Ol9+8MEHbffddw/WYmfoPFv/tqtXrx7p/IYAWUxUhfXnn3+2O++80/3RTjzxRNehTnwVVmT3wAMPuPDYXA0xgWLw9ddf2/PPP2933HEHARLFQm3lW7VqZbNmzbJddtklWAsUnT///NP2228/++GHHwiQKBYKkBdffLE7lyZAFo/iCJB0ouPRCcDTTz9tr7zyit1///22ZMkSa9myZbAVAAAAACCUQAbef/99e/nll61ixYp22WWXWe3atYMtSOa7776zPfbYo9jagQJr1651F3vq168frAGKlq68z54923W8lp7O9VgUPTXDeeutt6xNmzaWkZG651govVRz79NPP3VNv8qVKxesRVGiCisAAAAAIBKqsAIAAAAAUhYBEgAAAAAQCQESAAAAQImltpgoOrSBRImzevVqN+6aaPwrjeEJFKU//vjDdVyxfv16q1OnDuOhoshpXOIPPvjADTStYRzUkQ9jUaKoaTgldaCiTvU0NvRee+3FsEooUsuWLbM333zTNm/ebMcff7wdccQRZW4fLI42kBl9+w24PZgvdOXLUeCJnaOeNy+88EL7/fff7aeffrL77rvPnTwpSHLQQlHQifuQIUNs7ty59ttvv9kjjzziLmrowEUviCgqr7/+uo0aNcr1BKsexOfMmWOtW7dmPEoUGR2Dr732Wjev/W/ixInWrl07q1ChglsHFDYdg8866yyrVKmSu7Crofhq1arlzgnLkk1FVxa4FYkOJcqCBQtcqc+DDz7ofigee+wxN//RRx8F9wAKly5eaBibYcOGuSA5duxYmzJliv3f//0fVWhQZGbNmmXdunWzO++805588kl3Ff7mm2+2devWsR+iSLz66quu9sXdd9/tBpFv0KCBdezY0VasWME+iCLxxRdfuH3t9ttvt/79+7t98a677rL//Oc/wT1QWAiQKDH0I1G5cmV3cPrmm29ciaMOXjfccIM7cdLVUKCwaZyrjRs32ieffOL2wUMOOcRGjBhhkydPtnnz5gX3AgrXbrvtZl999ZWb32effVyIVHicNGkStTFQJPbdd193LNZ+p/3xn//8p6vGqppBf/75Z3AvoPBoLHKd+/3www/uHPEvf/mL3XjjjW7inLBwESCR8jRQsuq268dh//33t7/+9a/20EMP2S+//OIG79ZyZmamzZ8/P3gEULC072kf1L6oE6WWLVva4MGDXfsfnazXq1fPDjzwQNcmDSgsqj6tKqvaH0888USbMWOGzZw5023bc8897dRTT3Xt0YDCot/BcB9s3ry5bdiwwV555RW3TdUIe/Xq5WoK6ZgMFIZwH9Tx+LDDDrOzzz7b1UhTFVZV4Vc1avn+++/dLQoHbSCR0lRdcODAgfb000/bc8895w5QnTp1ctW3Zs+e7a6860ClBtRnnnmm1axZM3gkUDBUZVoHJ7U3e/bZZ90+ecopp9iPP/5oU6dOtSpVqrgLGdofjzvuOFciCRQknTC98MIL9sADD9jzzz9v//vf/6xp06auze2YMWPcidTuu+9uX375pTuB0ok9UNDUzlHVA3Us1u+dqqwedNBBbvnnn392pUFLly51F3Pbt29PW0gUuOXLl7uqqtrnxo8f7zoOO+2009zFWzUlqVGjhitc0LH53HPPtb333rtM1MgojjaQ9MKKlKb2jbqKpGqqaiytqqoKkPrBGDdunDuh1w+GOtbRpOqFQEHSQelf//qXa2+rqqu9e/d2J0233Xabvfjiiy5Yqmr1CSecYLfccovtuuuuwSOBgvHtt99av379XJtbXXkfOnSoO1G/9957XWlPWH1VF9AGDRrkSsOBgqQSx+7du9s555xjBx98sOswRxd29duoC2hqA64q/JpXFdbGjRtTlRoFThcwdIy94IIL3IUK7Wtt27Z1bW/VJlcX2nQxrUePHq5GRlnp2K44emElQCKlqU2FfiwGDBjgDkzqLEcdR+hHpEOHDq50SCdUKpnkYIXCoCudEyZMsJdeesmdROlCxmWXXWZ/+9vf7Oqrr3ahUlULtZ/SAyYKg6pK33HHHe6Ku37vdFJ0/fXXu988lY5rnaoS6gIapT4oLLpIqwsZqmWhffDhhx92wxk9/vjj7kKujsei4zFQGFSIoAtkupihc8L33nvPnSeqEx0dk/VbqBobZe1CbnEESOqUIqUpJKq6qsY6UzWtRo0auSvsKvXRkB4VK1Z0pT+ERxSWY4891pXyqL2Z6OqmqtCo9EelQDpQaR8kPKKwqKq+jB492p006YKFSsJ1BX7hwoUuOGofJDyiMNWvX9/1Oq39TSfqGsJD7b9VnVX7pYIj4RGFSUN2TJ8+3Z3/6ZxQneb07dvXtcNVx026sFHWwmNxIUAiJekKkqidz0knneSqsKr0Rwepo446ym3TSRRQWHSCJLrargOULlyo7ZlOng444AB3kFKpD1BYdIKk3z0N0n7VVVe5Eh9V0dI+qAsZat9DZyUoTNr/wv1QbcpUC0i/hzoWa52q84clj0Bh0fFY+6GqRutChqqsav8THaN1ATdcRtGgCitSkgKkOoto0aKFK2VUiaNKgE4++WR31V0lkarjTqkPCosORuqcSSfr6pQkbLSvHlg15p4OaKo+qP0TKCwff/yxzZ07184//3xXG0PVBdXzoKhDCXWsozAJFBaNe6v2jhoaQRfRdCFDnZeoLaSqV6ta4ZFHHhncGyh46rxObb31O6iLFxp39MMPP7RjjjnG9ZPx97//3V3g0LayiDaQKLN0BVPVBBUIdVDSSfsTTzzhSh8PP/xwV9KjcX7Uy6DaWhx//PHuAAYUFAVCdVaizkjq1q3rSn3C7ulPP/10d1FDwfH99993JT8qHdeQHkBB0thlGut2v/32c1VXtb+pnU/Pnj3db96vv/7qBslWlVXVxqDnaRS0lStXumYje+21l9WuXdtVkx42bJjre0AXK3QyrwsbOi7reK1qrGX1xB2FY82aNfbf//7X7W9qRqLjr3qcVgeKtWrVcjXQtF+qGYl6/9Vvoc4byyoCJMokHYRuvfVWdxVpyZIlrnqCOozQmI9q26h67Tqpr169evAIoGApPOqChXoWXL16tWukr/HMVPKokkidHOlApYsXmqfNLQqaqmep63mNL6rq0QqLXbp0cVfctb+pbY8uoilUahv7IAqafus0jugVV1xh++67rzvuapxl/RbqYplO0HURTUMX0dYRhUX7mPY5/Q4uWrTInQuqzwFdVNPvnsKlzgt1PIaPTnRQJik4qh2PqmZpaA5dzVRVhHCQ9k8++cSuueaare0igYKmK+7a9x566CF77bXXXPuKPn362Ntvv+0Cow5YOqCp+hZQGHSyrirR99xzj+vxVz0Lqr2jqg4qPGqQbFUhfPnll4NHAAVLx1jte6qSqt9DDZGgUh6VPOpYrB6nVRKpsZl1wQMoDKppppJtdRqmpkxHH320u6ihUnFd5FCNDC1rf0TxIUCi2KkqggZ+1dXNOnXquINX586d7e6773bBsmHDhu6kqixXT0DhUgmkqg7qJElXNTXGlDpu0qQTqKpVq7r9UQc1Sn5QGHRCrn1QJ/F77rmnK/nR8EW68j5z5kxXAqQTeQ3Qzj6IwqKLaaoVpCrS6mtAY47qYq4uZqjkW30P6HeRKqsoLNr/tB/qd07VVXUxTX0PaBxcrTvllFNcgQPNmIpXRt9+A24P5gtd+XL84MCnkyRdPdKPgQ5U6pZZYVHVV9UVvXp2U3Wu1q1bu5MptUcDCpIuXKgtj/ZD7V86edeJkhrlq3qW2v588MEHrsdV9fKm/VAlQUBB0e/gjz/+6PY/nQzpQsbkyZNdhySqsq+2tqrCpWrV6q5e6xiqAwVNF8n0e6j2ZgqGjzzyiPvN08m7js8q/Z42bZp16tTJXUzTOqAgaR9TTR9VW1UV6X//+99uzGWdE+q3Ue1x9dt4xhlnuPtQhTq7TUXXGnErEh2KnE6G1OZR4/moraN+CLp27ep6WlV1LZ3U6wdEHerohAooaDpZGjFihCvp1r6ntmXqpGTevHn24IMP2s8//+xKfNTDKlW1UFjUQY4ukqnaoE7cu3Xr5sKkSh3VqZhOnHSyrt9BuqhHYVB4VHVAjaunC7raHzWptDsc31HHY/0Osg/i/9u7E6ivx/Tx4/cMYyxD1hzMyDJSytoiTExSoYRITFkiQmKEsVWyNZN1yBotx6SGrGkw1pAllGQLWbIMw5HBNGPGz8zvvC/P/czz69/ffPH5PFvv1znf8yzfp6c65z73576u+7qvuwz0FyA5QbM6ji/RVPGwww6Lpjnjx4+PHUnGJmPR53H9YRMd1SoOPnMJOw8k6tq5lJhAkoU813SQ+SQTxfuUrnLmx6s6VCR2fSZMmBAtwCnHotMq5267d+8egSQlW1yPwI4jrrrqqsi6S0XjrA/XcDzxxBORVGMeJHlBeRa733QXpOsq86TdVlUkgkG6XPbr1y9dffXVqWXLltG8hOctnc+5quOuu+6KRBoLeMYpu0FSkRhbgwcPjk6rJC4mTpwY1xVxbIlE7+jRo2MnknG4//77x0v/L7uwqtGbP39+PKyGDh0amXV2HbnXkeYRZJhoX09JFw+xXM4qFYlSaZIYRx99dASONMthDJK0OPjgg+PcD92ASXYwBvm+VDQy6dyvx+4j5xpPPfXUGI90WR04cGAEjgsXLoxzt5RvSUUigDz77LPTvffeG/MhSQpKA0lgtGvXLsYjO0N8TRk/namlolGRxg44iVu6rbLLSBBJ85wpU6bEbiSJXcqrGYNuKCyZAaQaPRZELIyaN28eDzAmCLoKMlmQbYIThMpGcMhi6aabbkqTJ0+OhRSZUBZNU6dOjfeksrFAP+OMM2LHkV1xyqjPPffc2BknocZLKgMJDBbrVF6QQKNckGuLOHPbqVOnuNZol112cQyqVKwDSeIyFzIHUq5P6f7xxx8fu47Mh/rvvMZDjR4lWWTZmTR4MLFQ53OynP3794/GOVJZGGvI465Dhw6xUKJki3vPuGdKKlMeg2B3m0Y5LN5pEEG59O233x5t6l24qyyMQYJHPjLuKBPkInbQOIcdR0r9HYMqS54H+UjFBQ10OHdLAElygyZ2VAup/jKAVK1hoiCbxKSQH0x0teR6DnZ+OnbsmLp27Rrfl8pCoyZ2wRmDlMyQ1GBssgvENTLugKtMjDua59Akh0QGlRfcP0oZ4QEHHBBl/XRhlcrCGOSahHvuuSfmPkqoc6k+53F5jx4EUlkYg4w9GoZRts/HF154Ic44UhFEVRrXaan+MoBUaWiG89prr0VpAnXsCxYsSDNmzEizZ8+u+omvJhHaNXPWjB1I7/VRkShVpSSLMxQkLjhvwQLpjjvuqPqJr8oIaWDC+VxKCMnMS0VhJ4crYhhfZNnJrtO8hHv1SJ5RvkXZNE3FmA9JYnBdh1QUFurctUzSguCQXZ5Zs2bF7mM+OsK45DgJXag5WsJOpFQkrsyq2VmfZ+9zzz0Xc2OLFi2iAqNz584xFmmis+2221b9pOojz0CqFHTNoklJLkegPIavwY4PO49MJnR9Y0Hfs2dPG+aoUCQtuPyfAJIW9XSx5FwFJYM0cGKnkXOPBJmvvPJKPMBsmKMisXC/4YYb0p133hlzYtOmTaNhBPMhiQrmPBbwjEV+lgBSKtrcuXNjh4cxyPO3V69eaY899og5kjmP5zQvFvIkcWnc5FhUkWiQyM4iVRactc3zHYldzjryOXMhSbU89hyDlfMMpBoFJgbKD+iaxeKJJhEs0Jk88mXs1113XXS8ZDHPvT8GjyranDlzYueRscYZHxZKNCdZtGhRLNg5Z8YZSNB10OBRRSNBwVUIJDImTZoUgeO+++4bC3rKVzn7zdfsDrlYUhkIDOlw2bdv39hxJFnLM5nri/Jl7L/85S/T9OnT4yz4T3/6U8eiCkWQeMwxx0TlRS5VzUjmkkxj55tr29hwYPw5Buu/ZU4bOnxE1eelW25Z49WlBWd8yDjtuuuuUQrDwunuu++O6xHatm0biycyoTywCCilohE8ctfjbrvtFiWBjDvKqNnxpstgvqSdazssnVYZWLxTFrjTTjtFkybONpJE4+oOznwz/pgL6Uq9wgorVP0pqVgkdFu1ahVHRWhix3UI3PPI85fGYTyDaVridTEqAxVAlO+PGDEi+g+MGzcubbTRRrE2zEdGqM5gjtxwww09RvItfFF7xaTVDCBVqFyWQFkg9ezt27ePBxQLeBZLw4cPT4ceemg0L+GBRrmCVAYymeyAk6ggq062nbHIbuSee+4ZJa1t2rSJBbxUBuZCdnY4d8ZF2ZRqsWhnJ4gyQV7MgwaPKgPPYxbjnMHlzCNJC8Ygi3e+x4tyQsYh1UBS0XgOM+aY/3gWk8ilFwHN7JgLwYYDVUAGj9+eAaQaLEoUKFPNzR9oBEHzCDJNfE5mk2w8Z4EOPPDAWDBZoqAiUS5Ig6YmTZpEYmLVVVeNzynXYnFEa3rG3IMPPhg745RYOwZVJM7wPPvss1Einec4xh3t6UmqMReymKK8mkU7O0GOQRWJoJHmdTSxY47ja5IUNG2idJpxx/epEOK5TRm/i3YVjbJ8SvTzrnbeLGBuJFh8++2343gJSV7GJ9UZzoXfngGkGiTKEzhDwWTAQr1ly5YRLNJBi0X9xIkT47wFdzxyDsMHlorG4pyrECiRYUeRnUUeRpRsUR7IPXuUcT322GPxNW3rLZ1W0dhZ5KwPZVp0VSVYpDRrhx12iPFH6SpJDhZXtKvPZ9Ckorz66qvRqOnpp5+OZzHPZBbt7DRyjOTWW29Njz76aLrvvvvSYYcd5t23KtzChQvTUUcdFd3OKY3mlavTwEeev1dccUVc4bb33nv7PP6O6iKAtAurvhMmBZpEjB8/Ps6V8XAaPHhw6tGjRwSRPLjotMruJPXtLN6los2bNy8O5++zzz5ROs0OI5cTg8wnJTO0C6eMmrIZy1ZVNLpKn3LKKVEmeP3118dcR0IjdxXk/eeffz6SapwJZxdIKhLlgty1TOKCscbXZ511Vux08zmL9JdeeikSHCTXSG5IRWJNyHqQRBm7j1zdduaZZ0YCA8yFjEWaKtJ/gG7A+u7qogurAaS+s08//TSuSiDbSZkMTSPosMo5MxbuPMxsUqIysQP5+uuvx6KI7qoXXHBB6tatWzrkkEMiiUG7ekpapbKwcHrzzTfjbC2lW3RepaSf6gwuyiaR5t16Kht361Hhw3OXu/Q4f0t3S86BMz45ZyaViR1Ixh3l+2PGjEkzZ86Ma9yoxKB0msQFR5xIaORdSX03BpBq0FhAkVmaNm1aGjt2bDrooIPSTTfdlIYMGRLNdKTawM43bcKHDh2aunbtGosmFu7cAenDSrWBeZAuwMcee2wk1ui8yiKKMlZ3v1UbGIPc+8hOD4t2Fu+XXnppdKZ291u1gTUhgeK1114b/S+4so3mOcyDdvwtlgGkGjweWizgeVDx4DrppJPi5Q6kagsPLdx7771RxspZ3CuvvDIW8VJtyGOQXce99torMu1UZ9B9WqotPI/pUUDvAaqEJk+eHGdzpdrCGKRCiPJ+NhRGjRqV+vXrV/WuilIXAaSdTPSNMBHQPYsSBSaGxVE6Q0kr2fZzzjknSmcMHlUkMposzMmq8/ni8i4jrcF79eoV2U+DRxWNEi3KBZkTF8cY5MX5H5qUkHE3eFTReNZSLk3H1SXhecxZSH6GUkLO3kpFYuxxHQz3PC4JY5D7v5988sl04YUXpj59+lS9o4bOHUhVjIfVsGHD4iJ2mpHwQKIl+OIILD3vozKwu015NC/G40UXXRQNc5ZUmkqSY/nll4+zQFJRmN/o5ktyjGYklKlyvoeztovj7C1XJXjHnorEDjfNcLhTmXmwS5cusbPDfLc4mjexgOcKGalIjCu6TnNMhLUgzXNYGy6ORC9BpmOwPO5Aqt4iy37++edHg4ipU6emHXfcMTpfsoDi7rPFGTyqaIwzkhZkMrkahhJpWtX/+c9/joV6TSzyubTY4FFFYlxxFQKJtMsvvzyuLpo+fXrsRFIqWBOLfO6CNHhU0Qgeud+WKh/u0SOpS2UQTetqYgyS2HDhrqItWrQoGoX17NkzGidyrpZAcknVaZTwOwYbHwNIVYRAkc5ZAwYMiAXRyy+/HC3qe/funSZNmlT1U1/xjkeVgZ0cHlqcpdhkk01iEcX9jhzMp00472eOQZWBJAalWnT5bdu2bVqwYEHcqceZHpqGkZHPbNiksvA8Zvdxl112iXmP843c6XjAAQfEsznLpdRS0agya9euXTx/2fmeP39+VGJQovrAAw9U/dRXHIONk6ssfS0ymLw4x8MCic5ZdFnlTkc+0mGVC4kXzzhJRcljkHOMLJpoR88uJGWEXNxOgxwWTXS95OekMjC26KDKvWVt2rSJ4JHGOHQXnDBhQuxAEkw6BlWWPBd26NAhde7cOSovbr755uhsyVjcaKONolGOY1BlyWOQklXuXabK5/bbb49r2+64445oGsZYdE3Y+C1z2tDhI6o+L91yyxqvNiSUw/BgIpvEjg67Pkwc3CPVqVOnuFePr5955hkvg1UpuHSdRAWLIj7fbLPNYiyyG07pDKXSlKrec889UVZta3CVgWTFuHHjoly6WbNmsWhaeeWV0+677x6Ldsq37rrrrrTlllvGtR1S0V577bV0zTXXROUFVUDMdZQGcj0H8+JKK62U5syZk5ZddtmYC6Wi0biOeZCSacrzueeRNWCrVq2i2znz4ocffhjJXOZG1Z4vaq+dTTUjOi0R2XTuzeNhxYOL82aUZ1GKQBaekgWynzQx2Xrrrav+lFQcMph0UKWDJWVal112WdzvCM71NGnSJIJKzgHx9frrrx/vSUVhccRiibJpyqcpmSZQBIt3kmicD+ccGrvgP/vZz+I9qSiMQfoNdOvWLRbw7HhfddVV8fwlmUbTEpqUzJ49O6qBvCJBZaBklR1HyqVnzZqVTj311OhEzZqQYJL5kHUjmw7sQqrxM4DUEj3yyCNRtnrJJZdEkEjQmBfvYBIZPnx47Er6wFIZWJDTJIfW3zRwYnHOgytjAcX4ZKf8vPPOi4eYVCSSZkOHDo3xxRgkqVZzHgQNnQgyCSzdAVfRWJTTsImGJcyFfE5St2bDHMYeHTBHjhxpIk2loEyVa7EuvvjieO5yNQxNczIq0X71q19FNVrHjh2rvqvGzBJWLRFlCOwsrr322rG7QxkrOz55t5Hyra222irOYRBcSkWjUQRdf7fZZpvItHNInwcW5dOgVItywe7duy+xdbj0XXFFAhl2zvfwkSsRHn744RhzGWeBmAcNHlUGdriptGDxzjxIuTQXsu+0005Rvg9KCSll3XTTTW1YolKw28g8x9qPZO2UKVNiPUhPAjD/0Vhs++23j2ezapclrKo3mAS22GKLKJ/hgcRDC5wBGjRoUOwOsbh3olBZCA579OgR448XZdMsoChnZUfowQcfjIeWCQyVhcv/me8oz2IM8pHxxrzIIp7yahJreX6UisbYorsqidwcHHLeEVRksBvEc5hzkfl9qWiUULPmY+4D5fugmdjpp58emw7Ml8yRWjoYQGqJOH/GiwdSnjDIxp900kmpefPm1VknqSyMvzz2ckc3FlEsmEhktG/fPr4nlaXm+Mufs0AieOTcI90wpTIx7nh9+eWX1WOQRBqNnUhuUKHBvCiVibFXc03IRyqCuD6GJk5Uq2npYgCpmBQ4hJ8/5/W3v/0t7jojq8REQYaTM4/sSh533HGxGyQVJY/BvFDiaz6nRT0lgyyYWLhzBujZZ5+NS7QtW1WR8tirOf74SGdLrorh+8yFXB3DWR/OAnk5toqUx2CeC/MYfP3119PgwYPj3Dco52cM0hGT82aMS6kojDnuvM1jkDHJkZITTjghffzxxzHeeB6z83jMMcekvn37msRYCnkGcinHZDBmzJi4v4dgcfPNN4+H14gRI6JUq2vXrjFZsPvIpbFHHnmkE4UKRXdLGpFMnTo1SqPZWWQM0nWVLPv+++8fJVssnigXpJkEH6WiMN64CoaSVBritG7dOuY/Ol4yFzLvUb7Fz7G4uuKKK+JrqUhz586NLpYkKbhrmbJU5kQaOXEPM2cc8cknn0QASR8CqUh0+r366qujaQ7BI9cUMe+dfPLJsdu93Xbbxc8tXLgwurLScZUEr+pWXZyB/N5f/157f+tKy1sbXZ/Q3e3AAw+Mu8sIHE877bRYtHfp0iVNnz49zkHm8z5MIHkXSCoKmc3f/OY30dGNMxZc28H9USzY77333hiD7DTmTDwfPXerojHWSKQdfPDBcbaWMTZq1KjY7aar5WqrrRZjD8yFJtFUNM6SEST2798/mjXRuG7s2LGRvKUiiGZNGbtDjFF3HlUkNhF+/vOfxxikMRPHRbgyhoQa520JIPMakDHKGDR4rB8Wff5l1We1xx3IpRgLJXYg2dGhYQklCjQo4UJYsk55oZ7LFZwoVLT33nsvTZs2LYJIEhks0lnM03GQc7bLLbdc/BxjkPHnGFTRWJwz/ijN33nnnaOzJdn33r17xy5Qvh6GMZjnQqlILMaHDRsWVyAccsghcT3W/fffHx2nmzZtWt1tNWMMGjyqSCRoqQRizuO4UqtWreIe8DXWWCP6XnCtW83nr2OwfrELq2oVB5+POOKI+JyJgK/JdoKFPLtDUpnY2RkwYED1eUZ2eyihyci0S2WiyoKMOwsm5j0W65RVZ1yjIJWJZG2fPn3SbrvtFl+zw03igkU9nAdVNtaAnKel+id/zS4kR0fyejBXYUgwgFzK8CCiBAss1jlTkScFMkp8zp1TAwcOjDJWqWg8iMi4Y8UVV0xt2rSpzmSS4cwH+Dnjc+mll/rQUuEYY8xzYN7jTj3O2TIOeTHmeHEejS6DeSEvFYXxlZMTzHuMQc488v08Dnk9+eST6fDDD3cMqhQ8ixlbjDWSaM2aNat+5uYdRyrT2Gx444034msJBpBLEXYX6aJF57Y8QYCJA2TiuR6BHSGCS1vUq2hkM88999wo1/rLX/5S9d3/PKjIvPMwGzlyZIxXyrny+JSKQAKDZjmcN6MNfZbHGQEl45CfoZya8taapVtSEZ5++ulYlHPONmMM5nFI+T5NxJgv2SF3DKpoNMI59thjo2lTTTXH4CuvvJL23HPP6EfAjqSUOSMtJdjRGT16dBySHj9+fJowYULVO//B4n7SpElxiPqUU06pvqxYKgJJiz/+8Y/p+eefj7b055xzTtU7/0FG/qmnnorzuFzZwfkLqUivvfZaLJjWXXfddNRRR8VYq4kKDX6GqztIZHA5tlQkSqTp5Mt1WD179oyrYmpirvzTn/4U45MuwDvuuGPVO1IxeNZyDQdnwNlYoBP/4uj2e9FFF6VTTz01krk2D1NNNtFZSrAoYseHh1X37t2jJTO415HzF7y/5pprRuMSMvNOFCoaiyLGINfB0P2XZAXlWVzbwUKKnUfOQrIDRNv6VVZZpepPSsVhUUTwyP1l8+bNSzfccENUW6y88soxRpkP2aUkwWHwqDIQQLKjyA4kY4xulzyL82XsPI/Z/WFhz/etwlDRCCB5HtN5mgQFdyuzBmzRokW8T2krz+Bddtklzua6A16/eY2HSsWEQZkq2AGi62CPHj3S3nvvnW655ZY468Pi3YlCZWFhxBgD5dInnnhinPs5++yzI6CkC+aGG25Y/TNS0UhU8GKMcbaHElVa1LPjyNUJjD/OozkGVSYW6ASJJCt+97vfxRVa7ErSGZ3dR5JsuRO6VAaqznKX6UcffTS6rw4ZMiTmQHpgkOBgHjSBUf/VxTUeBpBLMVo0cxEsu42/+MUvqnclpdpC+Uy/fv0iobHBBhvEQoqdIKk2sePNTiQB5ezZs9M666xT9Y5UO6677rpoHMaCnlJ/rk6QatNDDz0UmwqcdaR8f6+99qp6R/VdXQSQbjU1UmTYa+JrmpLceeed1R0wKRfkGgUW8BykloqUGzXlj4xBMp7csZevSWC3m3undthhhziXa/CoojH+ao5BzoPTnCQ3ceI9Fkx0IOQsmsGjisa4qzkf8vWrr74aDUry9xiDvK6//nqDRxWOMVcTX7PbPWPGjNgFBz0HKFvlzCNHnaSvYwDZCHHGh91EHlA8mHixcKdElTKFfL6RDoQnnXRSlCzkMgapCDyQrr322ng4Uf6Sx+Hll18e3S3zeKOBCdd4nHfeeWnVVVeN70lFefjhh6sbhjH+SFg8/vjjcb6RK2Tw2WefxZxJk7F8Bk0qCg2Z2OEmgcsYxPvvvx9NSRh34EoZmoddc801abvttovvSUXhuAgbBe+88071s5ix16lTpzgHzrzIM5uqNHbC+/btax8M/Vc20WmEaA9O5yzag9MUhx0eMutknOi6levZuaqDA9OeeVTRKE2lHOvBBx9MTZs2jfJUygNnzpwZi3ea5oBs51ZbbVV9NlcqEue8uYqDs2S5OQQBJRUXNNIBY48mOiYwVIazzjorqi6YE7feeusYi1dddVWUB3LmGyzWGYOMSc+bqWg333xzdN/nbG3r1q1jrrv77rvTxhtvHJ1+GXOsA1u2bBnfcww2PHXRRMcAshHiQUWJ4DbbbBNnyjp27Bg7PdzlUzOrxCThRKEykKx477334koYLmNfb7310ttvvx3nKyibrskxqLKQcSdBcdttt8UuD+WrdBzMwWRmEk1lYbeRwJCxyI44ZaqUqC5+NYdjUGXJO91UWNx0002pbdu20RyHBoo1n78+ixuuugggnbEaIUqz3nrrrSiRIeNJG/CxY8dakqBaw2KIrr+77rprdBM8+uijo4Tau0VVm8i0U2nBZeycLdt99929W1S1ijO1HCHhWMmCBQu801G1jnnwueeei+cwCVzWhRxnMmDUd2EA2QjQFIcMEwt2atvJMlEi+NFHH8U5R1rSsyPJBe5SGTg/wRkfxhljkGQF95txSJ+dR9qCs+tD2Uw+sC8ViXHH+GMu5HOwUGJcvvvuu5Fxp0yQs7lUaUhlIFjMY5AX99wyLjmHxjikYRjlhMyNUhlYCzIGuTaLMchRJr734YcfRsdz1oRz586Nklbp2zKAbOCYJGiEw2WvAwYMiEmCu6XIMvXs2TMW8RMnToyFU+46KBWJgJDmD126dEl9+vSJs7dkNhmDXFJMx0sWTIxPFlF5cS8VifJAdhjpHsiVHIwzMu9UX3AelzHKGXCqM1hYSUWjYQ5nG6m8OPPMM2MMcs775ZdfTgMHDoy7Rs8///y0cOHCeFZLReMZe8ABB6SuXbumwYMHx3ESmtatvvrqaf/9948XcyFl1SbS9F14BrIB4zzPqFGjUpMmTWKi4CE1f/78tP3228fCiYcXF7VzXce2224bu0CWLKhIBI+TJk1KTzzxRCzOaRBBaQwPL8pVyXByUTtlXFyTkJtISEVhgUSzJpoznXbaadHVlzOPdLNk0cQOJO9tuummMQd27ty5ugOrVJQXX3wxHXnkkVEmSDItX8fRrFmzeL9Xr15xJpymYiQ6eG5LRSIxwXOY5kwEitOnT4914pZbbhml+8x/Bx10UCQ12IVcc801q/6kGjqb6OgboRyBi18HDRqUNtlkk/ge9zzuu+++sfPIBJGvS+BMmsGjisYOOB0FWThxMJ/FEV0vadjEAomFFHc7MvZ42ShCRaM5DlUWe+yxR+w+0kmQeZFFE+X8JNRYPOX5j1JWqUgkMe6///7oNs0CnU6WXKNFh9/NNtssGjnV7G7pGFQZ2EQgaUuXaRIXJM84usRzmDUiybXcC8NnceNiEx1VhJ1FHlgs0Fm4c00HDyYW6nRb5XOuTGBxL5WBMciLnRwy7u3atYtxx4KJBT04m0tGNC+apCLlMciONkmzffbZJ77PeKOMn8w773vWTGVijIFEBWX6YHFO0oKzj3zOGGQ8SmVgDLImJGg84ogjIkHBPMgxkvwM5ggT41EqigFkA8NkcNlll8U5Cu57pDQwP8BYSDGJkIHibh92gqSi8RDiLj3uGmXHmwP6eQzmnW4WS5SucoWHVDTOMN5zzz3p0ksvjfO1lKrWxAKKMfn73/8+OrDm8SkViUYkjEGOktA8h8RFHmv580ceeSSSbDTQkYrGmcfRo0fH85YzuASNrAPBbiNjcN68eZFgY80oFcUAsgHhwDNXIdBZFf369YuH12effRaLdhZN1LbTVIdOb717946fk4rCg+mKK66IRREPpwsvvLC6MQljkBdnbjlzRvdVFk5S0WbOnBlzH4t0zj8ed9xxac6cOTH+QOn+5MmT03nnnZeOP/54y7VUOO655XlMMxx2GA8//PBI2uaxxticPXt2XGN0yimnxPkzqUiMu06dOqUPPvgg+hH07ds3yvnBXMgzmnXjMcccE2OQM7hSUXyqNiDsLOadHboKTps2LTpessvDwp4Jg4UVZy769+/vOQsVjocUCYyhQ4fGOQseVjygyIDmRMYrr7wS53/YJffeR5VhxowZ0fGXEn4SGpx7HDlyZIw9UMpPYyd2yLkHUioaDUq22WabaFTH2OPe5UsuuSTO37Lrw1zJGLz55pvjDGRObkhFeemll2LTYMSIEfFMpssvc96NN95YvRPOGKQbOp36TaSpSI6mBoS7HWmcw6TB5LD55punIUOGRLc3uq/SZZDPeaDxs1LRWASxMCJxwRjkzAUJjXfeeSc9/vjjUUrI17QJX7ysUCoK579feOGFSJyxgCKhttFGG6UpU6bEuGTnm+7ANBOTyrDWWmtF05J8xpbdHxo5UdpP85IePXrELjiNS6QyMPdxr+OCBQtiLqRxIrvidKPmmUxvAsr4udbDBIaKZhfWei6Xx/CRBxaL9zPOOCOuSaBUkOw69+yBtvUsorwmQUXivBlnb9lppDSQxTslg4w3xiRf07SJoJJub+utt16Ub0lFYd6jCQTjjPmNjpbs9tBlldJAxiXfmzp1anRi5fvMj1JRSExQZcE4ZDHeokWL6LxKRQYNdBiX7du3j4qgjh07xnhkfnThriLxHGZNyHP5Jz/5SYxH7r3leiI2DhiXJM+oymDnm5+xGq3x8xoP/R8s2ocNGxZ3mo0bNy52e7igmIcYX7NIIstEKet+++1ntl2Fo2EO5xzJYlKuSpazW7du0WGQElUeTHRdZSHFHY+tW7eu+pNSMQge2VnkuhhKs8i2k6ggecZl7VRlcNbnySefjBJ/FlIu2lU0GpBwppbnMXfdEiQy5zE3Pvzww1Fxwa74rFmz4g4+y/dVNBrmDB8+PMYgcyHPW+4UJXnL13TkpxrtlltuSQMHDowEhpYOdRFAfu+vf6+9v3Wl5c2CVIqObpwxI3t0wgknpOeee666qyXZdurceZiRFeWANCUK1rerSIytMWPGxILo4osvjkY5LM5ZPJHM4KHF2QuaSZDY4JC+F7SraIw/ulwSQDIvsjhnPHL+jCQb5VrPPPNMVF9QPsgOuFQkkhSUqDLfcXSExAXlgSRuKVflWUwDHeY/zoOzsDeJoSIxzrhfmaZMzIFsHJA0Y27kyqzrrrsujR07Nqp/aGJHOatjcOmx6PMvqz6rPQaQ9RSLciYGHlTc78guD/f7ULbF7g/YiWSyIPtu8KiisfPDQp2SQMpieEjR3ZckRqtWreJnWNCzC8mDinEoFY0dHuY3ukpTtsVde1zWTjID7DoyVhmD3EMqFY3GOPfdd19UBDHfUQHEx0MPPTTeJ9nGXMg4tf+AysBVHFxJRKMcEhU0DGMc/vrXv64uUc1rQufBpU9dBJBGHfVU06ZN4zoOzpfxUGLCYPHEIp4aeLLylMgwURg8qgw8lOgsyD2PYKwRJPKQAmdvGZM5iSGVgWYklE2DccY4pMsqKB3kcxbtLppUlg4dOkRjJuY65kWqgD766KN4j7JVygZ5Rhs8qiycqT377LPjbDdrPsYga0GSF5S2UqXGZoPzoGqLkUc9xUMql2Jx7gw8oJgweJBx95nlCSrbmmuuWR0c8qDiocVHGjldcMEF1ZlPqSwsmEikMd+x08gCiXFIowgSHCzqpTIx5tZZZ534nKQZDXNYrJPIZUecZ7NUJp7DG2ywQXyeKy6YG2mow3lHzoZLtckAsgHIgeL777+fBg0alJo3bx5BpAGkagtjjRfBI6XVnD3jvIULJ9UmMu+8uB7h7rvvjtLCXNIv1QaSZsyFjD2OmNCbwHO3qk3MgYxBylq5D7dnz57RmV+qTQaQDQTXeDBZ9OrVy2YlqhOcNSPbyd1TBJGrrbZa1TtS7aAag87AM2fOjDFIkzGptlEJdPvtt0fznB133LHqu1Lt4cztE088EY2drMRQXbCJTgPy7rvvRkmhNe6qK4zBXFIo1QXOPFLCxTVGUl3gPtJPPvnEnUfVGUqpOfu47rrrxm6klm52YZUkSZIkVcQurJIkSZKkessAUpIkSZJUEQNISZIkSVJFDCAlSZIkSRUxgJQkqQ6NHDky3XXXXVVffT06L+61117Rxl+SpLpgAClJanTOPffcuKu0ZcuWqV27dmnAgAFp1qxZ6d///vrG4wMHDkxz5syp+qp2vPzyyxEY1nTCCSekTTfdNF7LL7982njjjeP/ctttt6Vx48bF9yRJqgte4yFJanQIILm39Pzzz4+L3x944IE0atSoCL622mqrNH369PTQQw/FfWodO3ZMnTt3Tm+88Ubae++90xZbbBEB2+GHH57WWWedNGHChPTqq6+mFi1apH322SetssoqVX/LV+bNmxeB3aeffpo222yz1KdPn/SDH/wgPf744/Hn+P4HH3wQf3bLLbeMIPb+++9P9913X2revHn8Ozp16hQXgmf/+Mc/4r5LdOjQId1yyy1x5xt3EI4ePToNHTo0vfXWW2nixInx/+FS8Z133jltsMEGafLkyWmNNdZIhx56aFpppZXi99x6661p9uzZafXVV099+/aN/5ckqeHzGg9Jkgqy7LLLRgC11lprpf322y+COwJIzJ07N3Xp0iUCx2HDhkUA9uMf/zhtvvnmqV+/fumII45Ia6+9dho8eHB64YUXIuhiZ3LMmDHx52sikGvTpk3q1atXGj9+fLr88svj+88//3w688wz0/rrr5822WSTCPpAIDdo0KC0ww47pI8++ij94Q9/iO/X9MMf/jCtuOKK8eKi8BVWWCE+//zzz9O1116bvvjii/TOO++kCy+8MALYbt26xb+Vv2OPPfZITz31VLr++uvjd/FvHjt2bJS+Etjyf1u0aFG8J0nSN2UAKUlq9AjC2J0j6ELv3r3Txx9/nN5///3YBXzxxRejLHTllVeO3TmCSXYNCb5at24dwSCBIIHm4tq3bx+7iq+//nradttt07Rp06pLZQlSd99999S1a9fYCcWjjz6aDjvssAj0KFXl935bBMgEjuw+br311unAAw+MYLZHjx5pxowZsfs5ZcqUtOeee6b58+dHMP3ZZ5+lN998s+o3SJL0zRhASpKWCu+9914EUARVBG8EgwSW7PYtaUeOc4m8T8nqcsstl5o1a5aOPPLIqne/wk4gTXAoMeVzdgkpM6U0Fk2aNImdUF6UkhJY8v56660X73//+9+P3/ttEUD+6Ec/is8pTyUABv8n/h7+X7x4j/8DL4JWymElSfo2DCAlSY0SwRqBHB1LKRulrJPziQsWLIgdxRNPPDHttttuURaadwwp8WSnkGCPwI6AjGCPgHPXXXdNbdu2jZ/LCNKeffbZdM4558T5SQJF5N9HAFoTX7O7+dhjj8WfZZeT5j7f1uK/f3Grrrpq7Kjy72IntHv37lE6mwNNSZK+KQNISVKjROMcdgwp8aTxDDtvNKvZcMMNIyCkSc7pp5+e/vnPf1b9iRQlqL/97W/TySefHDt3kyZNij/L7xkyZEiaOnVq1U9+hUCM8tT+/fvH7+c85H/Dz3/yySfRGZYzkpTWloWzk5zxvPHGG9PRRx+djj322HTllVdGGaskSd+GXVglSY0OO4i5iym7dLyWWWaZ6h27/D5fU0YK3s+7lmDXjvf5+l//+lf178g/n/Fe/rt4j6/ZyeQjv48/A0pc+T7y359/Fx8X/70Zfy7/W/K/L/9+fkf+nXw//x7e45V3RPPfl/+/+d8kSWrY6qILqwGkJEmSJDVAXuMhSZIkSaq3DCAlSZIkSRUxgJQkSZIkVcQAUpIkSZJUEQNISZIkSVJFDCAlSZIkSRUxgJQkSZIkVcQAUpIkSZJUEQNISZIkSVJFDCAlSZIkSRUxgJQkSZIkVeR7f/37//y76nNJkiRJkv6/3IGUJEmSJFXEAFKSJEmSVBEDSEmSJElSRQwgJUmSJEkVMYCUJEmSJFXEAFKSJEmSVBEDSEmSJElSRQwgJUmSJEkVMYCUJEmSJFXEAFKSJEmSVBEDSEmSJElSRQwgJUmSJEkVMYCUJEmSJFXEAFKSJEmSVBEDSEmSJElSRQwgJUmSJEkVMYCUJEmSJFXEAFKSJEmSVBEDSEmSJElSRQwgJUmSJEkVMYCUJEmSJFXEAFKSJEmSVBEDSEmSJElSRQwgJUmSJEkVMYCUJEmSJFXEAFKSJEmSVBEDSEmSJElSRQwgJUmSJEkVMYCUJEmSJFXEAFKSJEmSVBEDSEmSJElSRQwgJUmSJEkVMYCUJEmSJFXEAFKSJEmSVBEDSEmSJElSRQwgJUmSJEkVMYCUJEmSJFXEAFKSJEmSVBEDSEmSJElSRQwgJUmSJEkVSOl/AdyOP6qhAMAiAAAAAElFTkSuQmCC;" parent="1" vertex="1">
          <mxGeometry x="339" y="-434" width="648.74" height="584" as="geometry" />
        </mxCell>
        <mxCell id="o2X0s68jg5Q_wTkpl9aG-9" value="&lt;ul&gt;&lt;li&gt;&lt;font color=&quot;#000000&quot; style=&quot;font-size: 14px;&quot;&gt;&lt;b&gt;ストレスレベルを数値で入力&lt;br&gt;&lt;div style=&quot;&quot;&gt;&lt;b style=&quot;background-color: initial;&quot;&gt;（0～100まで）&lt;br&gt;&lt;br&gt;&lt;/b&gt;&lt;/div&gt;&lt;/b&gt;&lt;/font&gt;&lt;/li&gt;&lt;li&gt;&lt;font color=&quot;#000000&quot; style=&quot;font-size: 14px;&quot;&gt;&lt;b&gt;コメントは空白の状態でも送信できるようにしました。&lt;/b&gt;&lt;/font&gt;&lt;/li&gt;&lt;/ul&gt;" style="shape=callout;whiteSpace=wrap;html=1;perimeter=calloutPerimeter;position2=0.24;fillColor=#dae8fc;strokeColor=#6c8ebf;strokeWidth=3;align=left;" parent="1" vertex="1">
          <mxGeometry x="-30" y="-490" width="278" height="161" as="geometry" />
        </mxCell>
        <mxCell id="o2X0s68jg5Q_wTkpl9aG-11" value="&lt;ul&gt;&lt;li&gt;&lt;span style=&quot;font-size: 14px;&quot;&gt;&lt;b&gt;日毎にグラフを表示できます。&lt;br&gt;&lt;br&gt;&lt;/b&gt;&lt;/span&gt;&lt;/li&gt;&lt;li&gt;&lt;span style=&quot;font-size: 14px;&quot;&gt;&lt;b&gt;その日にデータがなければ、データがありませんと表示されます。&lt;/b&gt;&lt;/span&gt;&lt;/li&gt;&lt;/ul&gt;" style="shape=callout;whiteSpace=wrap;html=1;perimeter=calloutPerimeter;position2=0.26;fillColor=#dae8fc;strokeColor=#6c8ebf;strokeWidth=3;align=left;" parent="1" vertex="1">
          <mxGeometry x="836" y="-490" width="278" height="161" as="geometry" />
        </mxCell>
        <mxCell id="o2X0s68jg5Q_wTkpl9aG-14" value="&lt;ul&gt;&lt;li&gt;&lt;span style=&quot;font-size: 14px;&quot;&gt;&lt;b&gt;吐き出すごとにログが表示&lt;br&gt;&lt;br&gt;&lt;/b&gt;&lt;/span&gt;&lt;/li&gt;&lt;li&gt;&lt;span style=&quot;font-size: 14px;&quot;&gt;&lt;b&gt;10行を超えるとページが増えていきます。&lt;/b&gt;&lt;/span&gt;&lt;/li&gt;&lt;/ul&gt;" style="shape=callout;whiteSpace=wrap;html=1;perimeter=calloutPerimeter;position2=0.47;fillColor=#dae8fc;strokeColor=#6c8ebf;strokeWidth=3;align=left;direction=west;" parent="1" vertex="1">
          <mxGeometry x="-450" y="156" width="278" height="161" as="geometry" />
        </mxCell>
        <mxCell id="o2X0s68jg5Q_wTkpl9aG-16" value="" style="edgeStyle=none;curved=1;rounded=0;orthogonalLoop=1;jettySize=auto;html=1;fontSize=12;startSize=8;endSize=8;" parent="1" source="o2X0s68jg5Q_wTkpl9aG-15" target="o2X0s68jg5Q_wTkpl9aG-2" edge="1">
          <mxGeometry relative="1" as="geometry" />
        </mxCell>
        <mxCell id="o2X0s68jg5Q_wTkpl9aG-15" value="" style="shape=image;verticalLabelPosition=bottom;labelBackgroundColor=default;verticalAlign=top;aspect=fixed;imageAspect=0;image=data:image/png,iVBORw0KGgoAAAANSUhEUgAAAaEAAAEhCAYAAADWGB8aAAAAAXNSR0IArs4c6QAAAARnQU1BAACxjwv8YQUAAAAJcEhZcwAADsMAAA7DAcdvqGQAACemSURBVHhe7d0PaFRnvv/xrw1k2UvCLnpXiAjx1yVNl6hdvJbNajeSbkKkQrhzaxupmL2WgJJifpG9Na7bSDGtP6Nd4qZ0UAh1N6Ikd92bSyCLwdyKafVmqRu2VdlNw7oGRMH9GX7FgNywqb/nOeeZ5MzMmZkzf5In1fcLRudM5s+ZM2eez/PvnFky9fDvjwQAAAueMv8DALDgCCEAgDWEEADAGkIIAGANIQQAsIYQAgBYQwgBAKwhhAAA1hBCAABrCCEAgDWEEADAGkIIAGANIQQAsIYQAgBYQwgBAKwhhAAA1hBCAABrCCEAgDWEEADAGkIIAGDNkqmHf39krgPA4+3hoLRuPibXlxdK4co1srpohZRUbpYtz6+SfHMXLCxCaJG621sv2079Xykq/IYsLVkvq769TNbVvS5VxV/zr4ouBKrfkdGif5TCb66QstUr5BtP10rz1jUUArFmpmVy/Kpc+qRfBvrG5JkD3bJvY6H5IzIxPbRfqt++aJaMmg651LrBLGChEUKL1MjRH0hLv1kwKt7+WNqqghXVE6cbpOVP66W58XUpX7l4ivfJvgYJ/eKaWXKVNPZJ12srzNICu3xQNrUMmgVXVfvvpXWjWVgoKnCmvrwjX3w2JuPXL8vIp1fk+s0HMm3+7FomVYd7pbWCIMrMfelrfEmOf24WjYo29b2qpApkCyG0KN2S0/V10nXTLDpWScOZXtlRbBaTmTglDdtPyLizkC9FFbultWW7lH3LucGiMenaVi+nb5tFxxpp/o8uCS03izl1R3p3hiTsbghXSZP0nNouRWZxvkNo+sv7MjVjFv7fX+X6xAN15b588emYTMoDuaX+v/vgjkxOuXdJbZmEOv5Tmp+n0Ezb+AnZtvOU3DWLjrxKaTt/RCq+aZax4AihxWiyX/bWviujZtGRVyvtl34u5WYxoRkVYA0qwLwFryNfikOHpH1PpRRZKr+mhvbLltiukAwFCwobITQtQwd+JG3DZjFX8gqleF2t1DXulC0ltIQyMfqLKtnbpysB2as6rPaRCrOArDA7bhGa/GQwOoC0jetlnbmazGTfOz4BpE3LRN9+2ba5To5fvBPTzbMAZq5JV2duAkikUAoXbTmcLyXfW2WuZym/UMoqdkpzZ68MXBiS7o4mAihTt89IOEcB5Mgz/yNrhNCic1/+e+iquT5nXfn6QAP3S7eGpadtqyScvzB9S/paQ7Kl/pgM3164KBrvOih9k2YhayukaKm5uggVl6w119JX8GytNLZ+IN0DH8ulj4YkfHi3hNatkoLHpfft4S0ZOXtQGrYdk9FIN+W8eyBD4U7TPZ0Li7kS9PVDCM2rBzJytE4afnFRJh6am1K5d1EG4ppBa6SifJm5nkq+FFW+Kd2q5hxu3CBLE9TYpm+ek9ZtP5Z6tW535zuL/nxCWk/fMQu5UCgF/2CuLkbPrPG0WvOloEiFZuRSVilbamvVRbVwmmvmugWNohd3Sl3Nein+1uM25jMto+E6qa6uk5bwoIzfPifh3hT7hO4qfbFKtr0Skm279svR/jHzh/RMDR+Tjpx2jy7uStDXDWNC82jibL3Uh80XJ2+ZlO94S5rrNyQdkxnvCknDr2K+nOt+Ln2dtZLRfq9qnsPhFmnru5W4C27pBml855DUrZ2H6t3UFWl7ba8MxbSClm7tkr7mNWYpmfsy0PSSHPUGc9DxsUUwMSGp22dUiyC6hp79TEG1vV9Q29ss5U6NtH9yKMCYpJ5Wfl56Tp6R4aL/Ld37Nsy14D8/JqHGczK7KxSo5+xTz5lgUoBzmML7c8FTtKNbenaVmqWApi5K29b9MhQz8aNkV6907QjQbTqjHr9JPd4suiql9cIRqWIyQ07QEponU6pwa44EkDZzX0Z+tdcdkxkYm5sx5fXwivSci68dVoQ2ZxZA2jdXScVPe2Wg54iEnk0QMpNXJLxnr/RFTRvKgZlb0tscH0AqgeSdPUECSJkZk9HPzPWI59bIM+YqFpHpK3J0y48k1PCu9H56S+72H5Nub8KufV3qvT2VU4PSff6+WYg3eTf6u1Dw7TQrSc7+Fx9A8myTtL4WcNzuxlUZMVdnFSyTIgIoZwiheXFHRodV0JilKHpM5v/Uy5ZX9krv59EDpZPnP4z/whRslVBF9l0z+SsrpblrSAbe2+47XrTup+0Siu0biqUKjbaGgGNJqgAYaGmU8J/NckReqTS+/6aUBR3YvXFZRmICu6isNPNQxvzJ3yChkLcVd0dOnxr0fA+Wqf2+0lx33Tj5YYKxofty62b09+OZ4nRaiA9k5LDf/rde9h1W34GA+9/4f1+J/x4/UxrXjYrMEULzYoVU/My0Pp5OECD3VOujsUpCLWfkxpdqWbWCPjgZfRCnVrS1VtblcCZOQXmTqn32SVvtXE1waU2HWk415vRAht87JkN/Piet2/9ZWs5e82/NaSpoe/fskKMjsbVcfbDlB1IX5FgnI74QKJTyH6bZJYMFU1LfJBXe/XX4hPR4giC/YqfsWGkWNFWxGY5t6TruyPgX5qpjvZQFbv66Y7Etg3773xHZEviYNFWZHInvmSh+fi2VoBxiTGgBTH1+Rtre7pSRe+aGWHnLpEQVzOM3Y74083wg3dTnJ2TfiW9Iy/s7U9YMdffijpbBuf58JX/dm9LduTW6VvjlFTneuFf6JszyrHwp23NawnWFMvBvddI7owfot0r1RtWqSdTQm7kqx7e8IX3eFMqrkfaPDkl5oGBewDEhn+eZd7HvJbD4caNcjoPFjWtWHpELbZWzY0N3z9bLNm9XdczfHbHjZUU7pes3u6XELCY0oypLv6iT1n6fAGrvVe8xjS49v4NbVSUoFB6S5swnQCIGLaEFULB2u7T/JslstZn78QGklOxStcp57HsuWLtbwuHUAaQHdzvaogNIW11VGVUATg6/K/W1fgG0TMr36QBaJVPDv5TwyAOZ+LRfwq31Eqqukvq9nTLw5/txEyemh89FB5BSUFsbMIC0WzIRddaJHJi5JuGmdxd0evvXTcm23dGtoYtnZMBTASuqqpUyc91x8ZxciNm5JkevRE+pXrs2dQA5LfCXfAOo4u3T6QWQMtp/LiaAlIIaqYhaeWSLEFooeYVS9lqH9PV3SePGANOtl26VvXWWzqfmlWRwd1+kC+/hmPS2vCShA/0yEdtFp1p5Ww73Srvu/nt4RcLveccIFFVznfj0jBxteEmqXwzJ3vcj09nvSF937MGthVJdud5cD2Dmf+R/Yten6B9VkZS5yYET0jvaP9claW6HhyqoQ7XeAv+a9HqnVy+vlX+JOtvAVRm45A2O+GPlKn6Y/HPXhxy0bK2T8OcxlYO8VRLq7JW2qjQ/9Xv9cro//uDWgs2bc9o9DkJo4X1rjdS1/04Gwk1Snqxv+h9EHtgu4XTXhu/gbqk0vu3pBvrmCikuMNe9lm6Q5lP/KfvMCTenLp+XS8ne0/QdGe3dL/XVP5Jt2xuiu9G0kp1SF+S0ERG3b8UfoPjtwuhun3SoFuEHYVM46tmO4QYJ7e2PayFCZF1tdDft3XP9ngkI+VLxYswEhf7zc62O2GPl8iqlemOST236qoT/7ZiMxH4Qy/X+d1qa16U5q061yUdOdvpMmFghoS0BZ3UiMELIkoK1tVJflWSA/baq2dXWydHh+G66BaEK2aG366TVd3D3A6nzDi7ryQIHwtL4rFlUllb9XHrOdURNzCioOiQDFz6Wvq6fy46KUilIWKOclrsTsa9bKFUNr6Q3/jHxV4ntGSwpzvSUOqpgCh+LaxGurtzoDlJvPCSXPvl9epeeprguJn2ckO99/S4ZjQctkJJaCXnf3NQ56Ruea6Xkb6yUqMbQ3WvuBB1lvP+M3HCvuipqEh5L5MhfL83dHVLlmS2wdOOb0t0Tvf8FNT1yTNoHfU7xU9kk9Sn7BJEuQsiKaZk4/YY0nvV0UfjR05wPvCT1x68knok2H6auSdeef5a2i/EBWNIY9u9bz1sldccPScXKDdIYHpK+t2v9D8rNy5elz9ZKw+FuFUi/k66fbZd1QX5qYl2TvJGsNuzjxugVc21OetN850xdfkfaY8caVu6Uxi1ZdO75tNSKM1y/xWeFVNdGtxqGB87PdV9+c72Ub1yhWkxN0n7mY7l0/ohU6bO862OHos6uUSihUMykBT8FG6S165BUPWv2v/Ykp65KZuqKtB/2ad3q1v+uAOuBtBFCC+6B3DjZIPUnUwSQx8S5vc653kZMTXE+Td04Iy2vNcjp2L51RU/lPp7sIL+CGmlTtc/AZ17IXyYlW5qko+djuXCmQxqrEjy3LgD2pXnGiJmrcuF8bG22UtY9Z66mY+KMNB+InZixTLY0vy4lWYwPjH8We47AFVKUzYDVIrP0+Uop+9YaqfjXN6Wje0guvFcrc722avu190nHvu1S7kmLG12/lGFvhUtVPuqDdsEur1FBlMb+F0tXvvwOrlZKdh2Kaf0jVwihhaS7uFrrpPG0XwC5P1jWXpfgZ4YnzklLqEF6b87TrKwZFY5dDRLa1Rnft64srTkipw9s8BQiuZW/coUUTPl0gSgVrbHdf6n5zayTdRtkXbqzDe8NSuueThmPaYkurXlLGsuzqBerkBzoizkGJW+NrH6cuntWbpfwQJe0NWyVdU+nHovThwG8dc7b2lwhOxozPF1VuqauyvFdqvIVO/6p6TMsqO8l5gchtFDuXZSj9S/5dnE5AaSPYahYJeV7eqXvva3+06anr0l45z9L25Dfc2RqWiZHVevnlSpp/NU1tRSveOsHcrq1MskYTpacbVPnc3CrKuxrO6SlKs2a7cyYdJ+M/9mIitr0Tn/kzLhqOCjDsaG8cqcczTKQx7vezXL6+WPGp7W5tPZNqfeMM84Xt/X/hs+hBcrSGmk/HvwMC0gfITTv9O/47JXQK/tlwG8nNy0g7zhLQfmb0v2bQ1LlN3tOt6Y6P5TRbBtE0/dlfKBT9m77sYSaEhxIm6fW7e3fSXfz+vlpAenW19nE20Z3/53el35hP961P+bXWxV9+qOgP+Fs1qtOd4HGBtDSDbKvfXdW3XATvQ2qNRx7JH6p1NelMf38cTLRLy2xrc2S3XL8p56Tn86H6TvOga2JWv9OAJ09JOXz1fyHgzMmzKPp2xclfOCg9CXqQssrlR3hD6ShLEFNXx9817wj+tgHXQi+3yFb0jj1zayHD2TiT4Ny4Vy/9F1OcBJVI//prdL63ptSMR8/uz2jgnn4hBx//4yMJjiLhG59hTMIP13AN7wf36Jbt+930uF3aiK/Mx3ogPHbNnpsqrs7rdMORVGF3sDhBjnq05INflbxXJjfMyakQx/g3Nwac3yZKvzbTh+Sivn6OXpVARsd+KXa/wZlIlFlrnirdJx8U9YRQPOOEJoH05NXpe+9d6VrOMkvmOpB1BMJWjtezlTpHW43XtBCUIXNpLrc/2JMJm5ek9Hrn8voZ2Ny98uEazMnf5WEWjuksXJFzmuh05NjMnL+jHR3D8p4ouOFdOur9bS0pntwoZ7w0bVXmv26FJ9tkp6uBNOZg55uJ3+NNJ7qyiyAUhV6av26Ty5kl4/9EJq+fUW6339HTl+OCeRsKlkpTN8bkwu9nXK672rS39Aqrj2iWmGVCX+LC7lFCOWKrt1/1i8Dv/pQekeTjdnkS3HokBxvTmMn1weN/mK/jFYdSXng3WT/GxI6Gv/LrCkVlErVriZ5Y8v6xOdyS5cKwrsT12Tkk3650HdZbqQIwUxbX0lbnKm6VIKEkKoVt4fflPI0aubTU3dk4voVudSfotWZwxr3SNsPZN5PX5fx+eq0aZn8s/6toVPS96lPBS2D7ZyU0/K/IiND6nv50VWZSFTxiVi+QRrfnqff1UJChFBOTMtw64+kNX4sPJreydvUTp6o+y0XfH4oLbF8KXp+s4Tqtkvo+VWSn9Oa37QMHfiRtAX5RUsVgKGWIxm2vpJs+yC16qQhpCoMde3OOf/SmpThd+JVH/qAyuPJfoo9TYsuhFTFbOrLO/LFp5dl5NJFGRi5JlO+9ZB8KfvXsBzduSaHk1/GpGtbffzYoB/V+q/a85bsrc3l6yMoJibkRL5UbN+Z+IupC9m2PrnwHx3zG0DayvVSnqSEyP/WKllXtVOaO3tV7fBj6en4udSV5zqANLVNqqNPzRIrX61rXVuvXBjoluaMu//U67yyNX7Wm65Vnw7QrZP3DXMlWsGzW6Wt57+ke0+aAaTlrZctW5McdKq7PNX+0JvpAZVfE6PHX5IttXWyt61Teof9AkhVgiqaJDzwsYQbch0Apeq1k//kh7P//UwfNN0rrSECyBZaQjnzQNX8q6Jq/vqH5Oqad0t9zlsZyd04XiWN59UXvLBQisrWStlzG2T190pldfEKKVjIX4T0axHkF0pZ5U6pr38l6iDF7NyXvsaX5Pjn+nr6rZeJ/r3SfPSKTOZy3e6dk8Z/ORZ1+hld6IV2NEn95mSnLMrcomsJjR6TLU3n4k7ymq8PYN3+utSHNkjxfO6PPp+BFKhK2Iu1UleXy/0P2SCEcmn8hDQ0X5WiUK3U126WkuXs5ONd9dI8XCjlFZWy5cUaWR3goMVMTF9+Vxr6l0njntelPMhpgGJM6wNlC3K5bro78sfScXutbNq8VUJVG5/A/eGaHN/cKBcKV8gzZRul/IcbpHzjWikuWKjtcN/57aquB+ulelONVD+Rn8HiRwgBAKxhTAgAYA0hBACwhhACAFhDCAEArCGEAADWEEIAAGsIIQCANYQQAMAaQggAYA0hBACwhhACAFhDCAEArCGEAADWEEIAAGsIIQCANYQQAMAaQggAYA0hBACwhhACAFhDCAEArCGEAADWEEIAAGsIIQCANYQQAMAaQggAYA0hBACwhhACAFhDCAEArCGEAADWEEIAAGsIIQCANYQQAMAaQggAYA0hBACwhhBCbtw+Iw0v1EvvbbMMK0bafiANZ++IXD4om3aekbvmdmCxIoSsuCJtL5jCIh26YHnhoIyYRRvunq2XTW1XzFKsVVK80lxN6Y707vyBtF02i5lywi+zbTJbYH8dOe87fvuV72wSCZ+QkY27pVE6pSvb7fu1kKN9KROEfdaWTD38+yNzHUnpHT0k4XGzmExJk/Sc2i5FZjGeDqG9MtHYJ12vrTC3BaB3+BaR9k8OSbm5KbhcrL/7HBeqm6Q43ClD5tZkShK9R12IbhuThozei0cWz6NDqOu7aX4GfvTn0lWa4jPPLb3uLYM1vvvC7PsqPiGbPtosl1o3qFvT+Py1uH3A3WeDfOYRVe2/l9aNZkFzPqtBqe7plrrAlZUg3Pf2RUPM68Vyvj+DZiGxhPusHwuf/eOGEMqpoOFiI4SCSLFeyQqRFGGgW1DbwmNmKQWfEEzr8REpKgPOc/5ltymkA0hU4KQsiNIvwB01Hf7r5mzrTkmVJ3EhsFDM+hXHvn7MdnKD1P2Tn7kwSDNAPYJvA/MZJdrmiRBCWSOEcsgtKFcFCInFGUKp1t8pNG4GryEnLgD0Y07IM7moEacIv2TiQ8jzXvwCLFEIZ1UQmQJWkgfmnAD3d/aTW9KY8xZHQAleP+3QDyxgSyiRRKEZhPNe/ZPUWiXga4YxoZy5Il2qpl7SuDtwYTgeDsmmF36wSPqUU6y/+qJ2qe9aVYMu+PSX3tsHr7uFfi+XZi990lhi/uRjpE3XOHcnKSDd50889pRDN084YyvO56ACSFTB4bwHvwJ+ZaVUl4zJFxN6QQeWeZwuhMY7ZZtZDj42YQLlaVX7DhhgI226RaC2d5L73524pf5NZ3wut/xf/44MX1D713dXmeUs6cI/sv1f2C8XzM1p08/jVGKyCAxdYYna/90LARQMIZQjTsGqdsa2NFo2urvB2WHbRFrNFyp3A+W6kAw+YJ9q/UdOud0/Qx/5BcOgtMwWCPqSpOtEfelbBkul5OZez/3N+9Y10sjjdcGc8xqzh1oPp3tPrWd1T9CCY4VUVJfKUIteR92Scx/TXuP5LD/pENF/D1CxuHt2v9uiCfg+dUtCb7vGnmStPrewl5rN0feJKrSDXTId6J/4i8/rG8XFabT8E9H7idPSMp9bj/oAMuiq0y17Z8xsnnoWEAwhlAumYG1sC1abjbNyu3SZQrDhL6Z1lFUrQNewdaioq0GmTKdaf9MKKikpNTfECtgScgoPt+uius1zf1WKO61Cp6vL3BZXMHtaHt6LMzYSG4L6kmi6uGllOd2a+rXS6LKKBJfzfiOPuyIX1LarrogUrhukVT1v+9OqZZTsM1TbojUsgfcZXWBu0/dP1cV2+6JcUAVy1Ysx22/jobntnfLSIVXmYenT20PtK3EtnlvyxXipPFNsFrOgK0TSeGRuOzgt1EQVJD/uvuTsioPRlSFmui08QihbpmAt8X4pslDe6hYEPd89ob4UmUw9Nl08TpeNquGlWqeU66+er9XtL2+rNjdlQr+OCgxxWgxzBbgTLE5poGv4yQpYt3CPKzB7mqQkLgT1xe+5PN1f6dZ+dUvCqX3rgB2UrkiL9fJ5FfY1UhHzWnqqdMng+YSf393hQRn3eZyf2bG4AIHptFhVi7Yhm64g/Z7U55FRYJjHzoXyQtABp/67+dfUAeK0CN1Wv18XWk/1oNOtamW69xOKEMqKKkR1wapaCLomn8tjTope606/oNQFve7K0l08gR4bZP1XSN2pVN1UqbrjdJC5rZzZiRimMNCTM9yad2SsZf6k2/01R62/agpWtesQUNujQbfcTqiAcW8vqa6Mb82s/F9SrArHiQQtUd1l5fs4H07FJMiYkdOijYzbZW7kI92UCRaQ0dT+pFcg6Xifh7MPpF/RKn8xsv1duit5ImErfY7T/RZpASfYns73TrXMh1rsHo/3JCGEMuUU+GaG2ym146oauegupYUYTPfhfMF015SeYhqkwMrp+qfqjtNB5qnFm9aXnj2U1uxApyXjDTvzns1fU0mn4I/idHHVSHUkiDcekvYaHbxu4PuOo93+q6TK1PG/6AH8XIkEQEd2A+Lqs5mbgJIeZ1xR7wuBQj4S7BmMx6jt39N4a7bi0yId0tWQfMKDHk/Tx04Fqtht3KwqRX4VCNNy9170Nh8fS/lZIzFCKBO6BqcKP91FNVuI6nEd3TWk+5gXMoic2qTu39bdWSoAghQAltff6TJKu7DUBYA+UDYyASBy0a2oSEss+WmDir+rWnyZFPwTYzKuatre3ildG9cSFdaputucxwfpPgrCVCicLqa0W3lebss4/c/GrRwkOnjWX3ZjRG5PgdkH1HvWrbdkFQx9/+hWuCdIguzvZhvPzp6MXPSsFG9PgKVK6NcZIZQmt0nvzsyJ+6I6EwxUoagL8nkd4PS0CEyLIugA+/ysf6ruuHjRA9fueE/Sgs9pWdRIg2/LKdISOyLS6q6DX59+0Wu7M/tsikulZHxQhk3A6Vq13oZVNaX+g+GqkNMTGJK2JnRte7xTWrPswk27BZxIhkHmbItAXcCr5JnZ6e2auxw+lX2h7c4aTLRvxHBa4Z6ZderSLtH7xN2zJ+LG+ZxKRaJw9owvOc+lvwOEUWAcrBqU3nkjX/aUX1JdazdfaN+Cwf17Zgerqua/I9VAfowcrL/+srsHG65yBvgzPTjQeZ4gM72iJNhmzjaJPYDXva+utfqtny64ZzdjEt7Tt7jrbM7YkOhzjWxjdTXYgYpmOzshmka3lOd13ABO47ExvNsi+OlqIuutBd8P9WvFniYp2WeRen10ZUxXeNL4LjjbLvaAY/1+9JT73fLFtgSfh/nuxX6uzvpL/HfKuT3uwG74IYQCcAugIGdC8EpWELp/SzuEMpSr9Y8NoSCnUUlYkEQVpP7iHxspdMyiI7tCOBe8BWlGR8lHVS5c/s8z9/4zeh0t9rUCVUpc3iAOHlge+rVzdIqb2XVJY/1nJdn3km5Xv8dl8vqIQggBAKxhTAgAYA0hBACwhhACAFhDCAEArCGEAADWEEIAAGsIIQCANYQQAMAaQggAYA0hBACwhhACAFhDCAEArCGEAADWEEIAAGsIIQCANYQQAMAaQggAYA0hBACwhhACAFhDCAEArCGEAADWEEIAAGsIIQCANYQQAMAaQgi597en5J/eyZNBWSKd4Tx5/Ya5HQBiLJl6+PdH5jqQtsHePHn5/iO53viVrDK3afr2A8u/kj8sf0oKLsX/PYhbF/Nk9WWR3741IzXmNnt0oD4lf9w0Ix+WmZti6fA9uUTG1NXSjeq9V3q/Wk/J6+8ske/vmpGm7+hl9/kOTDp/jJP8PXseW/JIpuq+cm9OKPlrRYl9Ps978uN9n/oz713tv30in+Xs/W/kSUGf+WOMV0NJtjEeO4QQMmcKKIkrcBXzt8NvfSVjqgCUVyKFb0CmkIorkMzth2cL8+zcPVsv2/6yWy61bjC3RHNCdtwsxHg19JV8/1J04Z44PPxDKC7UZrdb4hCaC36RQ+o5/z1lEAUIUMUJinsBQs18Br/d9UgOqHX9iXpPpR+56/TbVx5JzXf894WfhB7Jr/uWyHMJQybYeuLxQgg9UdKoEUckKeCSFdCzlmbQCkoWbpr5u66dZxtGqUIovmD0LgcoNBPU+CMBFvfYpCFkPj/xblO/22KZ+2TaEvqNCpzIc0cCJbLdI+/P+zh92/XIsvvav/5edAsoEmB+LSxaQk8WQuiJElMgpOCEjCrcfEPIFCaJCwxT8C1LHGK+/Aq1RCL3zSTojNQh5LYQXpbINvO2aNz3GKzmnmV3nHmv8d18rkiFIFctxFl/WyKD15+Sl3W3qAmOuJaMWTfnte+51yPr77Su/hT080lne+JxwcQEpE/Xhk2BmLiwWCJ/VAVs6fLgdRxdYEUK2kDBVTYjU299JYfVa63unb9dedVykbF7qmWm/U3kMxV6tTkq6HWIT6kCe/aiCvpS8zeXLpjnCvZElYeaOvexvz6p7qsK8lvmds3Zru8Ev3Sq9zjrO4+kpnJGrm8UeVkHUInIv/fFPEZ/Zup257X1+J8JIL2fvKwC6PAy9fl47s9EFXjREnqiuDXN7FpCbo0+5TiEt3acssA2z6muJarpZ0q/h0SD5VryltDcevnxGxPyin7vGbSETNdXpOWRsvvTfCZO60O1XCKt1OCtkdh11Mw2CNTaNO/Jr2tQ7w+zE1SSb9eIxONreJwQQk+ULEPIFIpjAbrKnMf6zJqL5imI1XMevr8k8LoFYoJQh8WHZf7PGaQ7zuWua3RXUextwYMmszGhzERCKajZ8DTrMjv+E5RfBSQqhGLMw3vG1wfdcQjGUytPFUD6vgdUjf3VTQkCSBdITteMup8eM1KFz1RdrutCKhB0N5HTZZjpc+sQ8ayrChNvV9SguVdij6Sp0XSzhdxbIt1vUcGzEHRLRq9H0ssjedXc3fEdVSFQt7tjX3PvO+lFd4s63aRuAOnKiHO7+ixk0nTL6fvofUAFtLfbcCzSDejzNzy+aAk9UdyaeU4mJiRkav8+XTLeGnn8hIb01i25xOsQK3BLyBPCc+vttnxk9rbYltAc/d5fvqeu6GnMzjqZdUzWHaf+T7cVE+Hdvhm3hGa565pqwoDzOommePu0hGbv/6I421a3sH+rXkt3OdIV9+SgJYScunXRLVgPvxJf+K+qnKt1JyvMsqODIFgABacK4d+404l1S+ifLnomKaj/vr/cXUxsifT/SeS51V/JT9T1Q87AvNtK0gP+zliOaYXoANDbJ1IAe7eZe3HvFzehIeYSt30zaQnlgA6a2e2l6TBXgaZbOfq9XV++RF6/7v7pVbVt9AHOel0IoCcHIYSc0S2nyIB4WmMIueJ085lJEzkLIP2+VKgteySHl7rv7bfqa+N0Kd1TwRRkptzflsivVegcLFPBs8kNMrcrzw2nV1U4BXVLFeh6ksBBb8jogv2dmFltsSJdYUkvyScLxM2Ki7n4tbaiZhZq+vr3HqnPRlcW1GP+pN7LavdPdXWP5LnL6nZmzz1RCCFkzxSCkeNU5q+Vk4hboLmTEFSNPq3uw+R0Td6ZYOEZs3JaJ+o1BlUNvtQpUJNxW1HPRcbHylSIlYj0qoLWaTU64eTcMYoO9LhQUdtZH68T18p0xm4eyR9P+k9/nmtN+bei9Pq4rTF3Ob4CYca2zPTxSGtt9mLGu3QXmu+2v6/eq7mq3/8fKkU6w243ZnRl4Sv5UL3GZ97WJh57hNATaEzVNv1qsrGXVGdDmB10PqkKDH1sj28BNl9M8DiXJfKZef2cBqAu9BNNbVZ/05MvfrI6+fiVEzSqFeVdL31Mz8F7bsvBr9tSB9eYKrijuWGmt/PsNp6d4OFuA92K0a2VuPCavZ+7nQ4u9xbwS6T0xa+cmYnOfZIdb6XC7rA+Huh69OM7L7nB5tuFpicpRLZfpDWmAqhWhZrvZ6UDVQWRqH00acsOjw0mJiB9ulDTs50CHTsSlDv4nWpigneQPRfHFGU6RVsHsHOC1qjX18HomZigW4gfifzB2zrQt5lB+OhWg/v83okK3mOFfE8gGvccc9snMrDvTC4xLdQgFYTI4yPbNvL4tDnrJs72iHTx6aCKCh7ve8vpvoSvE0IIT7TgIQRgPtAdBwCwhpYQAMAaWkIAAGsIIQCANYQQAMAaQggAYA0hBACwhhACAFhDCAEArCGEAADWEEIAAGsIIQCANYQQAMAaQggAYA0hBACwhhACAFhDCAEArCGEAADWEEIAAGsIIQCANYQQAMAaQggAYA0hBACwhhACAFhDCAEArCGEAADWEEIAAGsIIQCANYQQAMAaQggAYA0hBACwhhACAFhDCAEArCGEAADWEEIAAGsIIQCANYQQAMAaQggAYA0hBACwhhACAFhDCAEArCGEAADWEEIAAGsIIQCANYQQAMAaQggAYA0hBACwhhACAFhDCAEArCGEAADWEEIAAGsIIQCANYQQAMAaQggAYA0hBACwhhACAFhDCAEArCGEAADWEEIAAGsIIQCANYQQAMAaQggAYA0hBACwhhACAFhDCAEArCGEAADWEEIAAGsIIQCANYQQAMAaQggAYA0hBACwhhACAFhDCAEArCGEAADWEEIAAGsIIQCANYQQAMAaQggAYA0hBACwhhACAFhDCAEArCGEAADWEEIAAGsIIQCANYQQAMAaQggAYA0hBACwhhACAFhDCAEArCGEAADWEEIAAGsIIQCANYQQAMAaQggAYA0hBACwhhACAFhDCAEArCGEAADWEEIAAGsIIQCANYQQAMAaQggAYA0hBACwhhACAFhDCAEArCGEAADWEEIAAGsIIQCANYQQAMAaQggAYA0hBACwhhACAFhDCAEArCGEAADWEEIAAGsIIQCANYQQAMAaQggAYA0hBACwhhACAFhDCAEArCGEAADWEEIAAGsIIQCANYQQAMAaQggAYA0hBACwhhACAFhDCAEArCGEAADWEEIAAGsIIQCANYQQAMAaQggAYA0hBACwhhACAFhDCAEArCGEAADWEEIAAGsIIQCANYQQAMAaQggAYA0hBACwhhACAFhDCAEArCGEAADWEEIAAGsIIQCAJSL/H41tQeRkBskCAAAAAElFTkSuQmCC;" parent="1" vertex="1">
          <mxGeometry x="-1005.71" y="-858" width="440" height="410.97" as="geometry" />
        </mxCell>
      </root>
    </mxGraphModel>
  </diagram>
</mxfile>
